<?xml version="1.0" encoding="UTF-8"?><svg version="1.1" xmlns="http://www.w3.org/2000/svg" xmlns:xlink="http://www.w3.org/1999/xlink" viewBox="0 0 1600 1200" width="1600" height="1200" x="0px" y="0px">
              
              <!-- ITEM 0 -->
<g transform="translate(697.0 137.0) scale(1.6832298136645962 1.6853333333333333) rotate(7.6053905845454075 80.50000000000001 187.49999999999997)">
<g transform="translate(-0.0 -0.0)">

<g>
	
		<linearGradient id="SVGID_1_-i0" gradientUnits="userSpaceOnUse" x1="19.6346" y1="194.5573" x2="23.8025" y2="194.5573" gradientTransform="matrix(1 0 0 -1 0 382)">
		<stop offset="0" style="stop-color:#92C4FE"/>
		<stop offset="1" style="stop-color:#5BABF2"/>
	</linearGradient>
	<rect x="19.635" fill="url(#SVGID_1_-i0)" width="4.168" height="374.885"/>
</g>
<polygon fill="#1B236D" points="143.955,52.873 0,52.873 0,9.07 143.955,9.07 161,32.212 "/>
<path fill="none" d="M116.413,24.299c0.347-0.695,0.695-1.39,1.042-2.085"/>
<linearGradient id="SVGID_2_-i0" gradientUnits="userSpaceOnUse" x1="17.4976" y1="358.0521" x2="27.1086" y2="358.0521" gradientTransform="matrix(1 0 0 -1 0 382)">
	<stop offset="0" style="stop-color:#69B0F5"/>
	<stop offset="1" style="stop-color:#5BABF2"/>
</linearGradient>
<path fill="url(#SVGID_2_-i0)" d="M27.109,33.565c-5.308,0-9.611-4.306-9.611-9.617s4.303-9.617,9.611-9.617V33.565z"/>
<path fill="#FF4945" d="M27.109,36.171c-6.736,0-12.217-5.484-12.217-12.225s5.481-12.224,12.217-12.224v5.213  c-3.864,0-7.007,3.146-7.007,7.011c0,3.866,3.144,7.012,7.007,7.012V36.171z"/>
<linearGradient id="SVGID_3_-i0" gradientUnits="userSpaceOnUse" x1="42.2201" y1="351.2908" x2="51.8311" y2="351.2908" gradientTransform="matrix(1 0 0 -1 0 382)">
	<stop offset="0" style="stop-color:#69B0F5"/>
	<stop offset="1" style="stop-color:#5BABF2"/>
</linearGradient>
<path fill="url(#SVGID_3_-i0)" d="M51.831,40.326c-5.308,0-9.611-4.306-9.611-9.617s4.303-9.617,9.611-9.617V40.326z"/>
<path fill="#FF4945" d="M51.831,42.933c-6.736,0-12.216-5.483-12.216-12.224s5.48-12.225,12.216-12.225v5.213  c-3.864,0-7.006,3.146-7.006,7.012s3.144,7.011,7.006,7.011V42.933z"/>
<linearGradient id="SVGID_4_-i0" gradientUnits="userSpaceOnUse" x1="152.2213" y1="118.4916" x2="161.8323" y2="118.4916" gradientTransform="matrix(-1 0 0 1 188 -82)">
	<stop offset="0" style="stop-color:#69B0F5"/>
	<stop offset="1" style="stop-color:#5BABF2"/>
</linearGradient>
<path fill="url(#SVGID_4_-i0)" d="M26.168,26.874c5.308,0,9.611,4.306,9.611,9.617s-4.303,9.617-9.611,9.617V26.874z"/>
<path fill="#FF4945" d="M26.168,48.716v-5.213c3.864,0,7.006-3.146,7.006-7.012s-3.144-7.011-7.006-7.011v-5.213  c6.736,0,12.216,5.483,12.216,12.224S32.904,48.716,26.168,48.716z"/>
<g>
	<rect x="55.463" y="15.22" fill="#FF4945" width="5.21" height="32.783"/>
</g>
<g>
	<polygon fill="#FF4945" points="123.35,40.041 109.802,40.041 109.802,22.075 115.012,22.075 115.012,34.828 123.35,34.828  "/>
</g>
<g>
	<rect x="64.961" y="15.22" fill="#FF4945" width="5.21" height="14.933"/>
</g>
<g>
	<rect x="59.543" y="20.628" fill="#FF4945" width="6.484" height="5.213"/>
</g>
<g>
	<path fill="#FF4945" d="M75.316,49.955c-5.287,0-9.587-4.304-9.587-9.594s4.3-9.594,9.587-9.594s9.588,4.304,9.588,9.594   S80.603,49.955,75.316,49.955z M75.316,35.98c-2.413,0-4.377,1.965-4.377,4.381s1.964,4.381,4.377,4.381   c2.414,0,4.378-1.965,4.378-4.381S77.73,35.98,75.316,35.98z"/>
</g>
<g>
	
		<linearGradient id="SVGID_5_-i0" gradientUnits="userSpaceOnUse" x1="80.0379" y1="355.6239" x2="104.0925" y2="355.6239" gradientTransform="matrix(1 0 0 -1 0 382)">
		<stop offset="0" style="stop-color:#69B0F5"/>
		<stop offset="1" style="stop-color:#5BABF2"/>
	</linearGradient>
	<ellipse fill="url(#SVGID_5_-i0)" cx="92.065" cy="26.376" rx="12.027" ry="12.035"/>
	<path fill="#FF4945" d="M92.065,41.018c-8.068,0-14.631-6.567-14.631-14.64s6.563-14.641,14.631-14.641s14.631,6.568,14.631,14.641   S100.134,41.018,92.065,41.018z M92.065,16.948c-5.195,0-9.421,4.23-9.421,9.428s4.226,9.427,9.421,9.427   c5.194,0,9.421-4.23,9.421-9.427C101.487,21.178,97.26,16.948,92.065,16.948z"/>
</g>
<g>
	<g>
		<path fill="#008EFF" d="M23.06,375c-0.005,0-0.011,0-0.017,0c-0.288-0.009-0.514-0.249-0.504-0.538    c0.45-14.337,1.946-28.812,4.447-43.024c0.05-0.283,0.316-0.479,0.603-0.422c0.283,0.05,0.473,0.32,0.422,0.604    c-2.491,14.162-3.982,28.587-4.43,42.874C23.571,374.777,23.34,375,23.06,375z"/>
	</g>
	
		<ellipse transform="matrix(-0.1689 0.9856 -0.9856 -0.1689 358.0846 358.3475)" fill="#1B236D" cx="27.96" cy="330.145" rx="2.747" ry="7.342"/>
	<g>
		<path fill="#008EFF" d="M27.807,330.33c-0.031,0-0.063-0.003-0.094-0.008c-0.283-0.052-0.471-0.323-0.419-0.607    c1.455-8.002,3.253-16.047,5.344-23.912c0.075-0.278,0.365-0.442,0.638-0.369c0.278,0.074,0.444,0.36,0.37,0.638    c-2.085,7.838-3.877,15.855-5.328,23.83C28.272,330.154,28.053,330.33,27.807,330.33z"/>
	</g>
	
		<ellipse transform="matrix(-0.0722 0.9974 -0.9974 -0.0722 339.4208 292.5539)" fill="#1B236D" cx="33.633" cy="304.154" rx="3.31" ry="8.847"/>
	<g>
		<path fill="#008EFF" d="M33.701,304.386c-0.046,0-0.092-0.006-0.138-0.019c-0.278-0.076-0.441-0.363-0.366-0.64    c1.777-6.491,3.791-12.999,5.987-19.346c0.095-0.271,0.391-0.414,0.663-0.322c0.272,0.095,0.416,0.391,0.322,0.664    c-2.19,6.323-4.197,12.81-5.967,19.278C34.14,304.234,33.93,304.386,33.701,304.386z"/>
	</g>
	
		<ellipse transform="matrix(-0.375 0.927 -0.927 -0.375 318.386 350.7478)" fill="#1B236D" cx="40.957" cy="282.7" rx="3.31" ry="8.848"/>
	<g>
		<path fill="#008EFF" d="M40.601,282.443c-0.058,0-0.117-0.009-0.175-0.03c-0.271-0.097-0.413-0.395-0.316-0.666    c1.716-4.815,3.58-9.651,5.539-14.375c0.11-0.266,0.414-0.395,0.681-0.283c0.266,0.111,0.392,0.415,0.281,0.681    c-1.953,4.708-3.81,9.527-5.521,14.326C41.016,282.309,40.816,282.443,40.601,282.443z"/>
	</g>
	
		<ellipse transform="matrix(-0.375 0.927 -0.927 -0.375 310.6971 320.7697)" fill="#1B236D" cx="47.219" cy="265.119" rx="4.438" ry="11.862"/>
	<g>
		<path fill="#008EFF" d="M47.483,264.889c-0.069,0-0.139-0.014-0.205-0.042c-0.265-0.114-0.388-0.42-0.274-0.685    c1.343-3.135,2.758-6.287,4.204-9.368c0.123-0.26,0.433-0.371,0.693-0.249c0.26,0.122,0.372,0.433,0.25,0.693    c-1.442,3.069-2.852,6.211-4.19,9.336C47.877,264.77,47.685,264.889,47.483,264.889z"/>
	</g>
</g>

</g>
</g>

<!-- ITEM 1 -->
<g transform="translate(452.0 418.0) scale(2.42 2.4184782608695654) rotate(0.0 200.0 92.0)">
<g transform="translate(-0.0 -0.0)">

<path fill="#D6D7D8" d="M12.711,125.211l3.262-7.434c1.008,0.013,1.993,0.184,2.934,0.566l-3.528,8.037  c-0.198,0.451,0.007,0.977,0.459,1.174c0.451,0.197,0.978-0.007,1.176-0.459l3.462-7.887c0.861,0.617,1.586,1.405,2.164,2.32  l-2.921,6.655c-0.198,0.451,0.007,0.977,0.459,1.174c0.451,0.197,0.978-0.007,1.176-0.459l2.294-5.226  c0.953,2.855,0.8,6.388-0.686,9.776c-0.034,0.079-0.071,0.157-0.106,0.236c0.63,0.417,1.242,0.864,1.826,1.351  c1.639,1.367,3.719,3.641,4.324,6.72l-0.876,0.172c-0.555-2.823-2.493-4.934-4.02-6.208c-0.527-0.439-1.08-0.845-1.653-1.228  c-1.517,2.867-3.791,5.03-6.257,6.151l2.18-4.966c0.198-0.451-0.007-0.977-0.459-1.174c-0.451-0.197-0.978,0.007-1.176,0.459  l-2.809,6.4c-1.064,0.194-2.131,0.185-3.16-0.051l3.263-7.437c0.198-0.451-0.007-0.977-0.459-1.174  c-0.451-0.197-0.978,0.007-1.176,0.459l-3.309,7.538c-0.888-0.461-1.663-1.114-2.347-1.901l2.988-6.806  c0.198-0.451-0.007-0.977-0.459-1.174c-0.451-0.197-0.978,0.007-1.175,0.459l-2.568,5.85c-0.647-1.051-1.196-2.222-1.677-3.428  l1.611-3.672c0.198-0.451-0.007-0.977-0.459-1.174c-0.451-0.197-0.978,0.007-1.176,0.459l-0.858,1.956  c-1.147-3.45-1.908-6.724-2.975-7.868c1.944-0.285,4.791-1.95,7.918-3.394l-1.111,2.532c-0.198,0.451,0.007,0.977,0.459,1.174  c0.451,0.197,0.978-0.007,1.176-0.459l1.873-4.266c1.206-0.46,2.428-0.833,3.636-1.036l-2.876,6.553  c-0.198,0.451,0.007,0.977,0.459,1.173C11.986,125.867,12.512,125.662,12.711,125.211z"/>
<path fill="#FBB03B" d="M23.844,40.435v113.522h242.513V40.435H23.844z M75.454,100.017H37.58V62.178h37.874V100.017z   M121.66,100.017H83.786V62.178h37.874C121.66,62.178,121.66,100.017,121.66,100.017z M167.865,100.017h-37.874V62.178h37.874  V100.017z M214.072,100.017h-37.874V62.178h37.874V100.017z M260.279,100.017h-37.874V62.178h37.874V100.017z"/>
<rect x="299.22" y="40.435" fill="#FBB03B" width="8.957" height="113.522"/>
<g>
	<rect x="22.587" y="114.076" fill="#151A4F" width="241.447" height="1.836"/>
</g>
<g>
	<rect x="22.587" y="137.726" fill="#151A4F" width="241.447" height="1.836"/>
</g>
<rect x="127.927" y="109.213" fill="#FBB03B" width="87.19" height="33.635"/>
<path fill="#FFFFFF" d="M204.631,120.505l-0.021-0.008c0.005,0.007,0.011,0.013,0.016,0.021L204.631,120.505z"/>
<path fill="#FFFFFF" d="M196.489,137.632l-0.239,0.599c0.409,0.003,0.82-0.015,1.228-0.059l0.051-0.127L196.489,137.632z"/>
<rect x="193.409" y="136.658" transform="matrix(-0.929 -0.3701 0.3701 -0.929 323.4173 336.2899)" fill="#FFFFFF" width="1.119" height="0.925"/>
<rect x="190.531" y="135.513" transform="matrix(-0.929 -0.3701 0.3701 -0.929 318.289 333.0172)" fill="#FFFFFF" width="1.119" height="0.925"/>
<path fill="#FFFFFF" d="M187.919,134.219c0.117,0.145,0.225,0.294,0.351,0.432c0.14,0.157,0.292,0.297,0.439,0.442l0.193-0.483  L187.919,134.219z"/>
<path fill="#FFFFFF" d="M198.745,136.607l-0.343,0.859l0.89,0.354c0.066-0.018,0.131-0.036,0.196-0.057l0.297-0.742L198.745,136.607  z"/>
<rect x="195.661" y="135.634" transform="matrix(-0.929 -0.3701 0.3701 -0.929 328.1404 335.1483)" fill="#FFFFFF" width="1.119" height="0.925"/>
<rect x="192.777" y="134.495" transform="matrix(0.929 0.3701 -0.3701 0.929 63.6744 -61.9695)" fill="#FFFFFF" width="1.119" height="0.925"/>
<rect x="189.913" y="133.342" transform="matrix(0.929 0.37 -0.37 0.929 63.0263 -60.9799)" fill="#FFFFFF" width="1.119" height="0.925"/>
<path fill="#FFFFFF" d="M188.283,132.44l-1.04-0.414l-0.309,0.775c0.024,0.043,0.047,0.084,0.072,0.127l0.934,0.372L188.283,132.44z  "/>
<rect x="200.527" y="135.494" transform="matrix(-0.929 -0.37 0.37 -0.929 337.5968 336.667)" fill="#FFFFFF" width="1.119" height="0.925"/>
<rect x="197.65" y="134.349" transform="matrix(-0.929 -0.37 0.37 -0.929 332.4711 333.3936)" fill="#FFFFFF" width="1.119" height="0.925"/>
<rect x="194.79" y="133.194" transform="matrix(0.929 0.37 -0.37 0.929 63.3178 -62.7948)" fill="#FFFFFF" width="1.119" height="0.925"/>
<rect x="191.905" y="132.055" transform="matrix(0.929 0.3701 -0.3701 0.929 62.7097 -61.8202)" fill="#FFFFFF" width="1.119" height="0.925"/>
<rect x="189.029" y="130.91" transform="matrix(0.929 0.3701 -0.3701 0.929 62.0816 -60.8373)" fill="#FFFFFF" width="1.119" height="0.925"/>
<path fill="#FFFFFF" d="M203.002,134.289l-0.343,0.859l0.875,0.348c0.005-0.005,0.011-0.009,0.017-0.014  c0.104-0.094,0.196-0.197,0.297-0.294l0.194-0.485L203.002,134.289z"/>
<rect x="199.921" y="133.314" transform="matrix(0.929 0.37 -0.37 0.929 63.7262 -64.6848)" fill="#FFFFFF" width="1.119" height="0.925"/>
<rect x="197.048" y="132.167" transform="matrix(0.929 0.37 -0.37 0.929 63.0981 -63.703)" fill="#FFFFFF" width="1.119" height="0.925"/>
<rect x="194.172" y="131.023" transform="matrix(-0.929 -0.3701 0.3701 -0.929 326.9733 325.7025)" fill="#FFFFFF" width="1.119" height="0.925"/>
<rect x="191.282" y="129.888" transform="matrix(-0.929 -0.37 0.37 -0.929 321.838 322.4324)" fill="#FFFFFF" width="1.119" height="0.925"/>
<rect x="188.422" y="128.731" transform="matrix(0.929 0.37 -0.37 0.929 61.2145 -60.7555)" fill="#FFFFFF" width="1.119" height="0.925"/>
<path fill="#FFFFFF" d="M204.66,133.855l0.283,0.112c0.193-0.253,0.37-0.514,0.537-0.781l-0.477-0.189L204.66,133.855z"/>
<rect x="201.921" y="132.023" transform="matrix(-0.929 -0.3701 0.3701 -0.929 341.552 330.5003)" fill="#FFFFFF" width="1.119" height="0.925"/>
<rect x="199.039" y="130.882" transform="matrix(0.929 0.3701 -0.3701 0.929 62.7819 -64.5438)" fill="#FFFFFF" width="1.119" height="0.925"/>
<rect x="196.159" y="129.74" transform="matrix(-0.929 -0.37 0.37 -0.929 331.3003 323.9514)" fill="#FFFFFF" width="1.119" height="0.925"/>
<rect x="193.296" y="128.588" transform="matrix(-0.929 -0.3701 0.3701 -0.929 326.1848 320.6812)" fill="#FFFFFF" width="1.119" height="0.925"/>
<rect x="190.422" y="127.44" transform="matrix(-0.929 -0.3701 0.3701 -0.929 321.0671 317.4045)" fill="#FFFFFF" width="1.119" height="0.925"/>
<rect x="204.358" y="130.78" transform="matrix(-0.929 -0.37 0.37 -0.929 346.7309 328.9906)" fill="#FFFFFF" width="1.119" height="0.925"/>
<rect x="201.594" y="129.539" transform="matrix(-0.3706 0.9288 -0.9288 -0.3706 397.7719 -9.3553)" fill="#FFFFFF" width="0.925" height="1.119"/>
<rect x="198.711" y="128.383" transform="matrix(-0.3707 0.9288 -0.9288 -0.3707 392.7603 -8.2433)" fill="#FFFFFF" width="0.925" height="1.119"/>
<rect x="195.747" y="127.334" transform="matrix(-0.929 -0.3701 0.3701 -0.929 331.3779 319.1708)" fill="#FFFFFF" width="1.119" height="0.925"/>
<rect x="192.871" y="126.189" transform="matrix(-0.929 -0.3701 0.3701 -0.929 326.2538 315.8967)" fill="#FFFFFF" width="1.119" height="0.925"/>
<rect x="189.997" y="125.042" transform="matrix(0.929 0.37 -0.37 0.929 59.9613 -61.5998)" fill="#FFFFFF" width="1.119" height="0.925"/>
<path fill="#FFFFFF" d="M206.235,130.166l0.498,0.198c0.084-0.301,0.154-0.604,0.213-0.91l-0.368-0.146L206.235,130.166z"/>
<rect x="203.487" y="128.339" transform="matrix(0.929 0.3701 -0.3701 0.929 62.1567 -66.3706)" fill="#FFFFFF" width="1.119" height="0.925"/>
<rect x="200.607" y="127.198" transform="matrix(-0.929 -0.37 0.37 -0.929 340.821 320.6924)" fill="#FFFFFF" width="1.119" height="0.925"/>
<rect x="197.746" y="126.043" transform="matrix(-0.929 -0.3701 0.3701 -0.929 335.7109 317.4199)" fill="#FFFFFF" width="1.119" height="0.925"/>
<rect x="194.873" y="124.896" transform="matrix(-0.929 -0.3701 0.3701 -0.929 330.5936 314.1435)" fill="#FFFFFF" width="1.119" height="0.925"/>
<rect x="191.997" y="123.751" transform="matrix(-0.929 -0.3701 0.3701 -0.929 325.4706 310.8705)" fill="#FFFFFF" width="1.119" height="0.925"/>
<rect x="205.74" y="127.317" transform="matrix(-0.929 -0.37 0.37 -0.929 350.6783 322.8222)" fill="#FFFFFF" width="1.119" height="0.925"/>
<rect x="202.868" y="126.17" transform="matrix(-0.929 -0.37 0.37 -0.929 345.5621 319.547)" fill="#FFFFFF" width="1.119" height="0.925"/>
<rect x="200.003" y="125.017" transform="matrix(-0.929 -0.3701 0.3701 -0.929 340.4449 316.2749)" fill="#FFFFFF" width="1.119" height="0.925"/>
<rect x="197.129" y="123.87" transform="matrix(-0.929 -0.3701 0.3701 -0.929 335.3249 313)" fill="#FFFFFF" width="1.119" height="0.925"/>
<rect x="194.242" y="122.734" transform="matrix(-0.929 -0.37 0.37 -0.929 330.1935 309.7264)" fill="#FFFFFF" width="1.119" height="0.925"/>
<rect x="191.379" y="121.579" transform="matrix(0.929 0.37 -0.37 0.929 58.7779 -62.3572)" fill="#FFFFFF" width="1.119" height="0.925"/>
<rect x="204.878" y="124.871" transform="matrix(-0.929 -0.3701 0.3701 -0.929 349.9019 317.7975)" fill="#FFFFFF" width="1.119" height="0.925"/>
<rect x="201.989" y="123.734" transform="matrix(-0.929 -0.37 0.37 -0.929 344.7691 314.5226)" fill="#FFFFFF" width="1.119" height="0.925"/>
<rect x="199.127" y="122.58" transform="matrix(-0.929 -0.3701 0.3701 -0.929 339.657 311.2513)" fill="#FFFFFF" width="1.119" height="0.925"/>
<rect x="196.255" y="121.433" transform="matrix(-0.929 -0.3701 0.3701 -0.929 334.542 307.9741)" fill="#FFFFFF" width="1.119" height="0.925"/>
<rect x="193.379" y="120.288" transform="matrix(-0.929 -0.3701 0.3701 -0.929 329.4171 304.7017)" fill="#FFFFFF" width="1.119" height="0.925"/>
<rect x="204.248" y="122.707" transform="matrix(0.929 0.3701 -0.3701 0.929 60.1263 -67.0521)" fill="#FFFFFF" width="1.119" height="0.925"/>
<rect x="201.384" y="121.553" transform="matrix(-0.929 -0.3701 0.3701 -0.929 344.3915 310.1042)" fill="#FFFFFF" width="1.119" height="0.925"/>
<rect x="198.511" y="120.407" transform="matrix(-0.929 -0.3701 0.3701 -0.929 339.2735 306.8306)" fill="#FFFFFF" width="1.119" height="0.925"/>
<rect x="195.623" y="119.271" transform="matrix(0.929 0.3701 -0.3701 0.929 58.2423 -64.1038)" fill="#FFFFFF" width="1.119" height="0.925"/>
<rect x="192.75" y="118.123" transform="matrix(0.929 0.3701 -0.3701 0.929 57.6137 -63.1222)" fill="#FFFFFF" width="1.119" height="0.925"/>
<path fill="#FFFFFF" d="M203.25,120.948l1.04,0.414l0.339-0.847c-0.005-0.007-0.011-0.013-0.016-0.021l-1.018-0.406L203.25,120.948z  "/>
<rect x="200.513" y="119.113" transform="matrix(0.929 0.37 -0.37 0.929 58.5139 -65.9115)" fill="#FFFFFF" width="1.119" height="0.925"/>
<rect x="197.624" y="117.978" transform="matrix(0.929 0.3701 -0.3701 0.929 57.9059 -64.9362)" fill="#FFFFFF" width="1.119" height="0.925"/>
<path fill="#FFFFFF" d="M195.663,117.927l0.343-0.859l-0.92-0.367c-0.048,0.005-0.095,0.007-0.143,0.013l-0.318,0.799  L195.663,117.927z"/>
<path fill="#FFFFFF" d="M202.979,118.917c-0.103-0.08-0.204-0.163-0.309-0.239l-0.04,0.1L202.979,118.917z"/>
<path fill="#FFFFFF" d="M200.794,118.046l0.156-0.391c-0.338-0.16-0.685-0.3-1.036-0.422l-0.159,0.399L200.794,118.046z"/>
<path fill="#FFFFFF" d="M197.98,116.749c-0.201-0.03-0.402-0.046-0.604-0.065l0.543,0.217L197.98,116.749z"/>
<rect x="80.977" y="132.338" fill="#FBB03B" width="64.702" height="12.613"/>
<rect x="305.809" y="94.043" fill="#FBB03B" width="84.695" height="59.914"/>
<linearGradient id="SVGID_1_-i1" gradientUnits="userSpaceOnUse" x1="-4474.0273" y1="2732.7256" x2="-3989.3945" y2="2732.7256" gradientTransform="matrix(-0.1194 0 0 0.1194 -159.477 -171.8046)">
	<stop offset="0" style="stop-color:#23286B"/>
	<stop offset="1" style="stop-color:#151A4F"/>
</linearGradient>
<ellipse fill="url(#SVGID_1_-i1)" cx="345.789" cy="154.483" rx="28.933" ry="28.906"/>
<ellipse fill="#23286B" cx="345.789" cy="154.483" rx="19.907" ry="19.888"/>
<path fill="#D3E3FE" d="M331.636,19.183c-0.004,0.104-0.008,0.209-0.008,0.315c0,4.341,3.522,7.859,7.866,7.859  c4.345,0,7.866-3.518,7.866-7.859c0-0.105-0.004-0.21-0.008-0.315H331.636z"/>
<path fill="#A1C3FC" d="M359.921,0c-0.007,0.173-0.013,0.346-0.013,0.521c0,7.2,5.841,13.037,13.049,13.037  s13.049-5.836,13.049-13.037c0-0.175-0.006-0.348-0.013-0.521C385.991,0,359.921,0,359.921,0z"/>
<linearGradient id="SVGID_2_-i1" gradientUnits="userSpaceOnUse" x1="-4341.7461" y1="2732.7256" x2="-4116.2773" y2="2732.7256" gradientTransform="matrix(-0.1194 0 0 0.1194 -159.477 -171.8046)">
	<stop offset="0" style="stop-color:#E94A47"/>
	<stop offset="1" style="stop-color:#D62929"/>
</linearGradient>
<ellipse fill="url(#SVGID_2_-i1)" cx="345.467" cy="154.483" rx="13.46" ry="13.448"/>
<polygon fill="#FFFFFF" points="349.052,164.232 343.903,154.963 338.761,164.232 "/>
<polygon fill="#FFFFFF" points="335.505,161.25 341.613,152.581 331.021,151.997 "/>
<polygon fill="#FFFFFF" points="332.305,149.351 342.912,149.603 337.51,140.483 "/>
<polygon fill="#FFFFFF" points="341.516,139.899 345.322,149.796 351.705,141.332 "/>
<polygon fill="#FFFFFF" points="357.769,153.715 347.16,153.897 352.932,162.788 "/>
<polygon fill="#23286B" points="332.113,75.887 318.722,62.509 332.113,49.131 345.503,62.509 "/>
<polygon fill="#E94A47" points="390.107,140.135 380.661,130.698 390.107,121.261 399.552,130.698 "/>
<g>
	<polygon fill="#23286B" points="301.022,100.086 300.076,98.511 331.193,79.858 331.193,62.509 333.031,62.509 333.031,80.897  "/>
</g>
<g>
	<path fill="#428DFC" d="M18.703,155.27c-0.028,0-0.059-0.004-0.088-0.013c-6.436-1.938-11.915-6.461-15.032-12.41   c-0.078-0.149-0.021-0.334,0.13-0.413c0.15-0.077,0.335-0.019,0.413,0.13c3.041,5.804,8.386,10.217,14.665,12.107   c0.162,0.049,0.254,0.219,0.205,0.382C18.957,155.183,18.835,155.27,18.703,155.27z"/>
</g>
<g>
	<path fill="#428DFC" d="M309.844,28.966c-2.26-3.711-6.028-4.61-9.762-5.029c-4.837-0.543-9.746-0.67-14.594-0.382l-0.036-0.611   c4.882-0.292,9.827-0.162,14.7,0.385c3.703,0.415,7.814,1.372,10.217,5.319L309.844,28.966z"/>
</g>
<linearGradient id="SVGID_3_-i1" gradientUnits="userSpaceOnUse" x1="2938.8909" y1="1666.9722" x2="2933.4487" y2="1966.281" gradientTransform="matrix(0.1194 0 0 0.1194 -175.2394 -171.8046)">
	<stop offset="0" style="stop-color:#FBB03B"/>
	<stop offset="1" style="stop-color:#F7931E"/>
</linearGradient>
<rect x="35.418" y="33.077" fill="url(#SVGID_3_-i1)" width="279.86" height="23.125"/>
<linearGradient id="SVGID_4_-i1" gradientUnits="userSpaceOnUse" x1="3827.6599" y1="2046.8612" x2="3834.864" y2="2706.0471" gradientTransform="matrix(0.1194 0 0 0.1194 -175.2394 -171.8046)">
	<stop offset="0" style="stop-color:#FBB03B"/>
	<stop offset="1" style="stop-color:#F7931E"/>
</linearGradient>
<path fill="url(#SVGID_4_-i1)" d="M261.667,54.295v109.574h41.03V54.295H261.667z M280.998,153.621h-13.414v-43.357h13.414V153.621z   M280.998,105.535h-13.414V62.178h13.414V105.535z M297.963,153.621h-13.414v-43.357h13.414V153.621z M297.963,105.535h-13.414  V62.178h13.414V105.535z"/>
<polygon fill="#E94A47" points="316.134,39.035 309.45,32.357 316.134,25.68 322.818,32.357 "/>
<polygon fill="#E94A47" points="22.611,53.224 15.927,46.547 22.611,39.869 29.295,46.547 "/>
<linearGradient id="SVGID_5_-i1" gradientUnits="userSpaceOnUse" x1="-2526.6609" y1="2732.7256" x2="-2042.028" y2="2732.7256" gradientTransform="matrix(-0.1194 0 0 0.1194 -159.477 -171.8046)">
	<stop offset="0" style="stop-color:#23286B"/>
	<stop offset="1" style="stop-color:#151A4F"/>
</linearGradient>
<ellipse fill="url(#SVGID_5_-i1)" cx="113.274" cy="154.483" rx="28.933" ry="28.906"/>
<ellipse fill="#23286B" cx="113.274" cy="154.483" rx="19.907" ry="19.888"/>
<linearGradient id="SVGID_6_-i1" gradientUnits="userSpaceOnUse" x1="-2394.3794" y1="2732.7256" x2="-2168.9111" y2="2732.7256" gradientTransform="matrix(-0.1194 0 0 0.1194 -159.477 -171.8046)">
	<stop offset="0" style="stop-color:#E94A47"/>
	<stop offset="1" style="stop-color:#D62929"/>
</linearGradient>
<ellipse fill="url(#SVGID_6_-i1)" cx="112.951" cy="154.483" rx="13.46" ry="13.448"/>
<polygon fill="#FFFFFF" points="102.989,161.25 109.097,152.581 98.505,151.997 "/>
<polygon fill="#FFFFFF" points="99.789,149.351 110.397,149.603 104.994,140.483 "/>
<polygon fill="#FFFFFF" points="109,139.899 112.807,149.796 119.19,141.332 "/>
<polygon fill="#FFFFFF" points="125.254,153.715 114.644,153.897 120.417,162.788 "/>
<line fill="none" stroke="#78A9EF" stroke-linecap="round" stroke-miterlimit="10" x1="378.405" y1="184" x2="11.22" y2="184"/>
<g>
	<path fill="#428DFC" d="M92.352,179.748c-0.061,0-0.123-0.018-0.175-0.056c-4.677-3.287-10.163-5.253-15.864-5.688   c-0.168-0.013-0.295-0.16-0.282-0.329c0.013-0.168,0.156-0.294,0.329-0.283c5.811,0.443,11.402,2.448,16.169,5.798   c0.139,0.097,0.171,0.289,0.075,0.426C92.544,179.702,92.449,179.748,92.352,179.748z"/>
</g>
<g>
	<path fill="#428DFC" d="M72.592,177.739c-0.043,0-0.086-0.009-0.128-0.028c-7.073-3.262-15.27-4.452-19.07-2.767   c-1.012,0.449-1.653,1.081-1.902,1.879c-0.051,0.162-0.222,0.25-0.383,0.2c-0.161-0.051-0.251-0.222-0.201-0.384   c0.305-0.974,1.058-1.732,2.239-2.257c3.943-1.748,12.36-0.557,19.575,2.77c0.154,0.071,0.221,0.253,0.15,0.406   C72.818,177.673,72.708,177.739,72.592,177.739z"/>
</g>
<rect x="133.261" y="122.417" transform="matrix(0.2971 -0.9549 0.9549 0.2971 -23.7499 216.7939)" fill="#23286B" width="4.218" height="4.221"/>
<rect x="212.296" y="124.822" transform="matrix(0.9839 0.1788 -0.1788 0.9839 25.898 -36.0822)" fill="#A1C3FC" width="1.55" height="1.549"/>
<rect x="10.449" y="144.774" transform="matrix(0.9839 0.1788 -0.1788 0.9839 26.212 0.3394)" fill="#23286B" width="1.55" height="1.549"/>
<rect x="208.422" y="133.847" transform="matrix(0.9839 0.1788 -0.1788 0.9839 27.7098 -35.4612)" fill="#23286B" width="4.222" height="4.218"/>
<polygon fill="#A1C3FC" points="77.885,170.582 74.549,167.997 77.136,164.664 80.472,167.249 "/>
<g>
	<path fill="#428DFC" d="M217.654,133.243c-0.075,0-0.149-0.027-0.209-0.082c-3.284-3.058-8.633-3.578-12.446-1.212   c-0.142,0.089-0.331,0.046-0.422-0.098c-0.089-0.143-0.045-0.332,0.098-0.421c4.04-2.508,9.709-1.955,13.187,1.284   c0.124,0.115,0.131,0.309,0.015,0.432C217.818,133.209,217.736,133.243,217.654,133.243z"/>
</g>
<g>
	<path fill="#428DFC" d="M207.158,123.973c-0.04,0-0.081-0.008-0.12-0.024c-0.156-0.066-0.228-0.245-0.162-0.401   c1.858-4.373,6.814-7.184,11.522-6.538c0.167,0.022,0.285,0.177,0.261,0.344c-0.022,0.168-0.179,0.281-0.345,0.261   c-4.449-0.61-9.121,2.043-10.874,6.17C207.391,123.904,207.278,123.973,207.158,123.973z"/>
</g>
<g>
	<polyline fill="#FFFFFF" points="200.418,130.008 191.432,127.663 196.749,107.326  "/>
	<polygon fill="#E94A47" points="199.876,132.081 188.816,129.194 194.676,106.785 198.824,107.868 194.049,126.131    200.959,127.936  "/>
</g>
<polygon fill="#A1C3FC" points="185.526,125.733 168.38,134.896 158.629,116.685 175.775,107.522 "/>
<rect x="207.975" y="111.395" transform="matrix(-0.1689 0.9856 -0.9856 -0.1689 356.2689 -74.4829)" fill="#E94A47" width="3.121" height="3.123"/>
<g>
	
		<rect x="157.036" y="116.101" transform="matrix(0.013 0.9999 -0.9999 0.013 282.69 -49.9036)" fill="#151A4F" width="19.174" height="4.288"/>
</g>
<g>
	
		<rect x="163.873" y="116.099" transform="matrix(0.013 0.9999 -0.9999 0.013 289.436 -56.7407)" fill="#151A4F" width="19.174" height="4.288"/>
</g>
<g>
	<rect x="166.422" y="113.652" fill="#151A4F" width="6.839" height="4.284"/>
</g>
<rect x="183.658" y="114.045" transform="matrix(0.7066 0.7076 -0.7076 0.7066 135.2082 -96.6906)" fill="#428DFC" width="1.104" height="1.335"/>
<path fill="#428DFC" d="M157.402,102.442l-0.019,0.019c0.01-0.003,0.02-0.005,0.03-0.008L157.402,102.442z"/>
<path fill="#428DFC" d="M148.604,111.212l0.055,0.055c0.016-0.055,0.036-0.107,0.054-0.162L148.604,111.212z"/>
<path fill="#428DFC" d="M172.354,119.465l0.545,0.546c0.198-0.448,0.371-0.905,0.517-1.373l-0.116-0.115L172.354,119.465z"/>
<rect x="170.055" y="121.324" transform="matrix(-0.7066 -0.7076 0.7076 -0.7066 204.8454 328.9133)" fill="#428DFC" width="1.104" height="1.335"/>
<rect x="167.433" y="123.935" transform="matrix(-0.7066 -0.7076 0.7076 -0.7066 198.5237 331.5133)" fill="#428DFC" width="1.104" height="1.335"/>
<path fill="#428DFC" d="M165.888,126.789l-0.439-0.44l-0.894,0.892c0.214-0.06,0.429-0.108,0.641-0.179  C165.433,126.982,165.657,126.881,165.888,126.789z"/>
<path fill="#428DFC" d="M172.295,116.508l0.78,0.782l0.81-0.807c0.01-0.08,0.021-0.16,0.03-0.241l-0.675-0.675L172.295,116.508z"/>
<rect x="169.996" y="118.367" transform="matrix(-0.7066 -0.7076 0.7076 -0.7066 206.8374 323.825)" fill="#428DFC" width="1.104" height="1.336"/>
<rect x="167.371" y="120.977" transform="matrix(0.7066 0.7076 -0.7076 0.7066 135.336 -83.1321)" fill="#428DFC" width="1.104" height="1.336"/>
<rect x="164.641" y="123.707" transform="matrix(0.7082 -0.706 0.706 0.7082 -39.4932 152.9582)" fill="#428DFC" width="1.335" height="1.104"/>
<path fill="#428DFC" d="M162.773,126.001l-0.946,0.943l0.703,0.705c0.058-0.007,0.115-0.011,0.172-0.019l0.85-0.847L162.773,126.001  z"/>
<rect x="172.122" y="112.958" transform="matrix(0.7066 0.7076 -0.7076 0.7066 131.0555 -88.8466)" fill="#428DFC" width="1.104" height="1.335"/>
<rect x="169.528" y="115.562" transform="matrix(-0.7066 -0.7076 0.7076 -0.7066 208.0238 318.7072)" fill="#428DFC" width="1.104" height="1.336"/>
<rect x="166.907" y="118.173" transform="matrix(-0.7066 -0.7076 0.7076 -0.7066 201.7025 321.3072)" fill="#428DFC" width="1.104" height="1.335"/>
<rect x="164.281" y="120.783" transform="matrix(0.7066 0.7076 -0.7076 0.7066 134.2917 -81.003)" fill="#428DFC" width="1.104" height="1.335"/>
<rect x="161.677" y="123.39" transform="matrix(-0.7066 -0.7076 0.7076 -0.7066 189.0863 326.5114)" fill="#428DFC" width="1.104" height="1.335"/>
<path fill="#428DFC" d="M171.764,110.747l0.78,0.782l0.797-0.794c-0.003-0.008-0.004-0.017-0.007-0.025  c-0.054-0.159-0.123-0.308-0.182-0.464l-0.441-0.441L171.764,110.747z"/>
<rect x="169.465" y="112.606" transform="matrix(-0.7066 -0.7076 0.7076 -0.7066 210.0074 313.6171)" fill="#428DFC" width="1.104" height="1.335"/>
<rect x="166.848" y="115.215" transform="matrix(-0.7066 -0.7076 0.7076 -0.7066 203.6945 316.2188)" fill="#428DFC" width="1.104" height="1.336"/>
<rect x="164.217" y="117.827" transform="matrix(0.7066 0.7076 -0.7076 0.7066 132.1815 -81.825)" fill="#428DFC" width="1.104" height="1.336"/>
<rect x="161.601" y="120.436" transform="matrix(0.7066 0.7076 -0.7076 0.7066 133.2596 -79.2084)" fill="#428DFC" width="1.104" height="1.335"/>
<rect x="158.996" y="123.043" transform="matrix(-0.7066 -0.7076 0.7076 -0.7066 184.7561 324.021)" fill="#428DFC" width="1.104" height="1.335"/>
<path fill="#428DFC" d="M172.072,108.724l0.256-0.256c-0.186-0.331-0.39-0.649-0.603-0.959l-0.435,0.432L172.072,108.724z"/>
<rect x="168.987" y="109.804" transform="matrix(-0.7066 -0.7076 0.7076 -0.7066 211.1753 308.4962)" fill="#428DFC" width="1.104" height="1.335"/>
<rect x="166.375" y="112.411" transform="matrix(-0.7066 -0.7076 0.7076 -0.7066 204.8717 311.0977)" fill="#428DFC" width="1.104" height="1.336"/>
<rect x="163.745" y="115.023" transform="matrix(0.7066 0.7076 -0.7076 0.7066 130.0586 -82.3137)" fill="#428DFC" width="1.104" height="1.335"/>
<rect x="161.123" y="117.633" transform="matrix(0.7066 0.7076 -0.7076 0.7066 131.1363 -79.6926)" fill="#428DFC" width="1.104" height="1.335"/>
<rect x="158.511" y="120.24" transform="matrix(0.7066 0.7076 -0.7076 0.7066 132.2144 -77.0792)" fill="#428DFC" width="1.104" height="1.335"/>
<rect x="168.764" y="106.53" transform="matrix(0.7066 0.7076 -0.7076 0.7066 125.5219 -88.3565)" fill="#428DFC" width="1.104" height="1.335"/>
<rect x="166.16" y="109.136" transform="matrix(-0.7066 -0.7076 0.7076 -0.7066 206.8217 305.3569)" fill="#428DFC" width="1.104" height="1.335"/>
<rect x="163.535" y="111.746" transform="matrix(0.7066 0.7076 -0.7076 0.7066 127.6789 -83.1256)" fill="#428DFC" width="1.104" height="1.336"/>
<rect x="160.913" y="114.356" transform="matrix(0.7066 0.7076 -0.7076 0.7066 128.7558 -80.5052)" fill="#428DFC" width="1.104" height="1.335"/>
<rect x="158.295" y="116.965" transform="matrix(0.7066 0.7076 -0.7076 0.7066 129.8343 -77.8876)" fill="#428DFC" width="1.104" height="1.335"/>
<rect x="155.695" y="119.572" transform="matrix(-0.7066 -0.7076 0.7076 -0.7066 181.5793 315.7616)" fill="#428DFC" width="1.104" height="1.335"/>
<path fill="#428DFC" d="M168.767,105.254l0.453-0.452c-0.29-0.235-0.591-0.455-0.899-0.663l-0.334,0.333L168.767,105.254z"/>
<rect x="165.687" y="106.331" transform="matrix(-0.7066 -0.7076 0.7076 -0.7066 207.9989 300.2347)" fill="#428DFC" width="1.104" height="1.335"/>
<rect x="163.07" y="108.94" transform="matrix(-0.7066 -0.7076 0.7076 -0.7066 201.6877 302.8358)" fill="#428DFC" width="1.104" height="1.336"/>
<rect x="160.448" y="111.55" transform="matrix(-0.7066 -0.7076 0.7076 -0.7066 195.3657 305.4337)" fill="#428DFC" width="1.104" height="1.335"/>
<rect x="157.828" y="114.16" transform="matrix(0.7066 0.7076 -0.7076 0.7066 127.7126 -78.3798)" fill="#428DFC" width="1.104" height="1.336"/>
<rect x="155.206" y="116.77" transform="matrix(0.7066 0.7076 -0.7076 0.7066 128.7898 -75.7586)" fill="#428DFC" width="1.104" height="1.335"/>
<rect x="165.616" y="103.378" transform="matrix(0.7066 0.7076 -0.7076 0.7066 122.3682 -87.0533)" fill="#428DFC" width="1.104" height="1.335"/>
<rect x="163.012" y="105.983" transform="matrix(-0.7066 -0.7076 0.7076 -0.7066 203.6798 297.7484)" fill="#428DFC" width="1.104" height="1.335"/>
<rect x="160.393" y="108.592" transform="matrix(-0.7066 -0.7076 0.7076 -0.7066 197.3654 300.3484)" fill="#428DFC" width="1.104" height="1.336"/>
<rect x="157.764" y="111.204" transform="matrix(0.7066 0.7076 -0.7076 0.7066 125.6022 -79.2018)" fill="#428DFC" width="1.104" height="1.335"/>
<rect x="155.148" y="113.813" transform="matrix(0.7066 0.7076 -0.7076 0.7066 126.6802 -76.5851)" fill="#428DFC" width="1.104" height="1.335"/>
<rect x="152.542" y="116.42" transform="matrix(-0.7066 -0.7076 0.7076 -0.7066 178.4277 308.1523)" fill="#428DFC" width="1.104" height="1.335"/>
<rect x="162.526" y="103.182" transform="matrix(0.7066 0.7076 -0.7076 0.7066 121.3225 -84.9248)" fill="#428DFC" width="1.104" height="1.335"/>
<rect x="159.922" y="105.787" transform="matrix(-0.7066 -0.7076 0.7076 -0.7066 198.545 295.2273)" fill="#428DFC" width="1.104" height="1.336"/>
<rect x="157.305" y="108.397" transform="matrix(-0.7066 -0.7076 0.7076 -0.7066 192.232 297.8299)" fill="#428DFC" width="1.104" height="1.335"/>
<rect x="154.674" y="111.009" transform="matrix(0.7066 0.7076 -0.7076 0.7066 124.5575 -77.0727)" fill="#428DFC" width="1.104" height="1.336"/>
<rect x="152.058" y="113.618" transform="matrix(0.7066 0.7076 -0.7076 0.7066 125.6357 -74.4562)" fill="#428DFC" width="1.104" height="1.335"/>
<rect x="159.85" y="102.834" transform="matrix(0.7066 0.7076 -0.7076 0.7066 120.2915 -83.1336)" fill="#428DFC" width="1.104" height="1.335"/>
<rect x="157.233" y="105.442" transform="matrix(0.7066 0.7076 -0.7076 0.7066 121.3696 -80.5162)" fill="#428DFC" width="1.104" height="1.336"/>
<rect x="154.616" y="108.052" transform="matrix(0.7066 0.7076 -0.7076 0.7066 122.448 -77.8993)" fill="#428DFC" width="1.104" height="1.335"/>
<rect x="152.004" y="110.659" transform="matrix(0.7066 0.7076 -0.7076 0.7066 123.5266 -75.2858)" fill="#428DFC" width="1.104" height="1.335"/>
<rect x="149.389" y="113.268" transform="matrix(-0.7066 -0.7076 0.7076 -0.7066 175.2765 300.5409)" fill="#428DFC" width="1.104" height="1.335"/>
<path fill="#428DFC" d="M157.237,104.167l0.946-0.943l-0.77-0.771c-0.01,0.003-0.02,0.005-0.03,0.008l-0.927,0.923L157.237,104.167z  "/>
<rect x="154.139" y="105.248" transform="matrix(0.7066 0.7076 -0.7076 0.7066 120.3242 -78.3838)" fill="#428DFC" width="1.104" height="1.335"/>
<rect x="151.526" y="107.856" transform="matrix(0.7066 0.7076 -0.7076 0.7066 121.4034 -75.7703)" fill="#428DFC" width="1.104" height="1.336"/>
<path fill="#428DFC" d="M150.331,111.051l-0.78-0.782l-0.838,0.835c-0.016,0.055-0.038,0.107-0.054,0.162l0.726,0.727  L150.331,111.051z"/>
<path fill="#428DFC" d="M154.877,103.503c-0.137,0.075-0.275,0.146-0.408,0.225l0.091,0.091L154.877,103.503z"/>
<path fill="#428DFC" d="M152.889,105.485l-0.356-0.355c-0.335,0.296-0.653,0.609-0.954,0.936l0.363,0.362L152.889,105.485z"/>
<path fill="#428DFC" d="M150.134,107.956c-0.129,0.205-0.24,0.419-0.357,0.631l0.495-0.493L150.134,107.956z"/>
<polygon fill="#23286B" points="165.476,131.019 145.246,133.893 142.187,112.406 162.417,109.531 "/>
<g>
	<path fill="#FFFFFF" d="M146.898,120.301c-2.557,0-4.63-2.072-4.63-4.627c0-2.555,2.073-4.626,4.63-4.626"/>
	<path fill="#E94A47" d="M146.898,122.137c-3.567,0-6.469-2.899-6.469-6.463c0-3.564,2.901-6.463,6.469-6.463v3.672   c-1.54,0-2.794,1.252-2.794,2.791c0,1.539,1.254,2.791,2.794,2.791V122.137z"/>
</g>
<g>
	<path fill="#FFFFFF" d="M146.891,130.24c3.268,0,5.917-2.647,5.917-5.912s-2.649-5.912-5.917-5.912"/>
	<path fill="#E94A47" d="M146.891,132.075v-3.672c2.25,0,4.08-1.828,4.08-4.076c0-2.249-1.83-4.076-4.08-4.076v-3.672   c4.277,0,7.756,3.476,7.756,7.748S151.167,132.075,146.891,132.075z"/>
</g>
<g>
	<path fill="#FFFFFF" d="M162.181,125.417c-3.174,0-5.746-2.571-5.746-5.741s2.573-5.741,5.746-5.741"/>
	<path fill="#E94A47" d="M162.181,127.253c-4.181,0-7.584-3.399-7.584-7.576s3.402-7.576,7.584-7.576v3.672   c-2.155,0-3.908,1.752-3.908,3.904c0,2.154,1.753,3.905,3.908,3.905V127.253z"/>
</g>
<g>
	<circle fill="#FFFFFF" cx="182.127" cy="118.909" r="5.213"/>
	<path fill="#151A4F" d="M182.127,126.265c-4.06,0-7.363-3.3-7.363-7.356s3.303-7.356,7.363-7.356c4.06,0,7.363,3.3,7.363,7.356   S186.186,126.265,182.127,126.265z M182.127,115.837c-1.695,0-3.075,1.378-3.075,3.072s1.379,3.072,3.075,3.072   c1.695,0,3.075-1.378,3.075-3.072S183.822,115.837,182.127,115.837z"/>
</g>
<g>
	<circle fill="#23286B" cx="188.233" cy="124.122" r="4.326"/>
	<path fill="#428DFC" d="M188.233,130.591c-3.57,0-6.474-2.902-6.474-6.468c0-3.567,2.904-6.468,6.474-6.468   c3.569,0,6.474,2.902,6.474,6.468C194.708,127.689,191.804,130.591,188.233,130.591z M188.233,121.938   c-1.206,0-2.186,0.98-2.186,2.184s0.981,2.184,2.186,2.184c1.205,0,2.186-0.98,2.186-2.184   C190.421,122.918,189.439,121.938,188.233,121.938z"/>
</g>
<circle fill="#D9E021" cx="145.649" cy="107.028" r="1.509"/>
<rect x="138.133" y="101.788" transform="matrix(-0.4393 -0.8983 0.8983 -0.4393 108.519 275.528)" fill="#1D72D8" width="4.219" height="4.221"/>
<rect x="81.712" y="174.977" transform="matrix(-0.4393 -0.8983 0.8983 -0.4393 -38.4354 330.1857)" fill="#1D72D8" width="4.219" height="4.221"/>
<g>
	<path fill="#428DFC" d="M136.377,116.977c-0.146,0-0.276-0.104-0.301-0.253c-0.467-2.677-2.762-5.053-5.844-6.053   c-3.086-1-6.397-0.618-8.936-0.172c-0.168,0.033-0.325-0.082-0.355-0.248c-0.028-0.166,0.082-0.324,0.248-0.353   c2.61-0.459,6.019-0.85,9.231,0.192c3.296,1.069,5.753,3.632,6.259,6.53c0.028,0.166-0.083,0.325-0.249,0.353   C136.412,116.976,136.394,116.977,136.377,116.977z"/>
</g>
<g opacity="0.47">
	<path fill="#FFFFFF" d="M95.586,132.584h-9.422c0.547-0.172,1.095-0.316,1.671-0.403h6.051   C94.462,132.295,95.011,132.439,95.586,132.584z M97.719,133.418H84.032c-0.288,0.115-0.547,0.259-0.807,0.403h15.27   C98.266,133.677,97.978,133.533,97.719,133.418z M99.707,134.656H81.871c-0.202,0.144-0.374,0.259-0.577,0.403h18.844   C99.995,134.915,99.851,134.771,99.707,134.656z M100.772,135.865H80.286c-0.144,0.144-0.316,0.259-0.461,0.403h21.149   C100.917,136.153,100.859,136.009,100.772,135.865z M101.349,137.103h-22.33c-0.116,0.144-0.23,0.259-0.374,0.403h22.82   C101.435,137.362,101.378,137.247,101.349,137.103z M101.666,138.341H77.982c-0.116,0.144-0.202,0.259-0.288,0.403h24.03   C101.695,138.599,101.666,138.455,101.666,138.341z M101.81,139.55H77.147c-0.086,0.144-0.172,0.259-0.23,0.403h24.953   C101.839,139.837,101.839,139.693,101.81,139.55z M101.868,140.787H76.455c-0.058,0.144-0.144,0.259-0.202,0.403h25.616   C101.868,141.047,101.868,140.932,101.868,140.787z M101.637,142.169c0.028-0.058,0.028-0.086,0.058-0.144H75.907   c-0.058,0.144-0.116,0.259-0.144,0.403h25.702C101.522,142.342,101.58,142.255,101.637,142.169z M99.965,143.378   c0.086-0.058,0.172-0.086,0.259-0.115H75.503c-0.028,0.144-0.058,0.259-0.116,0.403h24.087   C99.621,143.551,99.793,143.465,99.965,143.378z M98.381,144.472H75.215c-0.028,0.144-0.058,0.259-0.058,0.403h22.82   C98.093,144.731,98.237,144.587,98.381,144.472z M97.257,145.681H75.015c0,0.144-0.028,0.259-0.028,0.403h21.984   C97.056,145.969,97.143,145.825,97.257,145.681z M96.48,146.919H74.957c0,0.144,0,0.259,0,0.403h21.322   C96.336,147.207,96.422,147.063,96.48,146.919z M95.961,148.157H75.015c0,0.144,0.028,0.259,0.058,0.403h20.774   C95.874,148.416,95.932,148.272,95.961,148.157z M95.644,149.366H75.215c0.028,0.144,0.058,0.288,0.086,0.403h20.285   C95.616,149.653,95.644,149.509,95.644,149.366z M95.529,150.603H75.562c0.058,0.144,0.086,0.288,0.144,0.403h19.824   C95.529,150.892,95.529,150.747,95.529,150.603z M76.311,152.244h19.362c-0.028-0.144-0.058-0.259-0.058-0.403H76.108   C76.166,151.957,76.253,152.1,76.311,152.244z M77.117,153.453h18.873c-0.028-0.144-0.086-0.259-0.116-0.403H76.83   C76.916,153.195,77.002,153.339,77.117,153.453z M78.212,154.691h17.979c0-0.144,0-0.259-0.028-0.403H77.78   C77.953,154.432,78.097,154.576,78.212,154.691z M79.739,155.843c0.058,0.028,0.086,0.058,0.144,0.086h15.933   c0.086-0.115,0.172-0.259,0.23-0.403H79.25C79.423,155.613,79.567,155.757,79.739,155.843z M83.37,157.139h10.286   c0.403-0.086,0.778-0.23,1.153-0.403H81.785C82.303,156.908,82.822,157.052,83.37,157.139z"/>
</g>
<g opacity="0.47">
	<path fill="#428DFC" d="M387.484,117.997h5.717c-0.332,0.104-0.664,0.192-1.013,0.245h-3.671   C388.165,118.172,387.834,118.084,387.484,117.997z M386.191,117.49h8.303c0.174-0.07,0.332-0.157,0.49-0.245h-9.265   C385.857,117.333,386.033,117.421,386.191,117.49z M384.984,116.739h10.82c0.123-0.087,0.227-0.157,0.35-0.245h-11.433   C384.81,116.582,384.897,116.669,384.984,116.739z M384.337,116.006h12.429c0.087-0.087,0.193-0.157,0.28-0.245h-12.83   C384.25,115.831,384.285,115.919,384.337,116.006z M383.988,115.255h13.548c0.07-0.087,0.14-0.157,0.227-0.245h-13.845   C383.935,115.098,383.97,115.168,383.988,115.255z M383.795,114.504h14.37c0.07-0.087,0.123-0.157,0.174-0.245h-14.578   C383.778,114.347,383.795,114.434,383.795,114.504z M383.708,113.771h14.963c0.053-0.087,0.104-0.157,0.14-0.245h-15.139   C383.691,113.595,383.691,113.684,383.708,113.771z M383.673,113.019h15.418c0.034-0.087,0.087-0.157,0.123-0.245h-15.541   C383.673,112.862,383.673,112.932,383.673,113.019z M383.812,112.181c-0.018,0.034-0.018,0.053-0.034,0.087h15.645   c0.034-0.087,0.07-0.157,0.087-0.245h-15.593C383.883,112.077,383.848,112.128,383.812,112.181z M384.827,111.448   c-0.053,0.034-0.104,0.053-0.157,0.07h14.998c0.018-0.087,0.034-0.157,0.07-0.245h-14.614   C385.037,111.343,384.932,111.395,384.827,111.448z M385.789,110.784h14.054c0.018-0.087,0.034-0.157,0.034-0.245h-13.845   C385.963,110.627,385.876,110.715,385.789,110.784z M386.47,110.051h13.495c0-0.087,0.018-0.157,0.018-0.245h-13.338   C386.592,109.876,386.54,109.964,386.47,110.051z M386.942,109.299H400c0-0.087,0-0.157,0-0.245h-12.935   C387.029,109.125,386.977,109.212,386.942,109.299z M387.256,108.548h12.708c0-0.087-0.018-0.157-0.034-0.245h-12.603   C387.309,108.391,387.274,108.479,387.256,108.548z M387.449,107.815h12.393c-0.018-0.087-0.034-0.174-0.053-0.245h-12.306   C387.467,107.641,387.449,107.728,387.449,107.815z M387.519,107.064h12.114c-0.034-0.087-0.053-0.174-0.087-0.245h-12.026   C387.519,106.89,387.519,106.977,387.519,107.064z M399.178,106.069h-11.747c0.018,0.087,0.034,0.157,0.034,0.245h11.835   C399.265,106.244,399.214,106.157,399.178,106.069z M398.689,105.336h-11.45c0.018,0.087,0.053,0.157,0.07,0.245h11.554   C398.811,105.492,398.759,105.405,398.689,105.336z M398.025,104.584h-10.908c0,0.087,0,0.157,0.018,0.245h11.153   C398.182,104.741,398.095,104.654,398.025,104.584z M397.099,103.886c-0.034-0.018-0.053-0.034-0.087-0.053h-9.667   c-0.053,0.07-0.104,0.157-0.14,0.245h10.191C397.291,104.025,397.203,103.938,397.099,103.886z M394.895,103.1h-6.241   c-0.245,0.053-0.472,0.14-0.699,0.245h7.902C395.543,103.24,395.228,103.153,394.895,103.1z"/>
</g>
<path id="texture_4_-i1" fill="#E94A47" d="M51.845,127.921c0.08,0.297,0.322,0.487,0.62,0.407l0,0c0.297-0.08,0.487-0.323,0.407-0.62  l0,0c-0.08-0.297-0.322-0.487-0.62-0.407l0,0C51.955,127.383,51.765,127.624,51.845,127.921L51.845,127.921z M71.677,175.476  c-0.19,0.242-0.109,0.54,0.133,0.729c0.242,0.189,0.54,0.109,0.73-0.133l0,0c0.19-0.242,0.109-0.54-0.133-0.729  C72.191,175.018,71.866,175.233,71.677,175.476L71.677,175.476L71.677,175.476z M78.465,164.219c-0.19,0.242-0.109,0.54,0.133,0.729  s0.54,0.109,0.73-0.133l0,0c0.19-0.242,0.109-0.54-0.133-0.729l0,0C79.088,163.923,78.655,163.976,78.465,164.219L78.465,164.219z   M55.412,152.515c0.242,0.189,0.512,0.245,0.81,0.165c0.19-0.242,0.245-0.511,0.165-0.809c-0.242-0.189-0.512-0.245-0.675-0.137  C55.251,151.92,55.197,152.191,55.412,152.515z M66.132,144.724c0.242,0.189,0.512,0.245,0.81,0.165  c0.19-0.242,0.245-0.511,0.165-0.809c-0.242-0.189-0.512-0.245-0.675-0.137C65.973,144.13,65.89,144.534,66.132,144.724  L66.132,144.724z M97.999,178.718c-0.055,0.27,0.16,0.594,0.43,0.649c0.271,0.055,0.595-0.16,0.65-0.429l0,0  c0.055-0.27-0.16-0.594-0.43-0.649l0,0C98.378,178.234,98.053,178.449,97.999,178.718z M100.094,165.666  c-0.055,0.27,0.16,0.594,0.43,0.649c0.271,0.055,0.595-0.16,0.65-0.429c0.055-0.27-0.16-0.594-0.43-0.649l0,0  C100.474,165.181,100.149,165.395,100.094,165.666L100.094,165.666L100.094,165.666z M48.154,141.914  c0.107,0.162,0.485,0.38,0.675,0.137c0.162-0.107,0.38-0.485,0.137-0.674c-0.107-0.162-0.485-0.38-0.675-0.137l0,0  C47.993,141.319,47.94,141.59,48.154,141.914L48.154,141.914z M58.248,135.822c0.107,0.162,0.485,0.38,0.675,0.137  c0.162-0.107,0.353-0.349,0.137-0.674c-0.107-0.162-0.35-0.352-0.675-0.137l0,0C58.196,135.389,58.14,135.66,58.248,135.822  L58.248,135.822L58.248,135.822z M87.598,171.129c-0.055,0.27,0.025,0.567,0.295,0.622c0.271,0.055,0.433-0.053,0.622-0.295l0,0  c0.055-0.27-0.025-0.567-0.295-0.622l0,0C87.951,170.779,87.653,170.859,87.598,171.129L87.598,171.129z M90.471,159.779  c-0.055,0.27,0.025,0.567,0.295,0.622c0.271,0.055,0.433-0.053,0.622-0.295l0,0c0.055-0.27-0.025-0.567-0.295-0.622l0,0  C90.823,159.43,90.526,159.509,90.471,159.779L90.471,159.779z M67.72,154.875c-0.19,0.242-0.109,0.54,0.133,0.729  s0.54,0.109,0.73-0.133c0.19-0.242,0.109-0.54-0.133-0.729C68.206,154.553,67.909,154.633,67.72,154.875L67.72,154.875z   M42.15,152.768c-0.19,0.242-0.109,0.54,0.133,0.729s0.54,0.109,0.73-0.133c0.19-0.242,0.109-0.54-0.133-0.729  C42.637,152.446,42.34,152.527,42.15,152.768L42.15,152.768z M50.26,141.921c-0.19,0.242-0.109,0.54,0.133,0.729  c0.242,0.189,0.54,0.109,0.73-0.133c0.19-0.242,0.109-0.54-0.133-0.729C50.748,141.599,50.451,141.678,50.26,141.921L50.26,141.921z   M58.263,130.91c-0.19,0.242-0.109,0.54,0.133,0.729c0.242,0.189,0.54,0.109,0.73-0.133c0.19-0.242,0.109-0.54-0.133-0.729  C58.724,130.723,58.427,130.804,58.263,130.91z M97.443,166.952c0.08,0.297,0.322,0.487,0.62,0.407  c0.297-0.08,0.487-0.323,0.407-0.62s-0.322-0.487-0.62-0.407C97.58,166.277,97.363,166.654,97.443,166.952L97.443,166.952z   M51.001,113.429c-0.324,0.215-0.38,0.485-0.165,0.809 M69.003,158.927c-0.055,0.27,0.16,0.594,0.43,0.649  c0.271,0.055,0.595-0.16,0.65-0.429c0.055-0.27-0.16-0.594-0.43-0.649l0,0C69.382,158.443,69.058,158.657,69.003,158.927  L69.003,158.927L69.003,158.927z M59.712,159.004c-0.055,0.27,0.16,0.594,0.43,0.649c0.271,0.055,0.595-0.16,0.65-0.429  c0.055-0.27-0.025-0.567-0.43-0.649C60.092,158.52,59.766,158.734,59.712,159.004L59.712,159.004z M63.481,146.011  c-0.055,0.27,0.16,0.594,0.43,0.649c0.271,0.055,0.568-0.025,0.65-0.429c0.055-0.27-0.16-0.594-0.402-0.784  C63.861,145.526,63.536,145.741,63.481,146.011L63.481,146.011z M46.738,128.85c-0.19,0.242-0.109,0.54,0.133,0.729l0,0  c0.242,0.189,0.54,0.109,0.864-0.105c0.19-0.242,0.109-0.54-0.105-0.864C47.225,128.528,46.928,128.608,46.738,128.85L46.738,128.85  z M52.063,127.545c-0.055,0.27,0.053,0.432,0.16,0.594c0.271,0.055,0.433-0.053,0.595-0.16c0.055-0.27-0.053-0.432-0.16-0.594l0,0  C52.388,127.33,52.091,127.41,52.063,127.545L52.063,127.545L52.063,127.545z"/>

</g>
</g>

<!-- ITEM 2 -->
<g transform="translate(278.0 384.0) scale(2.3872340425531915 2.3895131086142323) rotate(0.0 117.5 133.5)">
<g transform="translate(-0.0 -0.0)">

<g id="books-i2">
	
		<linearGradient id="_3_1_-i2" gradientUnits="userSpaceOnUse" x1="635.7561" y1="4626.0767" x2="12260.9912" y2="4626.0767" gradientTransform="matrix(0.0178 0 0 0.0178 0 13.0844)">
		<stop offset="0" style="stop-color:#23286B"/>
		<stop offset="1" style="stop-color:#151A4F"/>
	</linearGradient>
	<path id="_3-i2" fill="url(#_3_1_-i2)" d="M217.973,95.399c0,10.551-8.513,19.05-19.082,19.05c-0.147,0-0.147,0-0.294,0l0,0H11.302   v-7.767h187.883l0,0c6.312-0.293,11.155-5.569,10.862-11.723c-0.294-6.008-5.284-10.844-11.302-10.844c-0.147,0-0.294,0-0.44,0   H11.302v-7.913h187.442l0,0h0.147C209.46,76.349,217.973,84.848,217.973,95.399z"/>
	
		<linearGradient id="_7_1_-i2" gradientUnits="userSpaceOnUse" x1="12603.6172" y1="13412.5215" x2="-1115.4821" y2="12971.1621" gradientTransform="matrix(0.0178 0 0 0.0178 0 13.0844)">
		<stop offset="0" style="stop-color:#23286B"/>
		<stop offset="1" style="stop-color:#151A4F"/>
	</linearGradient>
	<path id="_7-i2" fill="url(#_7_1_-i2)" d="M7.926,247.95c0,6.008,4.844,10.991,10.862,11.284l0,0h187.883V267H19.229l0,0h-0.147   C8.513,267,0,258.501,0,247.95c0-10.551,8.513-19.05,19.082-19.05l0,0h187.736v7.767H19.816c-0.147,0-0.294,0-0.44,0   C13.064,236.519,7.926,241.648,7.926,247.95z"/>
	
		<linearGradient id="_5_1_-i2" gradientUnits="userSpaceOnUse" x1="30562.2109" y1="16081.6885" x2="-5064.9688" y2="4873.1367" gradientTransform="matrix(0.0178 0 0 0.0178 0 13.0844)">
		<stop offset="0" style="stop-color:#A1C3FC"/>
		<stop offset="0.6955" style="stop-color:#81AEF2"/>
		<stop offset="1" style="stop-color:#78A9EF"/>
	</linearGradient>
	<path id="_5-i2" fill="url(#_5_1_-i2)" d="M35.962,171.894c0,6.008,4.844,10.991,10.862,11.284l0,0h186.855v7.62H46.237l0,0   c-10.568-0.147-19.082-8.793-18.935-19.344c0.147-10.405,8.513-18.757,18.935-18.904l0,0h187.589v8.06H47.851   c-0.147,0-0.294,0-0.44,0C41.099,160.61,35.962,165.593,35.962,171.894z"/>
	
		<linearGradient id="_4_1_-i2" gradientUnits="userSpaceOnUse" x1="11059.2021" y1="9050.2168" x2="-6681.6182" y2="-182.248" gradientTransform="matrix(0.0178 0 0 0.0178 0 13.0844)">
		<stop offset="0" style="stop-color:#A1C3FC"/>
		<stop offset="0.6955" style="stop-color:#81AEF2"/>
		<stop offset="1" style="stop-color:#78A9EF"/>
	</linearGradient>
	<path id="_4-i2" fill="url(#_4_1_-i2)" d="M109.647,132.621c0,0.293,0,0.586,0,0.733c0,6.008,4.844,10.991,10.862,11.284l0,0h0.44l0,0   l0,0h93.648v7.767H27.008c-10.568,0-19.082-8.646-19.082-19.197s8.513-19.05,19.082-19.05H214.45v7.767h-93.207   c-0.147,0-0.294,0-0.44,0c-0.294,0-0.44,0-0.734,0c-5.284,0.293-9.541,4.396-10.422,9.525   C109.647,132.035,109.647,132.328,109.647,132.621z"/>
	
		<linearGradient id="_1_1_-i2" gradientUnits="userSpaceOnUse" x1="652.2677" y1="339.7119" x2="11633.4941" y2="339.7119" gradientTransform="matrix(0.0178 0 0 0.0178 0 13.0844)">
		<stop offset="0.1291" style="stop-color:#1c6cd5"/>
		<stop offset="0.9987" style="stop-color:#0051b1"/>
	</linearGradient>
	<path id="_1-i2" fill="url(#_1_1_-i2)" d="M128.435,18.025c0,0.44,0,0.733,0,1.172c0,6.008,4.844,10.991,10.862,11.284l0,0h67.52v7.767   H30.678c-10.568,0-19.082-8.646-19.082-19.197S20.109,0.147,30.678,0h175.993v7.767h-66.64c-0.147,0-0.294,0-0.44,0   s-0.44,0-0.587,0c-5.284,0.293-9.834,4.25-10.568,9.525C128.435,17.585,128.435,17.878,128.435,18.025z"/>
	
		<linearGradient id="_6_1_-i2" gradientUnits="userSpaceOnUse" x1="2539.1138" y1="11059.7383" x2="14172.6025" y2="11059.7383" gradientTransform="matrix(0.0178 0 0 0.0178 0 13.0844)">
		<stop offset="0.1291" style="stop-color:#1c6cd5"/>
		<stop offset="0.9987" style="stop-color:#0051b1"/>
	</linearGradient>
	<path id="_6-i2" fill="url(#_6_1_-i2)" d="M235,209.702c0,10.551-8.513,19.05-19.082,19.05c0,0-0.147,0-0.294,0l0,0H28.182v-7.767H130.49   l0,0c6.018-0.293,10.862-5.276,10.862-11.284c0-0.293,0-0.586,0-0.733c-0.44-5.569-4.844-10.111-10.568-10.551   c-0.294,0-0.44,0-0.734,0c-0.147,0-0.294,0-0.44,0H28.329v-7.767h187.442l0,0c0,0,0.147,0,0.294,0   C226.34,190.652,235,199.151,235,209.702z"/>
	
		<linearGradient id="_2_1_-i2" gradientUnits="userSpaceOnUse" x1="673.34" y1="2486.9661" x2="14663.3301" y2="2486.9661" gradientTransform="matrix(0.0178 0 0 0.0178 0 13.0844)">
		<stop offset="0" style="stop-color:#A1C3FC"/>
		<stop offset="0.6955" style="stop-color:#81AEF2"/>
		<stop offset="0.7528" style="stop-color:#7FADF1"/>
		<stop offset="1" style="stop-color:#78A9EF"/>
	</linearGradient>
	<path id="_2-i2" fill="url(#_2_1_-i2)" d="M230.009,57.298c0,10.551-8.513,19.05-19.082,19.05h-0.294l0,0H23.045v-7.767H209.9l0,0   c6.312-0.293,11.155-5.569,10.862-11.723c-0.294-6.008-5.284-10.844-11.302-10.844c-0.147,0-0.294,0-0.44,0H23.045v-7.767h187.442   l0,0h0.294C221.349,38.101,230.009,46.747,230.009,57.298z"/>
	
		<linearGradient id="_6-2_1_-i2" gradientUnits="userSpaceOnUse" x1="3648.7627" y1="11059.7383" x2="9585.2314" y2="11059.7383" gradientTransform="matrix(0.0178 0 0 0.0178 0 13.0844)">
		<stop offset="0.0898" style="stop-color:#EEEEEE"/>
		<stop offset="0.8178" style="stop-color:#D6D7D8"/>
	</linearGradient>
	<path id="_6-2-i2" fill="url(#_6-2_1_-i2)" d="M141.206,209.702c0,6.008-4.844,10.991-10.862,11.284l0,0H35.668v-22.568h94.969   c5.578,0.44,10.128,4.836,10.568,10.551C141.206,209.116,141.206,209.409,141.206,209.702z"/>
	
		<linearGradient id="_2-2_1_-i2" gradientUnits="userSpaceOnUse" x1="1467.6443" y1="2572.3164" x2="12604.4854" y2="2394.4131" gradientTransform="matrix(0.0178 0 0 0.0178 0 13.0844)">
		<stop offset="0.0898" style="stop-color:#EEEEEE"/>
		<stop offset="0.8178" style="stop-color:#D6D7D8"/>
	</linearGradient>
	<path id="_2-2-i2" fill="url(#_2-2_1_-i2)" d="M220.909,57.298c0.147-6.008-4.697-11.137-10.715-11.284c-0.147,0-0.294,0-0.44,0H31.558   v22.568h178.488l0,0l0,0h0.44l0,0C216.505,68.142,220.909,63.16,220.909,57.298z"/>
	
		<linearGradient id="_3-2_1_-i2" gradientUnits="userSpaceOnUse" x1="1056.8386" y1="4630.1958" x2="11807.0742" y2="4630.1958" gradientTransform="matrix(0.0178 0 0 0.0178 0 13.0844)">
		<stop offset="0.0898" style="stop-color:#EEEEEE"/>
		<stop offset="0.8178" style="stop-color:#D6D7D8"/>
	</linearGradient>
	<path id="_3-2-i2" fill="url(#_3-2_1_-i2)" d="M209.9,95.399c0.147-6.155-4.697-11.137-10.862-11.284c-0.147,0-0.294,0-0.44,0H18.788   v22.567h180.25l0,0l0,0h0.44l0,0C205.497,106.243,210.047,101.261,209.9,95.399z"/>
	
		<linearGradient id="_4-2_1_-i2" gradientUnits="userSpaceOnUse" x1="11983.0439" y1="6913.7051" x2="4227.27" y2="6522.3662" gradientTransform="matrix(0.0178 0 0 0.0178 0 13.0844)">
		<stop offset="0.0898" style="stop-color:#EEEEEE"/>
		<stop offset="0.8178" style="stop-color:#D6D7D8"/>
	</linearGradient>
	<path id="_4-2-i2" fill="url(#_4-2_1_-i2)" d="M206.818,122.216v22.567h-86.455l0,0c-6.018-0.293-10.862-5.276-10.862-11.284   c0-0.293,0-0.586,0-0.733c0-0.293,0-0.586,0.147-0.879c0.734-5.276,5.137-9.232,10.422-9.525h86.749V122.216z"/>
	
		<linearGradient id="_7-2_1_-i2" gradientUnits="userSpaceOnUse" x1="13206.9463" y1="13225.9824" x2="-3729.6157" y2="13190.4043" gradientTransform="matrix(0.0178 0 0 0.0178 0 13.0844)">
		<stop offset="0.0898" style="stop-color:#EEEEEE"/>
		<stop offset="0.8178" style="stop-color:#D6D7D8"/>
	</linearGradient>
	<path id="_7-2-i2" fill="url(#_7-2_1_-i2)" d="M200.212,236.666H19.375c-0.147,0-0.294,0-0.44,0c-6.312,0.293-11.156,5.422-10.862,11.723   c0.147,5.715,4.697,10.405,10.422,10.844l0,0h0.44l0,0l0,0h181.277V236.666z"/>
	
		<linearGradient id="_1-2_1_-i2" gradientUnits="userSpaceOnUse" x1="12550.7227" y1="831.9955" x2="7464.1123" y2="13.8683" gradientTransform="matrix(0.0178 0 0 0.0178 0 13.0844)">
		<stop offset="0.0898" style="stop-color:#EEEEEE"/>
		<stop offset="0.8178" style="stop-color:#D6D7D8"/>
	</linearGradient>
	<path id="_1-2-i2" fill="url(#_1-2_1_-i2)" d="M199.625,7.913v22.567h-60.475l0,0c-6.018-0.293-10.862-5.276-10.862-11.284   c0-0.44,0-0.733,0-1.172c0-0.147,0-0.44,0-0.586c0.881-5.276,5.284-9.232,10.568-9.525H199.625z"/>
	
		<linearGradient id="_5-2_1_-i2" gradientUnits="userSpaceOnUse" x1="12174.6377" y1="9003.3984" x2="-1630.7786" y2="8789.917" gradientTransform="matrix(0.0178 0 0 0.0178 0 13.0844)">
		<stop offset="0.0898" style="stop-color:#EEEEEE"/>
		<stop offset="0.8178" style="stop-color:#D6D7D8"/>
	</linearGradient>
	<path id="_5-2-i2" fill="url(#_5-2_1_-i2)" d="M224.872,160.61H47.117c-0.147,0-0.294,0-0.44,0c-6.312,0.293-11.009,5.715-10.715,11.87   c0.294,5.569,4.697,10.111,10.275,10.698l0,0h0.44l0,0l0,0h178.048V160.61H224.872z"/>
</g>

</g>
</g>

<!-- ITEM 3 -->
<g transform="translate(147.0 538.0) scale(1.404669260700389 1.4025) rotate(0.0 128.50000000000003 200.0)">
<g transform="translate(-0.0 -0.0)">

<g>
	<path fill="#23286B" d="M86.752,95.285l-14.857-1.457L77,41.911c1.06-10.773,5.609-25.414,13.384-33.846   c5.376-5.828,12.641-8.657,20.451-7.961c10.968,0.976,22.285,8.645,29.536,20.017c10.426,16.35,10.61,36.765,10.757,53.168   l0.185,20.726l-14.928,0.134L136.2,73.423c-0.13-14.5-0.292-32.542-8.419-45.286c-4.67-7.326-12.013-12.619-18.27-13.175   c-3.218-0.271-5.892,0.763-8.151,3.213c-5.163,5.598-8.69,16.912-9.505,25.195L86.752,95.285z"/>
</g>
<path fill="#151A4F" d="M157.911,348.607c10.642,1.481,24.494,2.657,34.917,0.049c8.767,11.008,21.984,18.37,35.965,20.03  c6.101,0.724,12.324,0.411,18.351,1.615c-0.573,3.284-4.602,4.547-7.931,4.767c-8.375,0.554-16.722-0.26-25.049,0.784  c-3.973,0.499-4.624,1.999-8.618,1.722c-1.964-0.136-7.274-1.969-9.162-2.525C182.31,370.889,166.721,360.337,157.911,348.607z"/>
<path fill="#151A4F" d="M58.567,352.913c0.288-1.543,0.592-3.19,1.684-4.321c1.567-1.626,4.135-1.598,6.389-1.457  c10.693,0.669,21.386,1.34,32.078,2.009c-7.813,3.249-12.511,12.96-14.297,21.225c-1.787,8.268-4.7,12.525-7.364,23.328  c-0.166,0.678-1.537,3.362-2.195,3.601c-0.904,0.33-1.62-2.821-2.572-2.972c-9.75-1.553-19.888,2.372-29.495,0.098  C50.475,381.677,55.846,367.544,58.567,352.913z"/>
<linearGradient id="SVGID_1_-i3" gradientUnits="userSpaceOnUse" x1="586.1849" y1="1481.2264" x2="1329.7288" y2="1481.2264" gradientTransform="matrix(0.2883 0 0 0.2883 -168.9971 -220.3741)">
	<stop offset="0" style="stop-color:#23286B"/>
	<stop offset="1" style="stop-color:#151A4F"/>
</linearGradient>
<path fill="url(#SVGID_1_-i3)" d="M113.222,61.861L113.222,61.861C50.692,61.861,0,112.51,0,174.987v176.479h214.364V162.92  C214.367,107.106,169.082,61.861,113.222,61.861z"/>
<path fill="#1D72D8" d="M164.275,94.888c16.884,37.306,7.656,80.983,22.989,118.952c6.425,15.913,16.754,31.568,24.857,45.239  c7.73,13.04,21.054,38.312,28.786,51.352c9.065,15.291,10.091,18.244,14.529,35.454c2.512,9.744-1.143,23.081-9.148,29.183  c-4.647,3.543-9.646,1.937-15.481,2.316c-6.72,0.437-14.623-0.247-21.342,0.19c8.498-3.077,13.665-11.89,14.118-20.912  c0.928-18.506-8.502-35.766-17.644-51.885c-6.333-11.168-12.667-22.333-19.001-33.5c-4.589-8.091-9.192-16.2-14.651-23.733  c-4.866-6.712-8.213-15.787-12.121-23.096c-6.363-11.894-10.848-22.812-11.674-36.273c-2.651-43.274-5.124-86.329-29.022-111.648  c13.97,0,32.711,0,32.711,0S161.889,89.617,164.275,94.888z"/>
<g>
	<path fill="#E94A47" d="M205.662,378.521c-4.218,0-8.319-1.255-11.676-2.487c-13.452-4.946-25.58-13.234-35.07-23.972   c-0.39-0.441-0.347-1.114,0.094-1.504c0.443-0.39,1.115-0.347,1.505,0.094c9.258,10.473,21.086,18.559,34.208,23.381   c4.381,1.611,10.085,3.267,15.372,1.773c10.968-3.092,14.523-17.801,12.298-30.074c-2.889-15.964-11.181-30.232-19.197-44.033   l-42.941-73.913c-12.136-20.893-13.972-45.742-15.747-69.771c-0.185-2.529-0.373-5.048-0.571-7.558   c-2.005-25.459-6.506-54.024-24.699-72.88c-0.409-0.422-0.396-1.097,0.028-1.506c0.426-0.403,1.101-0.398,1.507,0.03   c18.66,19.337,23.255,48.354,25.29,74.19c0.198,2.512,0.384,5.035,0.571,7.566c1.757,23.79,3.574,48.393,15.466,68.859   l42.941,73.913c7.73,13.307,16.494,28.391,19.453,44.723c2.391,13.194-1.64,29.073-13.816,32.505   C209.009,378.325,207.327,378.521,205.662,378.521z"/>
</g>
<g>
	<path fill="#E94A47" d="M242.233,377.897c-0.465,0-0.892-0.307-1.026-0.776c-0.16-0.567,0.17-1.155,0.738-1.315   c10.968-3.092,14.523-17.801,12.298-30.074c-2.889-15.964-11.181-30.232-19.197-44.033l-42.941-73.913   c-12.136-20.893-13.972-45.742-15.747-69.771c-0.185-2.529-0.373-5.048-0.571-7.558c-2.005-25.459-6.508-54.026-24.699-72.88   c-0.409-0.422-0.396-1.097,0.028-1.506c0.424-0.403,1.101-0.398,1.507,0.03c18.66,19.335,23.255,48.352,25.29,74.19   c0.198,2.512,0.384,5.035,0.571,7.566c1.757,23.79,3.574,48.393,15.466,68.859l42.941,73.913   c7.73,13.307,16.494,28.391,19.453,44.723c2.391,13.194-1.64,29.073-13.816,32.505   C242.427,377.884,242.329,377.897,242.233,377.897z"/>
</g>
<path fill="#428DFC" d="M78.465,76.527c10.159-0.013,20.319-0.026,30.478-0.038c-5.946,7.319-5.895,17.62-6.097,27.042  c-0.349,16.228-2.299,32.424-5.811,48.273c-2.625,11.845-6.125,23.507-8.076,35.482c-4.241,26.019-1.062,52.654-2.778,78.959  c-2.866,43.909-19.349,87.271-13.311,130.859c-10.669,3.938-22.774,3.857-33.389-0.226c-6.888-19.414-3.604-41.05,0.188-61.297  c3.792-20.247,8.134-39.275,10.695-59.714c2.761-22.041-1.241-48.738,1.169-72.643c3.244-32.184,16.19-62.94,17.197-95.27  c0.258-8.278-0.307-16.701,1.778-24.717c0.649-2.489,0.501-5.512,2.862-6.533C74.556,76.19,77.169,76.527,78.465,76.527z"/>
<g>
	<path fill="#E94A47" d="M74.597,398.583c-0.439,0-1.024-0.153-1.614-0.769c-0.139-0.143-0.234-0.326-0.275-0.522   c-5.741-27.952-0.066-56.545,5.421-84.199c3.936-19.838,8.008-40.349,7.89-60.581c-0.03-4.929-0.309-9.951-0.577-14.805   c-0.286-5.114-0.58-10.407-0.584-15.632c-0.019-20.824,4.545-41.529,8.959-61.552c4.039-18.321,8.215-37.263,8.843-56.194   c0.047-1.426,0.072-2.853,0.096-4.279c0.145-8.282,0.296-16.848,5.035-24.108c0.322-0.49,0.983-0.633,1.476-0.311   c0.492,0.322,0.634,0.982,0.311,1.475c-4.404,6.746-4.543,14.632-4.69,22.981c-0.026,1.436-0.051,2.877-0.098,4.311   c-0.636,19.126-4.832,38.167-8.892,56.581c-4.389,19.912-8.929,40.5-8.907,61.094c0.004,5.165,0.298,10.428,0.582,15.512   c0.271,4.882,0.552,9.927,0.582,14.911c0.117,20.447-3.975,41.065-7.93,61.007c-5.406,27.24-10.995,55.403-5.549,82.741   c1.041-0.861,2.597-6.605,3.858-11.261c3.186-11.764,7.549-27.875,16.566-34.123c0.479-0.332,1.147-0.215,1.484,0.268   c0.335,0.486,0.215,1.148-0.268,1.483c-8.377,5.804-12.62,21.478-15.721,32.925c-2.333,8.619-3.455,12.452-5.537,12.985   C74.931,398.555,74.776,398.583,74.597,398.583z"/>
</g>
<g>
	<path fill="#E94A47" d="M38.547,398.142c-0.494,0-0.941-0.347-1.043-0.85c-5.741-27.952-0.066-56.545,5.421-84.199   c3.936-19.838,8.008-40.349,7.89-60.581c-0.03-4.933-0.309-9.955-0.577-14.811c-0.286-5.114-0.58-10.403-0.584-15.623   c-0.019-20.826,4.545-41.531,8.959-61.557c4.039-18.321,8.215-37.261,8.843-56.191c0.036-1.117,0.064-2.244,0.092-3.375   c0.215-8.9,0.439-18.103,5.346-25.621c0.324-0.49,0.988-0.629,1.476-0.311c0.492,0.322,0.634,0.982,0.311,1.475   c-4.577,7.01-4.794,15.906-5.003,24.508c-0.028,1.138-0.055,2.269-0.092,3.394c-0.636,19.126-4.835,38.165-8.892,56.581   c-4.391,19.91-8.929,40.5-8.909,61.094c0.004,5.163,0.298,10.422,0.582,15.506c0.271,4.884,0.552,9.932,0.582,14.918   c0.117,20.447-3.975,41.065-7.93,61.007c-5.446,27.445-11.079,55.823-5.425,83.355c0.119,0.577-0.254,1.14-0.83,1.259   C38.689,398.135,38.617,398.142,38.547,398.142z"/>
</g>

</g>
</g>

<!-- ITEM 4 -->
<g transform="translate(277.0 185.0) scale(1.305 1.311764705882353) rotate(0.0 200.0 85.0)">
<g transform="translate(-0.0 -0.0)">

<linearGradient id="SVGID_1_-i4" gradientUnits="userSpaceOnUse" x1="3238.6514" y1="2161.2671" x2="3459.3174" y2="2161.2671" gradientTransform="matrix(0.1587 0 0 0.1587 -167.4187 -188.3515)">
	<stop offset="0" style="stop-color:#FFBEB6"/>
	<stop offset="1" style="stop-color:#F2A19C"/>
</linearGradient>
<path fill="url(#SVGID_1_-i4)" d="M374.648,161.194c-1.426-2.164-2.845-7.363-4.272-9.528c-7.209-0.034-16.605,5.605-23.753,4.666  c2.397-3.555,5.239-5.177,8.384-8.089c3.808-3.525,8.898-2.463,13.663-4.511c0.605-0.259,3.448-0.606,4.036-0.311  c1.553,0.777,2.363,2.618,2.484,2.956c1.814,5.069,1.858,6.558,3.673,11.627c0.939,2.622,1.877,5.244,2.781,7.878  c-1.462,0.328-3.007-0.265-4.166-1.215C376.317,163.719,375.473,162.446,374.648,161.194z"/>
<path fill="#D62929" d="M60.112,104.874c-5.545-3.96-7.191-11.56-6.808-18.373c0.366-6.513,2.197-12.94,5.32-18.665  c3.318-6.084,8.016-11.293,12.888-16.215c8.909-9.002,18.826-17.425,30.654-21.926c3.825-1.455,8.818-2.199,11.428,0.958  c1.075,1.3,1.486,3.014,1.799,4.672c2.489,13.188,0.695,27.152-5.043,39.28c-5.739,12.128-15.396,22.356-27.162,28.773  C76.04,107.272,66.737,109.606,60.112,104.874z"/>
<path fill="#1D72D8" d="M244.122,105.957c-2.604,6.37-3.345,14.232-1.712,20.919c1.268,5.191,5.19,10.128,10.518,9.886  c4.07-0.185,7.152-3.758,9.062-7.365c4.329-8.175,5.19-13.396,5.454-22.646c0.059-2.042-0.116-6.941-2.562-8.633  c-3.111-2.152-9.682-3.221-13.266-1.361C248.035,98.618,245.653,102.217,244.122,105.957z"/>
<g>
	<path fill="#D62929" d="M108.539,17.772c-0.246,0-0.452-0.193-0.465-0.443c-0.202-3.814-2.466-7.519-6.059-9.912   c-3.591-2.392-7.877-3.052-11.465-1.761c-1.847,0.664-3.574,1.759-5.243,2.819c-2.133,1.353-4.337,2.753-6.865,3.316   C72.4,13.136,66.619,9.426,61.52,6.153l-1.053-0.675c-4.142-2.641-11.908-6.484-17.375-2.552c-1.142,0.822-2.106,1.957-3.038,3.055   c-1.325,1.561-2.694,3.175-4.638,3.998c-3.402,1.437-7.477,0.154-12.459-3.923c-3.184-2.606-7.147-5.85-11.357-4.979   c-0.25,0.053-0.499-0.11-0.55-0.363c-0.053-0.252,0.11-0.5,0.363-0.551c4.637-0.964,8.972,2.584,12.135,5.171   c4.691,3.839,8.455,5.075,11.507,3.786c1.741-0.736,2.979-2.196,4.291-3.742c0.967-1.142,1.969-2.321,3.204-3.21   C48.46-2.085,56.626,1.922,60.967,4.69l1.055,0.676c5.187,3.332,10.551,6.775,16.217,5.514c2.368-0.527,4.409-1.822,6.569-3.193   c1.712-1.086,3.482-2.21,5.426-2.908c3.863-1.388,8.46-0.693,12.295,1.863c3.835,2.555,6.255,6.532,6.473,10.639   c0.014,0.257-0.183,0.477-0.441,0.491C108.556,17.772,108.547,17.772,108.539,17.772z"/>
</g>
<g>
	<path fill="#D62929" d="M76.359,16.278c-4.439,0-8.467-2.395-12.371-4.716c-4.4-2.616-8.552-5.086-13.213-4.398   c-3.046,0.45-5.59,2.185-8.285,4.021c-1.941,1.323-3.949,2.693-6.169,3.54c-7.153,2.732-14.594-0.263-21.791-3.159   c-2.155-0.867-4.385-1.764-6.545-2.477C7.741,9.009,7.608,8.744,7.688,8.5c0.08-0.246,0.344-0.378,0.588-0.297   c2.189,0.723,4.432,1.625,6.601,2.498c7.031,2.83,14.3,5.754,21.112,3.152c2.117-0.808,4.079-2.146,5.976-3.44   c2.662-1.816,5.415-3.692,8.673-4.174c4.977-0.739,9.478,1.934,13.824,4.52c4,2.379,8.142,4.842,12.587,4.564   c3.516-0.216,6.717-2.119,9.814-3.958l0.317-0.189c3.32-1.97,6.89-3.889,10.755-3.711c4.176,0.184,8.189,3.232,9.983,7.584   c0.098,0.238-0.014,0.512-0.252,0.609c-0.237,0.1-0.51-0.014-0.608-0.253c-1.659-4.024-5.342-6.841-9.164-7.009   c-3.618-0.164-7.039,1.681-10.24,3.581l-0.316,0.189c-3.192,1.896-6.49,3.856-10.232,4.086   C76.856,16.271,76.606,16.278,76.359,16.278z"/>
</g>
<path fill="#FFBEB6" d="M82.592,34.298c-0.379-5.927,1.083-12.221,5.341-16.562c4.258-4.34,11.692-6.09,16.999-2.966  c1.462,0.861,3.436,2.016,4.654,3.169c2.745,2.594,4.75,5.195,7.496,7.789c1.337,1.262,2.694,2.552,3.584,4.131  c1.139,2.021,1.432,4.367,1.589,6.654c0.315,4.61,0.102,9.458-2.26,13.494c-4.454,7.605-15.931,9.799-24.055,5.793  C87.815,51.791,83.147,42.987,82.592,34.298z"/>
<linearGradient id="SVGID_2_-i4" gradientUnits="userSpaceOnUse" x1="1687.7961" y1="1626.5142" x2="1896.2618" y2="1626.5142" gradientTransform="matrix(0.1587 0 0 0.1587 -167.4187 -188.3515)">
	<stop offset="0" style="stop-color:#FFBEB6"/>
	<stop offset="1" style="stop-color:#F2A19C"/>
</linearGradient>
<path fill="url(#SVGID_2_-i4)" d="M100.435,77.106c5.53-3.298,5.503-0.66,6.451-6.2c0.707-4.131-3.034-11.381-1.975-15.435  c1.059-4.054,2.624-6.169,6.584-7.519c1.698-0.579,5.409,0.039,6.874,1.074c1.465,1.034,2.115,2.846,2.884,4.467  c1.833,3.873,4.128,6.698,7.754,8.97c1.227,0.769,3.258,1.988,3.962,3.254c0.738,1.326,0.579,2.949,0.399,4.457  c-0.303,2.532-0.609,5.08-1.371,7.513c-2.144,6.846-8.086,12.359-15.064,13.976C109.956,93.279,105.361,82.314,100.435,77.106z"/>
<path fill="#D62929" d="M54.681,16.181c5.777-0.711,11.185,3.432,17.006,3.367c4.173-0.045,7.985-2.237,11.565-4.388  c3.579-2.15,7.348-4.389,11.519-4.544s13.846,2.448,14.149,6.618c-12.964-5.922-19.594,3.146-21.902,9.986  c-2.308,6.841-0.355,14.464,3.026,20.842c2.203,4.157,5.096,8.369,4.765,13.063c-0.471,6.666-7.128,11.132-9.505,17.375  c-1.161,3.047-1.244,6.379-1.68,9.611c-1.619,12.011-8.52,23.211-18.51,30.046c-9.991,6.835-22.914,9.197-34.669,6.335  c4.983-1.281,6.379-8.263,4-12.833c-2.379-4.57-7.061-7.359-11.271-10.322s-8.444-6.834-9.026-11.957  c-0.453-3.99,1.437-7.945,1.151-11.949c-0.44-6.135-5.653-10.628-9.237-15.622c-6.119-8.527-7.75-20.105-4.227-29.995  c0.238-0.67,0.509-1.348,0.979-1.88c1.6-1.808,4.505-1.147,6.8-0.404c9.052,2.932,19.607,4.641,27.562-0.585  C43.311,24.917,47.4,17.078,54.681,16.181z"/>
<path fill="#23286B" d="M113.499,17.226c-4.177-0.238-7.542,1.771-7.691,4.469c-0.014,0.27,0.013,0.538,0.063,0.801  c-0.627-0.187-1.259-0.191-1.911,0.034c-0.905,0.314-1.789,1.184-2.23,2.12c-0.766-0.617-1.826-0.953-3.097-0.953  c-1.611,0-3.39,0.544-5.009,1.533c-3.5,2.137-5.208,5.747-3.809,8.049c0.718,1.181,2.095,1.83,3.878,1.83  c1.611,0,3.39-0.544,5.008-1.533c3.5-2.137,5.209-5.747,3.809-8.049c-0.025-0.04-0.055-0.074-0.081-0.113  c0.228-0.824,1.053-1.731,1.834-2.002c0.714-0.249,1.385-0.133,2.095,0.327c1.073,1.757,3.595,3.082,6.598,3.248  c0.215,0.012,0.429,0.018,0.64,0.018c3.879,0,6.91-1.928,7.051-4.486C120.799,19.826,117.591,17.452,113.499,17.226z M98.218,32.777  c-1.473,0.9-3.08,1.395-4.524,1.395c-1.444,0-2.54-0.491-3.082-1.383c-1.132-1.862,0.437-4.897,3.499-6.766  c1.474-0.9,3.08-1.395,4.524-1.395c1.445,0,2.54,0.491,3.082,1.383C102.848,27.874,101.279,30.909,98.218,32.777z M113.011,26.054  c-2.825-0.157-5.167-1.395-5.973-2.98l0.008-0.011c-0.006-0.005-0.014-0.007-0.021-0.012c-0.207-0.416-0.314-0.855-0.289-1.305  c0.111-2.021,2.801-3.605,6.121-3.605c0.194,0,0.389,0.005,0.588,0.015c3.58,0.199,6.393,2.131,6.274,4.308  C119.603,24.605,116.588,26.249,113.011,26.054z"/>
<path fill="#FFBEB6" d="M366.52,142.487c-1.663-0.747-3.409-1.511-5.227-1.388c-2.005,0.135-3.762,1.32-5.46,2.396  c-8.675,5.49-19.578,9.065-29.181,5.441c-4.681-1.766-8.595-5.07-12.408-8.313c-12.98-11.04-25.96-22.08-38.94-33.119  c-10.001-8.506-20.259-17.168-32.511-21.866s-27.095-4.756-37.542,3.197c-4.42,3.365-7.864,10.001-4.262,14.232  c1.16,1.361,2.835,2.152,4.458,2.903c25.716,11.901,51.432,23.803,77.149,35.703c4.424,2.047,8.872,4.108,12.884,6.88  c7.843,5.419,24.442,15.129,33.289,18.669c2.968,1.187,5.427,1.677,7.604,1.632c1.052,0.094,2.104,0.154,3.134,0.202  c4.983,0.234,9.968,0.47,14.951,0.704c4.138,0.195,8.114,0.901,11.417-1.605c0.537-0.408,1.591-1.534,1.774-2.183  c0.348-1.243-0.691-2.527-1.911-2.94c-1.221-0.414-4.939-0.481-6.228-0.477c-3.711,0.01-7.216,0.045-10.655-0.17  c1.852-1.577,3.871-3.336,6.245-5.158c2.698-2.071,5.355-4.376,8.616-5.334c6.115-1.797,12.404,1.551,18.14,4.331  c5.737,2.781,12.93,4.979,18.144,1.308C388.84,152.518,377.68,147.502,366.52,142.487z"/>
<linearGradient id="SVGID_3_-i4" gradientUnits="userSpaceOnUse" x1="1467.2046" y1="1850.3844" x2="2575.1013" y2="1850.3844" gradientTransform="matrix(0.1587 0 0 0.1587 -167.4187 -188.3515)">
	<stop offset="0" style="stop-color:#3E8AF8"/>
	<stop offset="1" style="stop-color:#1479F2"/>
</linearGradient>
<path fill="url(#SVGID_3_-i4)" d="M241.25,152.696c-6.292-16.984-21.203-34.462-30.963-49.031  c-9.072-13.542-19.024-26.975-32.569-36.022c-13.545-9.047-11.055-10.326-27.908-9.533c-1.093,0.052-21.198,4.222-21.198,4.222  s3.818,8.575-6.057,13.06c-5.528,2.511-13.598,0.222-15.536-5.541c-7.901,2.374-24.233,9.415-30.121,18.853  c-5.888,9.437-8.377,20.546-10.769,31.414c-2.414,10.968,1.57,19.892,9.278,32.579C75.408,152.696,241.25,152.696,241.25,152.696z"/>
<linearGradient id="SVGID_4_-i4" gradientUnits="userSpaceOnUse" x1="1217.0846" y1="1831.4001" x2="1673.7567" y2="1831.4001" gradientTransform="matrix(0.1587 0 0 0.1587 -167.4187 -188.3515)">
	<stop offset="0" style="stop-color:#FFBEB6"/>
	<stop offset="1" style="stop-color:#F2A19C"/>
</linearGradient>
<path fill="url(#SVGID_4_-i4)" d="M84.137,47.662c3.413-1.18-1.384-7.701-4.644-9.252c-5.162-2.271-15.443,0.668-14.871,4.393  c0.702,4.566,12.441,13.268,18.165,20.59c1.046,1.338,2.114,2.779,2.301,4.466c0.267,2.389-1.284,4.575-2.876,6.373  c-6.31,7.117-14.466,12.298-21.59,18.598c-17.318,15.316-31.053,33.742-34.281,56.659c-2.963,21.035,5.589,17.422,10.972,16.966  c2.931-0.248,5.623-1.513,7.948-3.317c22.584-17.531,35.547-45.152,41.261-73.198c1.887-9.263,8.192-16.275,11.384-25.172  c1.456-4.058-2.618-8.804-6.472-10.725c-1.336-0.666-2.829-0.923-4.265-1.325c-4.931-1.379-9.33-4.584-12.161-8.856  c2.474,0.557,3.35-0.298,3.544-1.76C79.826,44.44,82.447,48.247,84.137,47.662z"/>
<linearGradient id="SVGID_5_-i4" gradientUnits="userSpaceOnUse" x1="2518.7239" y1="1802.8792" x2="1894.5824" y2="1703.4248" gradientTransform="matrix(0.1587 0 0 0.1587 -167.4187 -188.3515)">
	<stop offset="0" style="stop-color:#3E8AF8"/>
	<stop offset="1" style="stop-color:#1479F2"/>
</linearGradient>
<path fill="url(#SVGID_5_-i4)" d="M149.608,58.338c21.304-5.659,37.916-2.033,58.328,6.291s38.76,20.924,56.927,33.425  c-7.86-2.032-16.242,3.532-19.524,10.972c-3.282,7.438-2.415,16.097-0.068,23.882c-16.429-13.717-23.426-6.301-39.37-20.579  C189.957,98.051,172.519,69.815,149.608,58.338z"/>
<path id="texture_4_-i4" fill="#FFFFFF" d="M240.442,97.097c0.244-0.065,0.244-0.065,0.553,0.115c0.065,0.245,0.065,0.245-0.114,0.554  c-0.244,0.065-0.244,0.065-0.553-0.115C240.263,97.407,240.198,97.162,240.442,97.097z M234.007,102.484  c0.065,0.245,0.308,0.18,0.553,0.115c0.244-0.065,0.179-0.309,0.114-0.554c-0.065-0.245-0.308-0.18-0.553-0.115  C233.942,102.237,234.007,102.484,234.007,102.484z M238.546,84.998c0.065,0.245,0.308,0.18,0.308,0.18  c0.244-0.065,0.179-0.309,0.179-0.309c-0.065-0.245-0.308-0.18-0.308-0.18C238.416,84.506,238.481,84.752,238.546,84.998z   M230.712,87.081c0.065,0.245,0.308,0.18,0.308,0.18c0.244-0.065,0.179-0.309,0.179-0.309l-0.308-0.18  C230.648,86.836,230.712,87.081,230.712,87.081z M222.943,89.41c0.065,0.245,0.308,0.18,0.308,0.18  c0.244-0.065,0.179-0.309,0.179-0.309c-0.065-0.245-0.308-0.18-0.308-0.18C223.124,89.1,222.879,89.165,222.943,89.41z   M242.175,93.748c0.308,0.18,0.553,0.115,0.8,0.049c0.179-0.309,0.114-0.554,0.048-0.802c-0.308-0.18-0.553-0.115-0.8-0.049  C242.045,93.258,242.11,93.502,242.175,93.748z M234.676,102.041c0.308,0.18,0.553,0.115,0.8,0.049  c0.179-0.309,0.114-0.554,0.048-0.802c-0.308-0.18-0.553-0.115-0.8-0.049C234.303,101.617,234.368,101.863,234.676,102.041z   M226.868,110.16c0.308,0.18,0.553,0.115,0.8,0.049c0.179-0.309,0.114-0.554,0.048-0.802c-0.308-0.18-0.553-0.115-0.8-0.049  C226.493,109.734,226.558,109.979,226.868,110.16z M219.061,118.275c0.308,0.18,0.553,0.115,0.8,0.049  c0.179-0.309,0.114-0.554,0.048-0.802c-0.308-0.18-0.553-0.115-0.8-0.049C218.686,117.849,218.817,118.339,219.061,118.275z   M223.642,78.197c0.065,0.245,0.13,0.49,0.374,0.424c0.244-0.066,0.489-0.13,0.423-0.375c-0.065-0.245-0.13-0.49-0.374-0.424  C223.756,77.641,223.577,77.952,223.642,78.197z M212.155,78.363c0.065,0.245,0.13,0.49,0.374,0.424  c0.244-0.065,0.489-0.13,0.423-0.375c-0.065-0.245-0.13-0.49-0.374-0.424C212.334,78.055,212.089,78.118,212.155,78.363z   M200.979,78.711c0.065,0.245,0.13,0.49,0.374,0.424c0.244-0.065,0.489-0.13,0.423-0.375c-0.065-0.245-0.13-0.49-0.374-0.424  C201.094,78.156,200.915,78.465,200.979,78.711z M231.968,88.848c0.065,0.245,0.374,0.424,0.618,0.359  c0.244-0.065,0.423-0.375,0.359-0.619c-0.065-0.246-0.374-0.424-0.618-0.359C232.083,88.295,231.903,88.601,231.968,88.848z   M221.651,93.43c0.065,0.245,0.374,0.424,0.618,0.359c0.245-0.065,0.423-0.375,0.359-0.619c-0.065-0.246-0.374-0.424-0.618-0.359  C221.765,92.875,221.586,93.184,221.651,93.43z M211.334,98.013c0.065,0.245,0.374,0.424,0.618,0.359  c0.244-0.065,0.423-0.375,0.359-0.619c-0.065-0.246-0.374-0.424-0.618-0.359S211.269,97.767,211.334,98.013z M201.016,102.593  c0.065,0.245,0.374,0.424,0.618,0.359s0.423-0.375,0.359-0.619c-0.065-0.246-0.374-0.424-0.618-0.359  C201.131,102.039,200.951,102.349,201.016,102.593z M235.644,83.931c0.065,0.245,0.308,0.18,0.553,0.115  c0.245-0.065,0.179-0.309,0.114-0.554c-0.065-0.245-0.308-0.18-0.553-0.115C235.579,83.686,235.644,83.931,235.644,83.931z   M228.083,88.042c0.065,0.245,0.308,0.18,0.553,0.115c0.244-0.065,0.179-0.309,0.114-0.554c-0.065-0.245-0.308-0.18-0.553-0.115  C228.265,87.732,228.083,88.042,228.083,88.042z M220.526,92.154c0.065,0.245,0.308,0.18,0.553,0.115  c0.244-0.065,0.179-0.309,0.114-0.554s-0.308-0.18-0.553-0.115C220.705,91.843,220.526,92.154,220.526,92.154z M212.968,96.265  c0.065,0.245,0.308,0.18,0.553,0.115c0.244-0.065,0.179-0.309,0.114-0.554c-0.065-0.246-0.308-0.18-0.553-0.115  C213.147,95.953,212.903,96.019,212.968,96.265z M243.686,100.434c0.244-0.065,0.489-0.13,0.489-0.13  c-0.065-0.245-0.13-0.49-0.13-0.49c-0.244,0.065-0.489,0.13-0.489,0.13C243.621,100.19,243.686,100.434,243.686,100.434z   M241.408,108.655c0.244-0.065,0.489-0.13,0.489-0.13c-0.065-0.245-0.13-0.49-0.13-0.49c-0.244,0.065-0.489,0.13-0.489,0.13  C241.098,108.474,241.163,108.721,241.408,108.655z M238.887,116.94c0.244-0.065,0.489-0.13,0.489-0.13  c-0.065-0.245-0.13-0.49-0.13-0.49c-0.244,0.065-0.489,0.13-0.489,0.13C238.577,116.761,238.887,116.94,238.887,116.94z   M220.639,78.735c0.065,0.245,0.065,0.245,0.374,0.424c0.244-0.065,0.244-0.065,0.423-0.375c-0.065-0.245-0.065-0.245-0.374-0.424  C220.817,78.423,220.639,78.735,220.639,78.735z M211.991,79.72c0.065,0.245,0.065,0.245,0.374,0.424  c0.244-0.065,0.244-0.065,0.423-0.375c-0.065-0.245-0.065-0.245-0.374-0.424C212.17,79.41,211.925,79.475,211.991,79.72z   M203.586,80.643c0.065,0.245,0.065,0.245,0.374,0.424c0.244-0.065,0.244-0.065,0.423-0.375c-0.065-0.245-0.065-0.245-0.374-0.424  C203.767,80.332,203.521,80.398,203.586,80.643z M237.184,92.711c0.065,0.245,0.308,0.18,0.489-0.13  c0.244-0.065,0.179-0.309-0.13-0.49c-0.065-0.245-0.308-0.18-0.489,0.13C236.81,92.287,236.874,92.532,237.184,92.711z   M231.629,99.441c0.065,0.245,0.308,0.18,0.489-0.13c0.244-0.065,0.179-0.309-0.13-0.49c-0.065-0.245-0.308-0.18-0.489,0.13  C231.498,98.95,231.564,99.195,231.629,99.441z M226.319,106.104c0.065,0.245,0.308,0.18,0.489-0.13  c0.244-0.065,0.179-0.309-0.13-0.49c-0.065-0.245-0.308-0.18-0.489,0.13C226.189,105.616,226.254,105.86,226.319,106.104z   M220.945,112.522c0.065,0.245,0.308,0.18,0.489-0.13c0.244-0.065,0.179-0.309-0.13-0.49c-0.065-0.245-0.308-0.18-0.489,0.13  C220.636,112.342,220.699,112.587,220.945,112.522z M232.286,81.148C232.286,81.148,232.595,81.329,232.286,81.148  c0.244-0.065,0.489-0.13,0.179-0.309C232.465,80.838,232.465,80.838,232.286,81.148C232.221,80.903,232.286,81.148,232.286,81.148z   M228.27,83.794C228.579,83.973,228.579,83.973,228.27,83.794c0.244-0.065,0.489-0.13,0.179-0.309  C228.759,83.663,228.45,83.482,228.27,83.794L228.27,83.794z M224.563,86.615C224.563,86.615,224.628,86.861,224.563,86.615  c0.244-0.065,0.489-0.13,0.179-0.309C224.741,86.307,224.741,86.307,224.563,86.615C224.497,86.372,224.563,86.615,224.563,86.615z   M241.707,87.044l0.244-0.065l-0.065-0.245l-0.244,0.065C241.399,86.863,241.707,87.044,241.707,87.044z M240.854,91.735  l0.244-0.065l-0.065-0.245l-0.244,0.065L240.854,91.735z M240.003,96.426l0.244-0.065l-0.065-0.245l-0.244,0.065L240.003,96.426z   M222.646,77.412C222.646,77.412,222.956,77.591,222.646,77.412c0.308,0.18,0.489-0.13,0.489-0.13  C223.072,77.036,223.072,77.036,222.646,77.412C222.826,77.102,222.582,77.167,222.646,77.412z M218.175,78.34  C218.175,78.34,218.239,78.583,218.175,78.34c0.308,0.18,0.489-0.13,0.489-0.13C218.419,78.273,218.353,78.027,218.175,78.34  C218.108,78.092,218.108,78.092,218.175,78.34z M234.822,86.777l0.244-0.065l-0.065-0.245l-0.244,0.065  C234.579,86.843,234.579,86.843,234.822,86.777z M232.241,90.875l0.244-0.065l-0.065-0.245l-0.244,0.065L232.241,90.875z   M229.659,94.975l0.244-0.065l-0.065-0.245l-0.244,0.065C229.594,94.73,229.594,94.73,229.659,94.975z M220.74,77.131  c0.065,0.245,0.308,0.18,0.553,0.115s0.179-0.309,0.114-0.554c-0.065-0.245-0.308-0.18-0.553-0.115  C220.918,76.821,220.674,76.886,220.74,77.131z M212.805,80.818c0.065,0.245,0.308,0.18,0.553,0.115  c0.245-0.064,0.179-0.309,0.114-0.554c-0.065-0.246-0.308-0.18-0.553-0.115C212.674,80.326,212.496,80.636,212.805,80.818z   M204.561,84.323c0.065,0.245,0.308,0.18,0.553,0.115c0.244-0.065,0.179-0.309,0.114-0.554c-0.065-0.246-0.308-0.18-0.553-0.115  C204.494,84.076,204.494,84.076,204.561,84.323z M196.385,88.072c0.065,0.245,0.308,0.18,0.553,0.115  c0.244-0.065,0.179-0.309,0.114-0.554c-0.064-0.246-0.308-0.18-0.553-0.115C196.499,87.519,196.319,87.828,196.385,88.072z   M231.07,86.46c0.244-0.065,0.489-0.13,0.489-0.13c-0.065-0.245-0.13-0.49-0.13-0.49c-0.244,0.065-0.489,0.13-0.489,0.13  C230.762,86.279,230.826,86.524,231.07,86.46z M227.816,94.94c0.244-0.065,0.489-0.13,0.489-0.13c-0.065-0.245-0.13-0.49-0.13-0.49  c-0.244,0.065-0.489,0.13-0.489,0.13C227.44,94.515,227.752,94.696,227.816,94.94z M224.739,103.111  c0.244-0.065,0.489-0.13,0.489-0.13l-0.13-0.489c-0.244,0.065-0.489,0.13-0.489,0.13  C224.43,102.931,224.496,103.176,224.739,103.111z M221.42,111.345c0.244-0.065,0.489-0.13,0.489-0.13  c-0.065-0.245-0.13-0.49-0.13-0.49c-0.244,0.065-0.489,0.13-0.489,0.13C221.107,111.167,221.172,111.411,221.42,111.345z   M205.587,70.396c0.065,0.245,0.13,0.49,0.374,0.424c0.244-0.066,0.489-0.13,0.423-0.375c-0.065-0.245-0.13-0.49-0.374-0.424  C205.769,70.086,205.523,70.151,205.587,70.396z M196.502,70.712c0.065,0.245,0.13,0.49,0.374,0.424  c0.244-0.066,0.489-0.13,0.423-0.375c-0.065-0.245-0.13-0.49-0.374-0.424C196.615,70.156,196.68,70.401,196.502,70.712z   M187.592,70.719c0.065,0.245,0.13,0.49,0.374,0.424c0.244-0.066,0.489-0.13,0.423-0.375c-0.066-0.245-0.13-0.49-0.374-0.424  C187.77,70.409,187.836,70.653,187.592,70.719z M227.41,79.559c0.065,0.245,0.308,0.18,0.489-0.13  c0.244-0.065,0.179-0.309-0.13-0.49c-0.065-0.245-0.308-0.18-0.489,0.13C227.279,79.066,227.344,79.314,227.41,79.559z   M221.235,85.928c0.065,0.245,0.308,0.18,0.489-0.13c0.244-0.065,0.179-0.309-0.13-0.49c-0.065-0.245-0.308-0.18-0.489,0.13  C221.17,85.682,221.235,85.928,221.235,85.928z M215.123,92.54c0.065,0.245,0.308,0.18,0.489-0.13  c0.244-0.065,0.179-0.309-0.13-0.49c-0.065-0.245-0.308-0.18-0.489,0.13C214.994,92.051,215.059,92.296,215.123,92.54z   M209.195,98.844c0.065,0.245,0.308,0.18,0.489-0.13c0.244-0.065,0.179-0.309-0.13-0.49c-0.065-0.245-0.308-0.18-0.489,0.13  C208.821,98.418,208.887,98.664,209.195,98.844z M203.02,105.212c0.065,0.245,0.308,0.18,0.489-0.13  c0.244-0.065,0.179-0.309-0.13-0.49c-0.065-0.245-0.308-0.18-0.489,0.13C202.711,105.031,202.775,105.277,203.02,105.212z   M237.298,92.157c0.244-0.065,0.489-0.13,0.423-0.375c-0.065-0.245-0.13-0.49-0.374-0.424c-0.244,0.065-0.489,0.13-0.423,0.375  C236.99,91.977,237.298,92.157,237.298,92.157z M237.55,101.016c0.244-0.065,0.489-0.13,0.423-0.375  c-0.065-0.245-0.13-0.49-0.374-0.424c-0.244,0.065-0.489,0.13-0.423,0.375C237.242,100.835,237.55,101.016,237.55,101.016z   M237.867,110.122c0.244-0.065,0.489-0.13,0.423-0.375c-0.065-0.245-0.13-0.49-0.374-0.424c-0.244,0.065-0.489,0.13-0.423,0.375  C237.557,109.943,237.557,109.943,237.867,110.122z M238.118,118.982c0.244-0.065,0.489-0.13,0.423-0.375  c-0.065-0.245-0.13-0.49-0.374-0.424c-0.244,0.065-0.489,0.13-0.423,0.375C237.808,118.801,237.808,118.801,238.118,118.982z   M201.221,65.78c0,0,0.065,0.245,0.308,0.18c0,0,0.244-0.065,0.179-0.309c0,0-0.065-0.245-0.308-0.18  C201.156,65.536,201.156,65.536,201.221,65.78z M217.442,78.534c0,0,0.308,0.18,0.244-0.065c-0.065-0.245,0.179-0.309-0.065-0.245  c0,0-0.308-0.18-0.244,0.065L217.442,78.534z M213.259,82.533c0,0,0.308,0.18,0.244-0.065c0,0,0.179-0.309-0.065-0.245  c0,0-0.308-0.18-0.244,0.065L213.259,82.533z M209.08,86.534c0,0,0.308,0.18,0.244-0.065c0,0,0.179-0.309-0.065-0.245  c0,0-0.308-0.18-0.244,0.065L209.08,86.534z M229.867,83.893c0,0,0.244-0.065,0.179-0.309c-0.065-0.244-0.065-0.245-0.308-0.18  c0,0-0.244,0.065-0.179,0.309C229.559,83.713,229.623,83.958,229.867,83.893z M229.583,89.746c0,0,0.244-0.065,0.179-0.309  c0,0-0.065-0.245-0.308-0.18c0,0-0.244,0.065-0.179,0.309C229.518,89.5,229.583,89.746,229.583,89.746z M229.545,95.532  c0,0,0.244-0.065,0.179-0.309c0,0-0.065-0.245-0.308-0.18c0,0-0.244,0.065-0.179,0.309  C229.236,95.352,229.236,95.352,229.545,95.532z M210.92,73.704c0.065,0.245,0.308,0.18,0.308,0.18  c0.244-0.065,0.179-0.309,0.179-0.309c-0.065-0.245-0.308-0.18-0.308-0.18C210.854,73.458,210.92,73.704,210.92,73.704z   M205.485,75.939c0.065,0.245,0.308,0.18,0.308,0.18c0.244-0.065,0.179-0.309,0.179-0.309c-0.065-0.245-0.308-0.18-0.308-0.18  S205.419,75.693,205.485,75.939z M200.228,77.86c0.065,0.245,0.308,0.18,0.308,0.18c0.244-0.065,0.179-0.309,0.179-0.309  c-0.065-0.245-0.308-0.18-0.308-0.18C200.163,77.616,200.228,77.86,200.228,77.86z M223.852,79.978l0.244-0.065l-0.065-0.245  l-0.244,0.065L223.852,79.978z M221.53,85.061l0.244-0.065l-0.065-0.245l-0.244,0.065C221.53,85.061,221.53,85.061,221.53,85.061z   M219.271,90.387l0.244-0.065l-0.065-0.245l-0.244,0.065C218.961,90.207,219.025,90.452,219.271,90.387z M217.012,95.714  l0.244-0.065l-0.065-0.245l-0.244,0.065C216.704,95.533,216.704,95.533,217.012,95.714z M237.144,85.633  c0.244-0.065,0.179-0.309,0.179-0.309c-0.065-0.245-0.308-0.18-0.308-0.18c-0.244,0.065-0.179,0.309-0.179,0.309  C236.896,85.698,237.144,85.633,237.144,85.633z M239.127,91.144c0.244-0.065,0.179-0.309,0.179-0.309  c-0.065-0.245-0.308-0.18-0.308-0.18c-0.244,0.065-0.179,0.309-0.179,0.309L239.127,91.144z M241.291,96.345  c0.244-0.065,0.179-0.309,0.179-0.309c-0.065-0.245-0.308-0.18-0.308-0.18c-0.244,0.065-0.179,0.309-0.179,0.309  C241.047,96.41,241.047,96.41,241.291,96.345z M196.431,61.544c0.065,0.245,0.13,0.49,0.374,0.424  c0.244-0.066,0.489-0.13,0.423-0.375c-0.066-0.245-0.13-0.49-0.374-0.424C196.609,61.23,196.365,61.295,196.431,61.544z   M187.569,60.748c0.065,0.245,0.13,0.49,0.374,0.424c0.244-0.065,0.489-0.13,0.423-0.375c-0.065-0.245-0.13-0.49-0.374-0.424  C187.749,60.438,187.504,60.503,187.569,60.748z M178.711,59.952c0.065,0.245,0.13,0.49,0.374,0.424  c0.244-0.066,0.489-0.13,0.423-0.375c-0.066-0.245-0.13-0.49-0.374-0.424C178.826,59.398,178.647,59.708,178.711,59.952z   M209.598,75.63c0.065,0.245,0.308,0.18,0.553,0.115c0.244-0.065,0.179-0.309,0.114-0.554c-0.065-0.245-0.308-0.18-0.553-0.115  C209.467,75.141,209.286,75.45,209.598,75.63z M202.672,81.15c0.065,0.245,0.308,0.18,0.553,0.115  c0.245-0.064,0.179-0.309,0.114-0.554c-0.065-0.246-0.308-0.18-0.553-0.115C202.606,80.903,202.427,81.215,202.672,81.15z   M195.813,86.912c0.065,0.245,0.308,0.18,0.553,0.115c0.244-0.065,0.179-0.309,0.114-0.554c-0.065-0.245-0.308-0.18-0.553-0.115  C195.683,86.424,195.748,86.668,195.813,86.912z M188.889,92.43c0.065,0.245,0.308,0.18,0.553,0.115  c0.245-0.065,0.179-0.309,0.114-0.554c-0.065-0.245-0.308-0.18-0.553-0.115C188.824,92.185,188.889,92.43,188.889,92.43z   M221.727,81.856c0.244-0.065,0.489-0.13,0.423-0.375c-0.065-0.245-0.13-0.49-0.374-0.424s-0.489,0.13-0.423,0.375  C221.417,81.676,221.727,81.856,221.727,81.856z M220.936,90.732c0.244-0.065,0.489-0.13,0.423-0.375  c-0.065-0.245-0.13-0.49-0.374-0.424s-0.489,0.13-0.423,0.375C220.626,90.553,220.692,90.798,220.936,90.732z M220.142,99.607  c0.244-0.065,0.489-0.13,0.423-0.375c-0.065-0.245-0.13-0.49-0.374-0.424c-0.244,0.065-0.489,0.13-0.423,0.375  C219.832,99.428,219.832,99.428,220.142,99.607z M219.284,108.237c0.244-0.065,0.489-0.13,0.423-0.375  c-0.065-0.245-0.13-0.49-0.374-0.424c-0.244,0.066-0.489,0.13-0.423,0.375C218.974,108.058,219.04,108.302,219.284,108.237z   M201.347,70.211c0.065,0.245,0.308,0.18,0.553,0.115c0.245-0.065,0.179-0.309,0.114-0.554c-0.065-0.246-0.308-0.18-0.308-0.18  C201.461,69.657,201.282,69.967,201.347,70.211z M192.844,72.736c0.065,0.245,0.308,0.18,0.553,0.115  c0.245-0.065,0.179-0.309,0.114-0.554c-0.065-0.246-0.308-0.18-0.308-0.18C192.957,72.181,192.778,72.49,192.844,72.736z   M184.583,75.193c0.065,0.245,0.308,0.18,0.553,0.115c0.244-0.065,0.179-0.309,0.114-0.554c-0.065-0.245-0.308-0.18-0.553-0.115  C184.519,74.949,184.275,75.015,184.583,75.193z M176.082,77.719c0.065,0.245,0.308,0.18,0.308,0.18  c0.244-0.065,0.179-0.309,0.179-0.309c-0.065-0.245-0.308-0.18-0.553-0.115C176.016,77.473,176.082,77.719,176.082,77.719z   M216.662,75.591c0.308,0.18,0.553,0.115,0.489-0.13c0.179-0.309,0.114-0.554-0.13-0.49c-0.308-0.18-0.553-0.115-0.489,0.13  C216.286,75.166,216.35,75.41,216.662,75.591z M212.475,83.531c0.308,0.18,0.553,0.115,0.489-0.13  c0.179-0.309,0.179-0.309-0.13-0.49c-0.308-0.18-0.308-0.18-0.489,0.13C212.099,83.103,212.166,83.352,212.475,83.531z   M208.225,91.224c0.308,0.18,0.553,0.115,0.489-0.13c0.179-0.309,0.179-0.309-0.13-0.49c-0.308-0.18-0.553-0.115-0.489,0.13  C207.917,91.043,207.981,91.289,208.225,91.224z M204.04,99.165c0.308,0.18,0.553,0.115,0.489-0.13  c0.179-0.309,0.114-0.554-0.13-0.49c-0.308-0.18-0.553-0.115-0.489,0.13C203.663,98.74,203.728,98.984,204.04,99.165z   M199.788,106.862c0.308,0.18,0.553,0.115,0.489-0.13c0.179-0.309,0.179-0.309-0.13-0.49c-0.308-0.18-0.553-0.115-0.489,0.13  C199.723,106.616,199.788,106.862,199.788,106.862z M229.392,85.07c0.244-0.065,0.179-0.309,0.179-0.309  c-0.065-0.245-0.308-0.18-0.308-0.18c-0.244,0.065-0.179,0.309-0.114,0.554L229.392,85.07L229.392,85.07z M232.158,93.525  c0.244-0.065,0.179-0.309,0.114-0.554c-0.064-0.246-0.308-0.18-0.308-0.18c-0.244,0.065-0.179,0.309-0.179,0.309  C231.667,93.655,231.912,93.59,232.158,93.525z M234.676,102.041c0.244-0.065,0.179-0.309,0.114-0.554  c-0.065-0.245-0.308-0.18-0.553-0.115c-0.244,0.065-0.179,0.309-0.114,0.554C234.433,102.107,234.433,102.107,234.676,102.041z   M237.196,110.562c0.244-0.065,0.179-0.309,0.179-0.309c-0.065-0.245-0.308-0.18-0.553-0.115c-0.244,0.065-0.179,0.309-0.114,0.554  C236.951,110.627,236.951,110.627,237.196,110.562z M201.206,64.735C201.206,64.735,201.271,64.981,201.206,64.735  c0.308,0.18,0.489-0.13,0.489-0.13C201.629,64.36,201.385,64.425,201.206,64.735C201.14,64.49,201.14,64.49,201.206,64.735z   M196.064,66.102C196.13,66.349,196.13,66.349,196.064,66.102c0.308,0.18,0.489-0.13,0.489-0.13  C196.307,66.036,196.243,65.791,196.064,66.102C195.999,65.858,196.064,66.102,196.064,66.102z M190.989,67.715  C190.989,67.715,191.055,67.961,190.989,67.715c0.308,0.18,0.489-0.13,0.489-0.13C191.169,67.404,191.169,67.404,190.989,67.715  C190.924,67.469,190.924,67.469,190.989,67.715z M209.207,74.159l0.244-0.065l-0.065-0.245l-0.244,0.065  C208.896,73.98,208.961,74.225,209.207,74.159z M206.574,79.062l0.244-0.065l-0.065-0.245l-0.244,0.065  C206.507,78.814,206.507,78.814,206.574,79.062z M204.121,83.651l0.244-0.065l-0.065-0.245l-0.244,0.065  C203.812,83.473,203.876,83.716,204.121,83.651z M221.573,75.334C221.573,75.334,221.817,75.27,221.573,75.334  c0.179-0.309-0.13-0.49-0.13-0.49C221.264,75.154,221.264,75.154,221.573,75.334C221.329,75.399,221.329,75.399,221.573,75.334z   M223.003,80.731C223.247,80.666,223.182,80.421,223.003,80.731c0.179-0.309-0.13-0.49-0.13-0.49S222.872,80.239,223.003,80.731  C222.938,80.486,223.003,80.731,223.003,80.731z M224.611,85.815C224.855,85.749,224.791,85.505,224.611,85.815  c0.179-0.309-0.13-0.49-0.13-0.49S224.237,85.39,224.611,85.815C224.302,85.635,224.611,85.815,224.611,85.815z M186.955,56.448  c0,0,0.065,0.245,0.308,0.18c0,0,0.244-0.065,0.179-0.309c0,0-0.065-0.245-0.308-0.18C187.199,56.382,186.955,56.448,186.955,56.448  z M205.803,68.238c0,0,0.308,0.18,0.244-0.065c0,0,0.179-0.309-0.065-0.245c0,0-0.308-0.18-0.244,0.065  C205.982,67.927,205.803,68.238,205.803,68.238z M201.736,71.682c0,0,0.308,0.18,0.244-0.065c0,0,0.179-0.309-0.065-0.245  c0,0-0.308-0.18-0.244,0.065L201.736,71.682z M197.671,75.126c0,0,0.308,0.18,0.244-0.065c0,0,0.179-0.309-0.065-0.245  c0,0-0.308-0.18-0.244,0.065C197.606,74.882,197.606,74.882,197.671,75.126z M193.293,78.392c0,0,0.308,0.18,0.244-0.065  c0,0,0.179-0.309-0.065-0.245c0,0-0.308-0.18-0.244,0.065L193.293,78.392z M215.033,73.399c0,0,0.244-0.065,0.179-0.309  c0,0-0.065-0.245-0.308-0.18c0,0-0.244,0.065-0.179,0.309C214.967,73.153,214.967,73.153,215.033,73.399z M214.553,78.515  c0,0,0.244-0.065,0.179-0.309c0,0-0.065-0.245-0.308-0.18c0,0-0.244,0.065-0.179,0.309C214.309,78.579,214.308,78.58,214.553,78.515  z M213.893,83.94c0,0,0.244-0.065,0.179-0.309c0,0-0.065-0.245-0.308-0.18c0,0-0.244,0.065-0.179,0.309  C213.893,83.94,213.893,83.94,213.893,83.94z M213.481,89.301c0,0,0.244-0.065,0.179-0.309c0,0-0.065-0.245-0.308-0.18  c0,0-0.244,0.065-0.179,0.309C213.173,89.123,213.237,89.367,213.481,89.301z M201.315,68.119L201.315,68.119  c0.244-0.065,0.179-0.309,0.179-0.309S201.25,67.874,201.315,68.119C201.25,67.874,201.072,68.183,201.315,68.119z M198.604,71.73  C198.848,71.664,198.848,71.664,198.604,71.73c0.244-0.065,0.179-0.309,0.179-0.309C198.718,71.172,198.718,71.172,198.604,71.73  C198.538,71.482,198.538,71.482,198.604,71.73z M214.201,71.257C214.448,71.191,214.448,71.191,214.201,71.257  c0.179-0.309,0.179-0.309-0.065-0.245C214.137,71.012,214.137,71.012,214.201,71.257L214.201,71.257z M214.818,75.556  C215.062,75.492,215.062,75.492,214.818,75.556c0.179-0.309,0.179-0.309-0.065-0.245C214.752,75.309,214.752,75.309,214.818,75.556  L214.818,75.556z M194.499,64.154C194.564,64.402,194.811,64.336,194.499,64.154c0.244-0.065,0.244-0.065,0.244-0.065  C194.682,63.844,194.682,63.844,194.499,64.154C194.434,63.911,194.499,64.154,194.499,64.154z M190.909,66.423L190.909,66.423  c0.244-0.065,0.244-0.065,0.244-0.065C191.088,66.112,190.843,66.177,190.909,66.423C190.843,66.177,190.665,66.487,190.909,66.423z   M207.596,69.073C207.842,69.007,207.842,69.007,207.596,69.073c0.179-0.309,0.179-0.309,0.179-0.309  C207.713,68.517,207.531,68.829,207.596,69.073C207.531,68.829,207.596,69.073,207.596,69.073z M206.614,73.274  C206.858,73.21,206.858,73.21,206.614,73.274c0.179-0.309,0.179-0.309,0.179-0.309C206.728,72.717,206.484,72.782,206.614,73.274  C206.55,73.03,206.614,73.274,206.614,73.274z M205.631,77.474C205.631,77.474,205.875,77.41,205.631,77.474  c0.179-0.309,0.179-0.309,0.179-0.309C205.501,76.984,205.501,76.984,205.631,77.474C205.321,77.294,205.631,77.474,205.631,77.474z   M197.437,63.373l0.244-0.065l-0.065-0.245l-0.244,0.065C197.193,63.438,197.193,63.438,197.437,63.373z M196.47,68.622l0.244-0.065  l-0.065-0.245l-0.244,0.065C196.161,68.44,196.226,68.686,196.47,68.622z M207.136,71.296L207.136,71.296  c0.179-0.309,0.114-0.554-0.13-0.49C206.828,71.116,206.828,71.116,207.136,71.296C206.892,71.362,206.892,71.362,207.136,71.296z"/>

</g>
</g>

              </svg>