<svg xmlns="http://www.w3.org/2000/svg"  viewBox="0 0 100 100" width="100px" height="100px"><path fill="#c7ede6" d="M88.476,55.958c0.299-0.614,0.563-1.259,0.792-1.935c2.622-7.739-1.343-17.008-9.693-19.245c-0.903-11.338-8.87-19.115-17.867-20.442C51.41,12.818,41.975,19.36,38.836,29.758c-3.784-1.34-7.471-1.177-10.945,0.853c-1.576,0.729-3.018,1.805-4.312,3.22c-1.9,2.077-3.134,4.7-3.637,7.465c-0.745,0.117-1.477,0.235-2.167,0.482c-4.023,1.443-6.562,4.413-7.258,8.886c-0.434,2.785,0.441,5.564,0.929,6.687c1.927,4.436,6.396,6.952,10.936,6.286c0.226-0.033,0.554,0.069,0.749,0.232c0.24,7.091,3.683,13.362,8.848,16.944c8.287,5.748,18.949,3.977,25.675-3.905c2.882,2.948,6.312,4.38,10.342,3.86c4.006-0.517,7.117-2.728,9.387-6.322c1.048,0.282,2.043,0.689,3.071,0.801c4.025,0.44,7.294-1.161,9.692-4.78c0.918-1.385,1.786-3.181,1.786-6.328C91.932,60.895,90.644,57.94,88.476,55.958z"/><path fill="#fdfcef" d="M76.86,49.43c0,0,11.643,0,11.714,0c2.689,0,4.868-2.18,4.868-4.869c0-2.346-1.659-4.303-3.868-4.765c0.025-0.205,0.043-0.413,0.043-0.625c0-2.785-2.257-5.042-5.042-5.042c-1.644,0-3.1,0.791-4.02,2.008c-0.235-3.1-3.004-5.491-6.244-5.095c-2.369,0.29-4.328,2.121-4.764,4.467c-0.14,0.752-0.125,1.483,0.014,2.168c-0.635-0.684-1.539-1.115-2.546-1.115c-1.843,0-3.347,1.435-3.466,3.248c-0.837-0.185-1.747-0.173-2.706,0.187c-1.832,0.688-3.137,2.413-3.214,4.369c-0.108,2.778,2.111,5.064,4.864,5.064c0.209,0,0.944,0,1.114,0h10.109"/><path fill="#472b29" d="M88.574,49.929H76.86c-0.276,0-0.5-0.224-0.5-0.5s0.224-0.5,0.5-0.5h11.714c2.408,0,4.368-1.96,4.368-4.369c0-2.057-1.459-3.855-3.47-4.275c-0.254-0.053-0.426-0.292-0.394-0.551c0.022-0.185,0.038-0.373,0.038-0.564c0-2.505-2.037-4.542-4.542-4.542c-1.432,0-2.752,0.66-3.622,1.811c-0.125,0.166-0.343,0.236-0.539,0.178c-0.2-0.059-0.342-0.234-0.358-0.441c-0.104-1.372-0.775-2.659-1.842-3.534c-1.077-0.883-2.44-1.273-3.843-1.104c-2.156,0.264-3.938,1.934-4.333,4.062c-0.123,0.664-0.119,1.329,0.013,1.978c0.044,0.22-0.062,0.442-0.262,0.544c-0.198,0.104-0.443,0.06-0.595-0.104c-0.571-0.616-1.346-0.955-2.18-0.955c-1.562,0-2.864,1.221-2.967,2.78c-0.01,0.146-0.082,0.28-0.199,0.367c-0.116,0.087-0.266,0.12-0.408,0.088c-0.837-0.186-1.629-0.131-2.421,0.167c-1.662,0.623-2.823,2.198-2.89,3.92c-0.047,1.202,0.385,2.339,1.216,3.203c0.831,0.865,1.949,1.341,3.148,1.341h11.223c0.276,0,0.5,0.224,0.5,0.5s-0.224,0.5-0.5,0.5H62.494c-1.474,0-2.848-0.585-3.869-1.647c-1.021-1.062-1.553-2.459-1.495-3.936c0.083-2.119,1.505-4.055,3.538-4.817c0.798-0.299,1.624-0.398,2.456-0.298c0.377-1.815,1.99-3.168,3.891-3.168c0.681,0,1.347,0.178,1.935,0.506c-0.001-0.383,0.035-0.768,0.106-1.151c0.474-2.553,2.609-4.556,5.194-4.872c1.675-0.208,3.308,0.264,4.599,1.323c0.999,0.819,1.708,1.941,2.029,3.178c1.008-0.911,2.31-1.418,3.697-1.418c3.056,0,5.542,2.486,5.542,5.542c0,0.083-0.002,0.165-0.007,0.246c2.245,0.671,3.832,2.767,3.832,5.145C93.942,47.521,91.534,49.929,88.574,49.929z"/><path fill="#fdfcef" d="M72.611,39.933c-1.801-0.118-3.351,1.126-3.462,2.778c-0.014,0.205-0.005,0.407,0.025,0.604c-0.347-0.392-0.862-0.659-1.452-0.697c-1.08-0.071-2.013,0.643-2.149,1.613c-0.197-0.054-0.401-0.09-0.614-0.104c-1.576-0.103-2.932,0.985-3.029,2.431"/><path fill="#472b29" d="M61.93,46.807c-0.006,0-0.011,0-0.017,0c-0.138-0.009-0.242-0.128-0.232-0.266c0.106-1.58,1.582-2.779,3.295-2.664c0.136,0.009,0.271,0.026,0.406,0.053c0.273-0.963,1.254-1.624,2.356-1.562c0.416,0.027,0.817,0.162,1.157,0.382c0.001-0.019,0.002-0.037,0.004-0.056c0.12-1.787,1.778-3.136,3.728-3.011c0.138,0.009,0.242,0.128,0.232,0.266c-0.008,0.137-0.108,0.247-0.266,0.233c-1.668-0.111-3.095,1.033-3.196,2.545c-0.012,0.185-0.004,0.37,0.023,0.549c0.017,0.109-0.04,0.217-0.141,0.264c-0.102,0.047-0.221,0.022-0.294-0.06c-0.316-0.357-0.783-0.581-1.281-0.614c-0.943-0.06-1.768,0.553-1.884,1.397c-0.011,0.071-0.05,0.135-0.11,0.174c-0.059,0.04-0.131,0.053-0.203,0.033c-0.192-0.052-0.378-0.083-0.565-0.096c-1.442-0.097-2.675,0.892-2.764,2.198C62.17,46.706,62.061,46.807,61.93,46.807z"/><path fill="#fdfcef" d="M90.545,40.367c-1.692-0.798-3.649-0.233-4.371,1.261c-0.09,0.186-0.156,0.377-0.2,0.571"/><path fill="#472b29" d="M85.974,42.449c-0.018,0-0.036-0.002-0.055-0.006c-0.135-0.03-0.22-0.164-0.189-0.299c0.049-0.214,0.122-0.424,0.219-0.625c0.779-1.616,2.888-2.235,4.703-1.378c0.125,0.059,0.179,0.208,0.12,0.333c-0.06,0.126-0.21,0.177-0.333,0.12c-1.566-0.738-3.38-0.227-4.039,1.144c-0.081,0.166-0.142,0.34-0.182,0.518C86.192,42.371,86.088,42.449,85.974,42.449z"/><path fill="#fff" d="M18.429 48.029H8.44c-.276 0-.5-.224-.5-.5s.224-.5.5-.5h9.989c.276 0 .5.224.5.5S18.706 48.029 18.429 48.029zM21.299 48.029h-1.44c-.276 0-.5-.224-.5-.5s.224-.5.5-.5h1.44c.276 0 .5.224.5.5S21.576 48.029 21.299 48.029zM25.336 48.029h-2.535c-.276 0-.5-.224-.5-.5s.224-.5.5-.5h2.535c.276 0 .5.224.5.5S25.613 48.029 25.336 48.029zM25.336 49.886H15.76c-.276 0-.5-.224-.5-.5s.224-.5.5-.5h9.576c.276 0 .5.224.5.5S25.613 49.886 25.336 49.886zM14.036 49.886h-.578c-.276 0-.5-.224-.5-.5s.224-.5.5-.5h.578c.276 0 .5.224.5.5S14.312 49.886 14.036 49.886zM11.668 49.886h-1.45c-.276 0-.5-.224-.5-.5s.224-.5.5-.5h1.45c.276 0 .5.224.5.5S11.945 49.886 11.668 49.886zM20.767 46.172H15.76c-.276 0-.5-.224-.5-.5s.224-.5.5-.5h5.007c.276 0 .5.224.5.5S21.043 46.172 20.767 46.172zM20.767 44.315h-1.252c-.276 0-.5-.224-.5-.5s.224-.5.5-.5h1.252c.276 0 .5.224.5.5S21.043 44.315 20.767 44.315zM17.511 51.743H15.76c-.276 0-.5-.224-.5-.5s.224-.5.5-.5h1.751c.276 0 .5.224.5.5S17.788 51.743 17.511 51.743zM71.389 21.86H61.4c-.276 0-.5-.224-.5-.5s.224-.5.5-.5h9.989c.276 0 .5.224.5.5S71.666 21.86 71.389 21.86zM74.259 21.86h-1.44c-.276 0-.5-.224-.5-.5s.224-.5.5-.5h1.44c.276 0 .5.224.5.5S74.536 21.86 74.259 21.86zM78.296 21.86h-2.535c-.276 0-.5-.224-.5-.5s.224-.5.5-.5h2.535c.276 0 .5.224.5.5S78.573 21.86 78.296 21.86zM76.279 18.145h-9.576c-.276 0-.5-.224-.5-.5s.224-.5.5-.5h9.576c.276 0 .5.224.5.5S76.555 18.145 76.279 18.145zM64.978 18.145H64.4c-.276 0-.5-.224-.5-.5s.224-.5.5-.5h.578c.276 0 .5.224.5.5S65.254 18.145 64.978 18.145zM62.611 18.145h-1.45c-.276 0-.5-.224-.5-.5s.224-.5.5-.5h1.45c.276 0 .5.224.5.5S62.887 18.145 62.611 18.145zM73.727 20.003H68.72c-.276 0-.5-.224-.5-.5s.224-.5.5-.5h5.007c.276 0 .5.224.5.5S74.003 20.003 73.727 20.003z"/><path fill="#fff" d="M73.727 18.145h-1.253c-.276 0-.5-.224-.5-.5s.224-.5.5-.5h1.253c.276 0 .5.224.5.5S74.003 18.145 73.727 18.145zM67.271 20.003h-1.752c-.276 0-.5-.224-.5-.5s.224-.5.5-.5h1.752c.276 0 .5.224.5.5S67.547 20.003 67.271 20.003z"/><path fill="#cdcbbd" d="M58.355,39.314c-0.8,0-1.448-0.596-1.448-1.332v-1.248c0-1.855-1.659-3.374-3.686-3.374h-16.16c-2.027,0-3.686,1.518-3.686,3.374v2.689v0.731l0.063,27.269c2.88,0.128,3.122,1.115,7.014,1.115h28.22c3.883,0,7.06-2.918,7.06-6.484V40.646c0-0.736-0.648-1.332-1.448-1.332H58.355z"/><path fill="#472b29" d="M68.673,69.238H40.453c-2.272,0-3.401-0.335-4.396-0.63c-0.752-0.223-1.461-0.433-2.649-0.486c-0.373-0.017-0.668-0.324-0.669-0.698l-0.062-30.69c0-2.246,1.968-4.074,4.386-4.074h16.16c2.419,0,4.387,1.828,4.387,4.074v1.248c0,0.349,0.335,0.632,0.747,0.632h15.93c1.185,0,2.148,0.912,2.148,2.032v21.408C76.433,66.015,72.952,69.238,68.673,69.238z M34.136,66.771c0.98,0.098,1.658,0.299,2.317,0.495c0.948,0.281,1.93,0.572,3.999,0.572h28.221c3.507,0,6.359-2.594,6.359-5.784V40.646c0-0.349-0.336-0.632-0.748-0.632h-15.93c-1.184,0-2.147-0.912-2.147-2.032v-1.248c0-1.474-1.34-2.673-2.986-2.673h-16.16c-1.646,0-2.985,1.199-2.985,2.673v3.419L34.136,66.771z"/><path fill="#fdfcee" d="M74.089,69.126H35.234c-0.992,0-1.796-0.806-1.796-1.801l5.686-24.084h42.291L75.73,67.482C75.73,68.39,74.995,69.126,74.089,69.126z"/><path fill="#472b29" d="M74.089 69.826H35.235c-1.377 0-2.497-1.122-2.497-2.5 0-.054.007-.108.019-.161l5.687-24.084c.075-.316.357-.54.682-.54h42.291c.214 0 .416.098.549.266.133.167.182.386.133.594L76.428 67.57C76.382 68.822 75.351 69.826 74.089 69.826zM34.14 67.398c.037.573.514 1.028 1.095 1.028h38.854c.519 0 .94-.423.94-.944 0-.054.007-.107.019-.16l5.484-23.38H39.678L34.14 67.398zM49.48 36.723h-1.629c-.207 0-.375-.168-.375-.375s.168-.375.375-.375h1.629c.207 0 .375.168.375.375S49.687 36.723 49.48 36.723zM46.29 36.723h-10.1c-.207 0-.375-.168-.375-.375s.168-.375.375-.375h10.1c.207 0 .375.168.375.375S46.497 36.723 46.29 36.723z"/><path fill="#c5def0" d="M63.819,51.382v-2.163c0-0.505-0.425-0.918-0.945-0.918H50.057c-0.52,0-0.945,0.413-0.945,0.918v15.288l2.505-2.408l2.335,2.408l2.543-2.408l2.543,2.408l2.335-2.408l2.447,2.408v-9.765"/><path fill="#472b29" d="M49.112,64.882c-0.05,0-0.1-0.01-0.146-0.03c-0.139-0.059-0.229-0.195-0.229-0.345V49.219c0-0.713,0.592-1.292,1.319-1.292h12.818c0.728,0,1.319,0.58,1.319,1.292v2.163c0,0.207-0.168,0.375-0.375,0.375s-0.375-0.168-0.375-0.375v-2.163c0-0.299-0.256-0.542-0.569-0.542H50.056c-0.313,0-0.569,0.243-0.569,0.542v14.407l1.87-1.798c0.147-0.143,0.384-0.14,0.529,0.01l2.076,2.142l2.274-2.153c0.145-0.137,0.371-0.137,0.516,0l2.273,2.153l2.077-2.142c0.071-0.073,0.173-0.143,0.27-0.114c0.099,0,0.193,0.039,0.263,0.108l1.809,1.78v-8.869c0-0.207,0.168-0.375,0.375-0.375s0.375,0.168,0.375,0.375v9.765c0,0.151-0.091,0.288-0.23,0.346c-0.14,0.059-0.3,0.027-0.407-0.079l-2.178-2.143l-2.071,2.137c-0.144,0.147-0.378,0.152-0.527,0.011l-2.285-2.164l-2.286,2.164c-0.148,0.14-0.383,0.136-0.527-0.012l-2.074-2.14l-2.235,2.149C49.3,64.845,49.207,64.882,49.112,64.882z"/><path fill="#472b29" d="M63.819 53.312c-.138 0-.25-.112-.25-.25v-.28c0-.138.112-.25.25-.25s.25.112.25.25v.28C64.069 53.2 63.957 53.312 63.819 53.312zM61.546 51.212H51.274c-.138 0-.25-.112-.25-.25s.112-.25.25-.25h10.272c.138 0 .25.112.25.25S61.684 51.212 61.546 51.212zM53.773 52.741h-2.499c-.138 0-.25-.112-.25-.25s.112-.25.25-.25h2.499c.138 0 .25.112.25.25S53.911 52.741 53.773 52.741zM51.275 55.688c-.03 0-.07 0-.101-.02-.029-.01-.05-.03-.08-.05-.02-.02-.04-.05-.05-.08s-.02-.06-.02-.1c0-.06.029-.13.069-.17.091-.09.271-.1.351 0 .05.04.08.11.08.17 0 .07-.03.13-.08.18C51.405 55.668 51.334 55.688 51.275 55.688zM58.484 55.692h-6.345c-.138 0-.25-.112-.25-.25s.112-.25.25-.25h6.345c.138 0 .25.112.25.25S58.622 55.692 58.484 55.692zM51.275 57.178c-.07 0-.13-.03-.181-.07-.04-.05-.069-.11-.069-.18 0-.07.029-.13.069-.18.091-.09.271-.09.351 0 .05.05.08.11.08.18 0 .07-.03.13-.08.18C51.405 57.148 51.334 57.178 51.275 57.178zM58.484 57.178h-6.345c-.138 0-.25-.112-.25-.25s.112-.25.25-.25h6.345c.138 0 .25.112.25.25S58.622 57.178 58.484 57.178zM51.275 58.658c-.07 0-.13-.02-.181-.07-.04-.04-.069-.11-.069-.17 0-.07.02-.14.069-.18.03-.02.051-.04.08-.06.09-.04.21-.01.271.06.03.02.05.05.06.08.01.03.021.06.021.1 0 .06-.03.12-.08.17C51.405 58.638 51.344 58.658 51.275 58.658zM58.484 58.664h-6.345c-.138 0-.25-.112-.25-.25s.112-.25.25-.25h6.345c.138 0 .25.112.25.25S58.622 58.664 58.484 58.664zM60.776 57.892c.004 0 .013.004.027.013l-.007-.003c.065.043.123.078.175.103.052.025.106.043.165.054v-1.016l-.06-.033c-.074-.039-.145-.08-.212-.124-.067-.043-.128-.092-.182-.144-.054-.052-.099-.108-.136-.167-.037-.059-.062-.123-.076-.193-.009-.035-.014-.067-.015-.098-.001-.031-.002-.063-.002-.098 0-.102.017-.192.052-.268.035-.076.082-.141.143-.194.06-.053.132-.096.215-.128.083-.031.174-.053.273-.063v-.092c0-.043.01-.08.03-.111.02-.031.057-.046.111-.046h.013c.117 0 .181.056.192.167l-.003.088c.063.011.127.028.193.051.066.023.141.052.224.086l-.01-.006c.038.013.068.029.089.049.021.02.034.051.039.095v.02c0 .015-.004.035-.012.059-.008.024-.02.047-.035.069-.016.022-.034.041-.054.057-.02.017-.043.025-.067.025-.02 0-.039-.002-.056-.005-.017-.003-.036-.012-.059-.028v.003l-.037-.019c-.065-.033-.137-.059-.215-.078v.892l.013.007c.182.089.322.188.421.297.099.109.164.222.195.34.013.05.023.096.029.137.006.041.008.084.008.127 0 .1-.017.19-.05.271-.034.081-.08.151-.138.211-.058.06-.128.109-.21.147-.082.038-.171.064-.267.077v.235c0 .044-.009.081-.027.111-.018.031-.055.046-.111.046h-.02c-.056 0-.101-.015-.135-.044-.034-.029-.051-.072-.051-.129v-.219c-.121-.013-.225-.039-.313-.078-.088-.039-.177-.088-.269-.147-.025-.019-.042-.038-.05-.056-.009-.017-.019-.041-.03-.072v-.019c0-.02.006-.042.018-.067.012-.025.027-.049.045-.072.018-.023.037-.042.057-.059.02-.016.039-.025.057-.025.025 0 .046.007.066.021.019.014.037.029.055.044H60.776c.004.002.008.003.01.003L60.776 57.892zM60.949 56.504c.053.048.115.09.187.127v-.715c-.085.018-.156.051-.214.101-.057.05-.086.118-.086.203 0 .013 0 .027.002.042.001.015.004.034.008.056C60.862 56.394 60.897 56.456 60.949 56.504zM61.641 57.365c-.045-.053-.099-.1-.161-.139v.813c.079-.031.144-.077.197-.141.053-.063.079-.137.079-.222 0-.024-.002-.046-.007-.065-.005-.019-.009-.04-.013-.062C61.717 57.48 61.685 57.418 61.641 57.365z"/><path fill="#fdfcef" d="M38.926,73.538c1.876,0,3.502,0,3.526,0c2.101,0,3.805-1.667,3.805-3.724c0-1.794-1.297-3.292-3.023-3.645c0.02-0.157,0.033-0.316,0.033-0.478c0-2.13-1.764-3.857-3.941-3.857c-1.285,0-2.423,0.605-3.142,1.536c-0.184-2.371-2.348-4.2-4.88-3.897c-1.851,0.222-3.383,1.622-3.723,3.417c-0.109,0.576-0.098,1.134,0.011,1.659c-0.496-0.523-1.203-0.853-1.99-0.853c-1.44,0-2.616,1.097-2.709,2.484c-0.654-0.142-1.365-0.132-2.115,0.143c-1.432,0.526-2.452,1.846-2.512,3.342c-0.085,2.125,1.65,3.873,3.802,3.873c0.163,0,0.738,0,0.87,0h7.901 M32.475,73.538h0.358"/><path fill="#472b29" d="M42.452,74.038h-3.525c-0.276,0-0.5-0.224-0.5-0.5s0.224-0.5,0.5-0.5h3.525c1.822,0,3.305-1.446,3.305-3.224c0-1.517-1.103-2.844-2.623-3.155c-0.255-0.052-0.428-0.292-0.396-0.551c0.017-0.137,0.029-0.275,0.029-0.417c0-1.851-1.543-3.357-3.44-3.357c-1.088,0-2.089,0.489-2.747,1.341c-0.126,0.165-0.342,0.232-0.538,0.174c-0.198-0.059-0.34-0.234-0.355-0.44c-0.079-1.014-0.563-1.935-1.364-2.591c-0.824-0.677-1.877-0.98-2.958-0.848c-1.639,0.196-2.992,1.436-3.292,3.014c-0.094,0.491-0.09,0.984,0.009,1.464c0.046,0.219-0.06,0.441-0.258,0.544c-0.197,0.103-0.44,0.063-0.594-0.099c-0.427-0.449-1.005-0.697-1.628-0.697c-1.163,0-2.134,0.886-2.209,2.018c-0.01,0.145-0.082,0.279-0.198,0.366s-0.264,0.119-0.406,0.089c-0.638-0.138-1.236-0.097-1.838,0.124c-1.256,0.461-2.134,1.624-2.184,2.892c-0.035,0.871,0.281,1.7,0.891,2.333c0.632,0.658,1.488,1.02,2.411,1.02h8.771c0.276,0,0.5,0.224,0.5,0.5s-0.224,0.5-0.5,0.5h-8.771c-1.181,0-2.322-0.484-3.133-1.327c-0.799-0.832-1.214-1.921-1.169-3.066c0.066-1.668,1.208-3.191,2.839-3.791c0.609-0.224,1.238-0.302,1.873-0.244c0.343-1.39,1.623-2.414,3.123-2.414c0.49,0,0.972,0.112,1.406,0.321c0.009-0.24,0.036-0.48,0.082-0.72c0.38-2.002,2.089-3.573,4.155-3.82c1.353-0.16,2.674,0.216,3.712,1.068c0.744,0.61,1.272,1.402,1.54,2.291c0.787-0.645,1.777-1.001,2.83-1.001c2.448,0,4.44,1.955,4.44,4.357c0,0.034-0.001,0.067-0.001,0.101c1.757,0.553,2.99,2.18,2.99,4.022C46.756,72.143,44.826,74.038,42.452,74.038z M32.834,74.038h-0.358c-0.276,0-0.5-0.224-0.5-0.5s0.224-0.5,0.5-0.5h0.358c0.276,0,0.5,0.224,0.5,0.5S33.11,74.038,32.834,74.038z"/><path fill="#472b29" d="M40.751 68.258c-.018 0-.036-.002-.055-.006-.135-.03-.22-.164-.189-.299.037-.163.094-.324.169-.478.603-1.219 2.266-1.67 3.708-1.003.126.058.181.207.122.332-.058.125-.209.179-.331.122-1.197-.555-2.567-.208-3.05.77-.059.118-.103.241-.13.366C40.968 68.178 40.865 68.258 40.751 68.258zM35.614 74.038h-1.103c-.276 0-.5-.224-.5-.5s.224-.5.5-.5h1.103c.276 0 .5.224.5.5S35.89 74.038 35.614 74.038z"/></svg>