<svg xmlns="http://www.w3.org/2000/svg"  viewBox="0 0 100 100" width="50px" height="50px"><path fill="#ceccbe" d="M81,78V34c0-1.105-0.895-2-2-2H51c-1.105,0-2-0.895-2-2v-2c0-3.314-2.686-6-6-6H16 c-3.314,0-6,2.686-6,6v50H81z"/><path fill="#fefdef" d="M10.117,77.633L20,39h71L80.673,79.367C80.277,80.916,78.882,82,77.283,82H13.508 C11.223,82,9.551,79.846,10.117,77.633z"/><path fill="#1f212b" d="M10,79c-0.553,0-1-0.448-1-1V28c0-3.86,3.141-7,7-7h27c3.859,0,7,3.14,7,7v2c0,0.551,0.448,1,1,1h28 c1.654,0,3,1.346,3,3v5c0,0.552-0.447,1-1,1s-1-0.448-1-1v-5c0-0.551-0.448-1-1-1H51c-1.654,0-3-1.346-3-3v-2c0-2.757-2.243-5-5-5 H16c-2.757,0-5,2.243-5,5v50C11,78.552,10.553,79,10,79z"/><path fill="#1f212b" d="M77.282,83H13.508c-1.4,0-2.695-0.634-3.555-1.741c-0.858-1.106-1.151-2.518-0.805-3.875 l9.883-38.633C19.145,38.31,19.543,38,20,38h71c0.309,0,0.601,0.143,0.79,0.387s0.255,0.562,0.179,0.861L81.643,79.615 C81.133,81.608,79.34,83,77.282,83z M20.776,40l-9.69,37.881l0,0c-0.192,0.753-0.029,1.538,0.447,2.152 C12.011,80.647,12.73,81,13.508,81h63.774c1.144,0,2.14-0.773,2.423-1.881L89.712,40H20.776z M10.117,77.633h0.01H10.117z"/><path fill="#1f212b" d="M31.5,29h-17c-0.276,0-0.5-0.224-0.5-0.5s0.224-0.5,0.5-0.5h17c0.276,0,0.5,0.224,0.5,0.5 S31.776,29,31.5,29z"/><path fill="#1f212b" d="M37,29h-2.5c-0.276,0-0.5-0.224-0.5-0.5s0.224-0.5,0.5-0.5H37c0.276,0,0.5,0.224,0.5,0.5 S37.276,29,37,29z"/><g><path fill="#fef6aa" d="M52,61.5c-0.557,0-2.437,0-3,0c-0.828,0-1.5,0.672-1.5,1.5s0.672,1.5,1.5,1.5c0.563,0,2.443,0,3,0 c0.828,0,1.5-0.672,1.5-1.5S52.828,61.5,52,61.5z"/><path fill="#eddc67" d="M53.637,65.335c-0.079-0.484-0.496-0.835-0.986-0.835h-4.302c-0.49,0-0.908,0.351-0.986,0.835 C47.089,67.019,46.5,69.727,46.5,70.5c0,2.209,1.791,4,4,4s4-1.791,4-4C54.5,69.727,53.911,67.019,53.637,65.335z M50.5,72.5 c-1.105,0-2-0.896-2-2s0.895-2,2-2s2,0.896,2,2S51.605,72.5,50.5,72.5z"/><path fill="#1f212b" d="M52,65h-3c-1.103,0-2-0.897-2-2s0.897-2,2-2h3c1.103,0,2,0.897,2,2C54,64.103,53.103,65,52,65z M49,62c-0.552,0-1,0.449-1,1s0.448,1,1,1h3c0.552,0,1-0.449,1-1s-0.448-1-1-1H49z"/><path fill="#1f212b" d="M50.5,75c-2.481,0-4.5-2.019-4.5-4.5c0-0.548,0.245-1.853,0.506-3.233 c0.134-0.711,0.269-1.425,0.364-2.013C46.987,64.528,47.609,64,48.35,64h4.301c0.74,0,1.362,0.528,1.479,1.254l0,0 c0.096,0.588,0.23,1.301,0.364,2.013C54.755,68.647,55,69.952,55,70.5C55,72.981,52.981,75,50.5,75z M48.35,65 c-0.247,0-0.454,0.174-0.493,0.415c-0.097,0.596-0.232,1.317-0.368,2.038C47.26,68.667,47,70.045,47,70.5c0,1.93,1.57,3.5,3.5,3.5 s3.5-1.57,3.5-3.5c0-0.455-0.26-1.833-0.488-3.048c-0.136-0.72-0.271-1.442-0.368-2.037v-0.001C53.104,65.174,52.897,65,52.65,65 H48.35z M50.5,73c-1.379,0-2.5-1.122-2.5-2.5s1.121-2.5,2.5-2.5s2.5,1.122,2.5,2.5S51.879,73,50.5,73z M50.5,69 c-0.827,0-1.5,0.673-1.5,1.5s0.673,1.5,1.5,1.5s1.5-0.673,1.5-1.5S51.327,69,50.5,69z"/><path fill="#1f212b" d="M50,59h-3c-0.553,0-1-0.448-1-1s0.447-1,1-1h3c0.553,0,1,0.448,1,1S50.553,59,50,59z"/><path fill="#1f212b" d="M54,56h-3c-0.553,0-1-0.448-1-1s0.447-1,1-1h3c0.553,0,1,0.448,1,1S54.553,56,54,56z"/><path fill="#1f212b" d="M50,53h-3c-0.553,0-1-0.448-1-1s0.447-1,1-1h3c0.553,0,1,0.448,1,1S50.553,53,50,53z"/><path fill="#1f212b" d="M54,50h-3c-0.553,0-1-0.448-1-1s0.447-1,1-1h3c0.553,0,1,0.448,1,1S54.553,50,54,50z"/><path fill="#1f212b" d="M50,47h-3c-0.553,0-1-0.448-1-1s0.447-1,1-1h3c0.553,0,1,0.448,1,1S50.553,47,50,47z"/><path fill="#1f212b" d="M54,44h-3c-0.553,0-1-0.448-1-1s0.447-1,1-1h3c0.553,0,1,0.448,1,1S54.553,44,54,44z"/></g></svg>