<?xml version="1.0" encoding="UTF-8"?><svg version="1.1" id="Layer_1" xmlns="http://www.w3.org/2000/svg" xmlns:xlink="http://www.w3.org/1999/xlink" x="0px" y="0px" viewBox="0 0 792 792" style="enable-background:new 0 0 792 792;" xml:space="preserve" width="792px" height="792px">

<g>
	<path d="M23.8,521.8l4.4-12c1.6-0.1,3.2,0.1,4.7,0.6l-4.8,13c-0.3,0.7,0.1,1.5,0.8,1.8c0.7,0.3,1.5-0.1,1.8-0.8
		l4.7-12.8c1.4,0.9,2.6,2.1,3.6,3.4l-3.9,10.8c-0.3,0.7,0.1,1.5,0.8,1.8c0.7,0.3,1.5-0.1,1.8-0.8l3.1-8.4c1.8,4.4,1.9,10-0.1,15.5
		c0,0.1-0.1,0.3-0.1,0.4c1,0.6,2,1.2,3,1.9c2.7,2,6.2,5.4,7.5,10.2l-1.4,0.4c-1.1-4.4-4.4-7.5-6.9-9.4c-0.9-0.6-1.8-1.2-2.7-1.8
		c-2.1,4.7-5.5,8.3-9.2,10.3l2.9-8c0.3-0.7-0.1-1.5-0.8-1.8c-0.7-0.3-1.5,0.1-1.8,0.8l-3.8,10.3c-1.7,0.4-3.3,0.5-5,0.2l4.4-12
		c0.3-0.7-0.1-1.5-0.8-1.8c-0.7-0.3-1.5,0.1-1.8,0.8l-4.5,12.2c-1.4-0.6-2.7-1.6-3.9-2.8l4-11c0.3-0.7-0.1-1.5-0.8-1.8
		c-0.7-0.3-1.5,0.1-1.8,0.8l-3.5,9.5c-1.1-1.6-2.1-3.4-3-5.2l2.2-5.9c0.3-0.7-0.1-1.5-0.8-1.8c-0.7-0.3-1.5,0.1-1.8,0.8l-1.2,3.2
		c-2.1-5.3-3.7-10.4-5.4-12.1c3-0.6,7.3-3.5,12.1-6.1l-1.5,4.1c-0.3,0.7,0.1,1.5,0.8,1.8c0.7,0.3,1.5-0.1,1.8-0.8l2.5-6.9
		c1.9-0.8,3.7-1.5,5.6-2l-3.9,10.6c-0.3,0.7,0.1,1.5,0.8,1.8C22.8,522.9,23.6,522.5,23.8,521.8z" style="fill:#E0EBFE;"/>
	<path d="M702.2,293l-4.4-12c-1.6-0.1-3.2,0.1-4.7,0.6l4.8,13c0.3,0.7-0.1,1.5-0.8,1.8c-0.7,0.3-1.5-0.1-1.8-0.8
		l-4.7-12.8c-1.4,0.9-2.6,2.1-3.6,3.4l3.9,10.8c0.3,0.7-0.1,1.5-0.8,1.8c-0.7,0.3-1.5-0.1-1.8-0.8l-3.1-8.4
		c-1.8,4.4-1.9,10,0.1,15.5c0,0.1,0.1,0.3,0.1,0.4c-1,0.6-2,1.2-3,1.9c-2.7,2-6.2,5.4-7.5,10.2l1.4,0.4c1.1-4.4,4.4-7.5,6.9-9.4
		c0.9-0.6,1.8-1.2,2.7-1.8c2.1,4.7,5.5,8.3,9.2,10.3l-2.9-8c-0.3-0.7,0.1-1.5,0.8-1.8c0.7-0.3,1.5,0.1,1.8,0.8l3.8,10.3
		c1.7,0.4,3.3,0.5,5,0.2l-4.4-12c-0.3-0.7,0.1-1.5,0.8-1.8c0.7-0.3,1.5,0.1,1.8,0.8l4.5,12.2c1.4-0.6,2.7-1.6,3.9-2.8l-4-11
		c-0.3-0.7,0.1-1.5,0.8-1.8c0.7-0.3,1.5,0.1,1.8,0.8l3.5,9.5c1.1-1.6,2.1-3.4,3-5.2l-2.2-5.9c-0.3-0.7,0.1-1.5,0.8-1.8
		c0.7-0.3,1.5,0.1,1.8,0.8l1.2,3.2c2.1-5.3,3.7-10.4,5.4-12.1c-3-0.6-7.3-3.5-12.1-6.1l1.5,4.1c0.3,0.7-0.1,1.5-0.8,1.8
		c-0.7,0.3-1.5-0.1-1.8-0.8l-2.5-6.9c-1.9-0.8-3.7-1.5-5.6-2l3.9,10.6c0.3,0.7-0.1,1.5-0.8,1.8C703.2,294.1,702.4,293.7,702.2,293z" style="fill:#E0EBFE;"/>
	<line x1="648" y1="393.5" x2="779.6" y2="576.1" style="fill:none;stroke:#BDD5FD;stroke-width:0.99;stroke-miterlimit:3.96;"/>
	<line x1="612.1" y1="368.8" x2="761.5" y2="576.1" style="fill:none;stroke:#BDD5FD;stroke-width:0.99;stroke-miterlimit:3.96;"/>
	<line x1="611.8" y1="393.5" x2="743.4" y2="576.1" style="fill:none;stroke:#BDD5FD;stroke-width:0.99;stroke-miterlimit:3.96;"/>
	<rect x="348.2" y="549.3" width="74.4" height="30.2" style="fill:#BDD5FD;"/>
	<path d="M729.4,486.8h-90v92.3h24v-49.3c0-11.6,9.5-21,21-21s21,9.5,21,21v49.3h24L729.4,486.8L729.4,486.8z" style="fill:#E6EFFE;"/>
	<path d="M684.4,508.8c-11.6,0-21,9.5-21,21v49.3h42v-49.3C705.4,518.2,696,508.8,684.4,508.8z" style="fill:#FFFFFF;"/>
	<rect x="80.4" y="470.3" width="79" height="109.1" style="fill:#FFFFFF;"/>
	<rect x="240.5" y="411.6" width="5.5" height="52.7" style="fill:#BDD5FD;"/>
	<path d="M309,451.9H286v23.6h6.1V463c0-3,2.4-5.4,5.4-5.4s5.4,2.4,5.4,5.4v12.6h6.1L309,451.9L309,451.9z" style="fill:#D5E4FE;"/>
	<path d="M297.5,457.6c-3,0-5.4,2.4-5.4,5.4v12.6h10.8V463C302.9,460,300.5,457.6,297.5,457.6z" style="fill:#FFFFFF;"/>
	<polygon points="306.2,448 287.9,448 282.8,452.3 311.3,452.3 	" style="fill:#A1C3FC;"/>
	<path d="M317.3,482.1h-39V522h10.4v-21.3c0-5,4.1-9.1,9.1-9.1c5,0,9.1,4.1,9.1,9.1V522h10.4L317.3,482.1L317.3,482.1z" style="fill:#D5E4FE;"/>
	<path d="M297.8,491.6c-5,0-9.1,4.1-9.1,9.1V522h18.2v-21.3C306.9,495.7,302.8,491.6,297.8,491.6z" style="fill:#FFFFFF;"/>
	<rect x="199.9" y="453.8" width="64.7" height="125.6" style="fill:#BDD5FD;"/>
	<path d="M107.5,96.8c0,0.6,0,1.2,0,1.8c0,25.4,20.6,46,46,46s46-20.6,46-46c0-0.6,0-1.2,0-1.8H107.5z" style="fill:#F4F4F4;"/>
	<path d="M155.7,96.8c0,0.4,0,0.9,0,1.3c0,18.4,14.9,33.4,33.4,33.4s33.4-14.9,33.4-33.4c0-0.4,0-0.9,0-1.3H155.7z" style="fill:#E7EFFE;"/>
	<path d="M613.4,30c0,0.7-0.1,1.3-0.1,2c0,27.6,22.4,50,50,50c27.6,0,50-22.4,50-50c0-0.7,0-1.3-0.1-2H613.4z" style="fill:#D3E3FE;"/>
	<path d="M665.8,30c0,0.5,0,1,0,1.5c0,20.1,16.3,36.3,36.3,36.3c20.1,0,36.3-16.3,36.3-36.3c0-0.5,0-1,0-1.5
		C738.3,30,665.8,30,665.8,30z" style="fill:#F6F9FF;"/>
	<path d="M705.6,30c0,0.4,0,0.8,0,1.2c0,16.1,13,29.1,29.1,29.1c16.1,0,29.1-13,29.1-29.1c0-0.4,0-0.8,0-1.2
		C763.7,30,705.6,30,705.6,30z" style="fill:#D3E3FE;"/>
	<path d="M213.6,361.1h-18.4c1.1-0.3,2.1-0.6,3.3-0.8h11.8C211.4,360.6,212.5,360.9,213.6,361.1z M217.8,362.8h-26.7
		c-0.6,0.2-1.1,0.5-1.6,0.8h29.7C218.8,363.3,218.3,363,217.8,362.8z M221.6,365.2h-34.7c-0.4,0.3-0.7,0.5-1.1,0.8h36.7
		C222.2,365.7,221.9,365.4,221.6,365.2z M223.7,367.5h-39.9c-0.3,0.3-0.6,0.5-0.9,0.8h41.2C224,368.1,223.9,367.8,223.7,367.5z
		 M224.8,370h-43.5c-0.2,0.3-0.4,0.5-0.7,0.8h44.4C225,370.5,224.9,370.2,224.8,370z M225.5,372.4h-46.1c-0.2,0.3-0.4,0.5-0.6,0.8
		h46.8C225.5,372.9,225.5,372.6,225.5,372.4z M225.7,374.7h-48c-0.2,0.3-0.3,0.5-0.4,0.8h48.6C225.8,375.3,225.8,375,225.7,374.7z
		 M225.8,377.1h-49.5c-0.1,0.3-0.3,0.5-0.4,0.8h49.9C225.8,377.6,225.8,377.4,225.8,377.1z M225.4,379.8c0.1-0.1,0.1-0.2,0.1-0.3
		h-50.2c-0.1,0.3-0.2,0.5-0.3,0.8h50.1C225.2,380.2,225.3,380,225.4,379.8z M222.1,382.2c0.2-0.1,0.3-0.2,0.5-0.2h-48.2
		c-0.1,0.3-0.1,0.5-0.2,0.8h46.9C221.5,382.5,221.8,382.4,222.1,382.2z M219.1,384.3h-45.1c-0.1,0.3-0.1,0.5-0.1,0.8h44.4
		C218.5,384.8,218.8,384.6,219.1,384.3z M216.9,386.7h-43.3c0,0.3-0.1,0.5-0.1,0.8h42.8C216.5,387.2,216.6,387,216.9,386.7z
		 M215.4,389.1h-41.9c0,0.3,0,0.5,0,0.8H215C215.1,389.7,215.2,389.4,215.4,389.1z M214.3,391.5h-40.8c0,0.3,0.1,0.5,0.1,0.8h40.5
		C214.2,392,214.3,391.7,214.3,391.5z M213.7,393.9h-39.8c0.1,0.3,0.1,0.6,0.2,0.8h39.5C213.7,394.4,213.7,394.1,213.7,393.9z
		 M213.5,396.3h-38.9c0.1,0.3,0.2,0.6,0.3,0.8h38.6C213.5,396.8,213.5,396.6,213.5,396.3z M176.1,399.5h37.7
		c-0.1-0.3-0.1-0.5-0.1-0.8h-38C175.8,398.9,176,399.2,176.1,399.5z M177.6,401.8h36.8c-0.1-0.3-0.2-0.5-0.2-0.8h-37.1
		C177.2,401.3,177.4,401.6,177.6,401.8z M179.8,404.2h35c0-0.3,0-0.5-0.1-0.8h-35.8C179.3,403.7,179.5,404,179.8,404.2z
		 M182.7,406.5c0.1,0.1,0.2,0.1,0.3,0.2h31c0.2-0.2,0.3-0.5,0.4-0.8h-32.7C182.1,406,182.4,406.3,182.7,406.5z M189.8,409h20
		c0.8-0.2,1.5-0.4,2.2-0.8h-25.4C187.7,408.6,188.8,408.9,189.8,409z" style="fill:#C8DCF8;"/>
	<circle cx="81.1" cy="178.5" r="5.6" style="fill:#A1C3FC;"/>
	<circle cx="594.5" cy="71.4" r="5.6" style="fill:#A1C3FC;"/>
	<path d="M303.2,441.8c1-0.6,1.9-1.4,2.7-2.2l-0.1,0l-3.6-3.6l4.9-1.3l1,1c0.3-0.9,0.6-1.9,0.6-3l-1.2,0.3l-3.6-3.6
		l4.3-1.1c-1-3.3-3.4-6-6.6-7.3l1.1,1.1l-4.9,1.3l-3.1-3.1c-0.6,0.1-1.1,0.3-1.7,0.5l3.1,3.1l-4.9,1.3l-2.1-2.1
		c-0.4,0.3-0.7,0.7-1.1,1.1l1.4,1.4l-2.9,0.7c-0.3,0.6-0.5,1.2-0.8,1.8l4.9-1.3l3.6,3.6l-4.9,1.3l-3.6-3.6c-0.2,0.6-0.3,1.1-0.4,1.7
		l2.3,2.3l-2.5,0.6c0,0.5,0.1,1,0.2,1.5l3.5-0.9l3.6,3.6l-4.9,1.3l-1.3-1.3c1.2,2.4,3.1,4.4,5.5,5.5l-3-3l4.9-1.3l3.6,3.6l-4.4,1.1
		c1.1,0.4,2.2,0.6,3.4,0.7l2.3-0.6l0.4,0.4c0.6-0.1,1.2-0.3,1.7-0.4l-0.4-0.4L303.2,441.8z M305.8,433.4l-4.9,1.3l-3.6-3.6l4.9-1.3
		L305.8,433.4z M304,423.3l3.6,3.6l-4.9,1.3l-3.6-3.6L304,423.3z M292.4,426.3l4.9-1.3l3.6,3.6l-4.9,1.3L292.4,426.3z M290.6,432.8
		l4.9-1.3l3.6,3.6l-4.9,1.3L290.6,432.8z M295.5,437.7l4.9-1.3l3.6,3.6l-4.9,1.3L295.5,437.7z" style="fill:#C8DCFD;"/>
	<rect x="41.7" y="403.4" width="79" height="176.1" style="fill:#D5E4FE;"/>
	<rect x="159.3" y="495.5" width="79" height="83.9" style="fill:#D5E4FE;"/>
	<polygon points="204.8,470 125.8,470 159.3,495.9 238.3,495.9 	" style="fill:#428DFC;"/>
	<polygon points="390.5,532.5 311.5,532.5 345.1,549.4 424.1,549.4 	" style="fill:#428DFC;"/>
	<rect x="182.5" y="508" width="10.2" height="55.8" style="fill:#FFFFFF;"/>
	<rect x="201.3" y="508" width="10.2" height="55.8" style="fill:#FFFFFF;"/>
	<rect x="220.2" y="508" width="10.2" height="55.8" style="fill:#FFFFFF;"/>
	<rect x="486.2" y="512" width="48.8" height="67.5" style="fill:#FFFFFF;"/>
	<rect x="535.1" y="527.6" width="48.8" height="51.9" style="fill:#D5E4FE;"/>
	<polygon points="563.1,511.8 514.3,511.8 535.1,528.4 583.9,528.4 	" style="fill:#428DFC;"/>
	<rect x="555.7" y="535.3" width="4.9" height="16.9" style="fill:#FFFFFF;"/>
	<rect x="564.8" y="535.3" width="4.9" height="16.9" style="fill:#FFFFFF;"/>
	<rect x="574" y="535.3" width="4.9" height="16.9" style="fill:#FFFFFF;"/>
	<rect x="41.7" y="419.1" width="42.8" height="7.7" style="fill:#FFFFFF;"/>
	<rect x="41.7" y="433.4" width="42.8" height="7.7" style="fill:#FFFFFF;"/>
	<rect x="41.7" y="447.7" width="42.8" height="7.7" style="fill:#FFFFFF;"/>
	<rect x="41.7" y="461.9" width="42.8" height="7.7" style="fill:#FFFFFF;"/>
	<rect x="41.7" y="476.2" width="42.8" height="7.7" style="fill:#FFFFFF;"/>
	<rect x="41.7" y="490.4" width="42.8" height="7.7" style="fill:#FFFFFF;"/>
	<rect x="41.7" y="504.7" width="42.8" height="7.7" style="fill:#FFFFFF;"/>
	<rect x="41.7" y="519" width="42.8" height="7.7" style="fill:#FFFFFF;"/>
	<rect x="41.7" y="533.2" width="42.8" height="7.7" style="fill:#FFFFFF;"/>
	<rect x="41.7" y="547.5" width="42.8" height="7.7" style="fill:#FFFFFF;"/>
	<polygon points="57,409.3 86.7,567.2 110.8,567.2 110.8,410.4 	" style="fill:#D5E4FE;"/>
	<path d="M322.6,528.8h-49.4v50.6h13.2v-27c0-6.3,5.2-11.5,11.5-11.5s11.5,5.2,11.5,11.5v27h13.2
		C322.6,579.4,322.6,528.8,322.6,528.8z" style="fill:#D5E4FE;"/>
	<path d="M298,540.9c-6.3,0-11.5,5.2-11.5,11.5v27h23v-27C309.5,546.1,304.3,540.9,298,540.9z" style="fill:#FFFFFF;"/>
	<polygon points="728.1,487.6 640.7,487.6 621.6,471.6 747.2,471.6 	" style="fill:#E6EFFE;"/>
	<polygon points="238.3,497.9 159.3,579.4 238.3,579.4 	" style="fill:#D5E4FE;"/>
	<polygon points="321.7,532.1 275.6,579.4 321.7,579.4 	" style="fill:#D5E4FE;"/>
	<polygon points="315.8,488.2 284,520.9 315.8,520.9 	" style="fill:#D5E4FE;"/>
	<polygon points="308.5,454.6 288.1,475.6 308.5,475.6 	" style="fill:#D5E4FE;"/>
	<rect x="295.3" y="382.2" width="3.3" height="36.6" style="fill:#BDD5FD;"/>
	<path d="M428.4,555.4l-7.6-6.9l10.4-2.4l0.9,0.8v-4.1l-7.5-6.9l7.5-1.8v-3l-10.1,2.4l-7.6-6.9l10.4-2.4l7.3,6.7v-4.1
		l-3.7-3.4l3.7-0.9v-3l-6.3,1.5l-7.6-6.9l10.4-2.4l3.5,3.2v-7.1l-2.6,0.6l-7.6-6.9l10.1-2.4v-4.4l-6.4-5.8l6.4-1.5v-3l-9,2.1
		l-7.6-6.9l10.4-2.4l6.2,5.7v-4.1l-2.6-2.4l2.6-0.6v-3l-5.2,1.2l-7.6-6.9l10.4-2.4l2.4,2.2v-5.8l-1.4,0.3L423,454l9-2.1v-5.7h-4.5
		l3.2,3l-10.4,2.4l-3.1-2.8l-2.3,2.1l1.7,1.6l-22.6,5.3v3l13.6-3.2l-1.4,1.3l6.7,6.2l-10.4,2.4l-2.9-2.6l-2.3,2.1l1.5,1.4l-4.9,1.1
		v3l7.5-1.8l7.6,6.9l-10.4,2.4l-4.7-4.3v4.1l1.1,1l-1.1,0.3v3l3.7-0.9l7.6,6.9l-10.4,2.4l-0.9-0.9v4.1l7.5,6.9l-7.5,1.8v3l10.2-2.4
		l7.6,6.9l-10.4,2.4l-7.4-6.7v4.1l3.8,3.4l-3.8,0.9v3l6.4-1.5l7.6,6.9l-10.4,2.4l-3.6-3.3v7.1l2.6-0.6l7.6,6.9l-10.2,2.4v4.4
		l6.4,5.9l-6.4,1.5v3l9-2.1l7.6,6.9l-10.4,2.4l-6.2-5.7v4.1l2.6,2.4l-2.6,0.6v3l5.3-1.2l7.6,6.9l-10.4,2.4l-2.5-2.3v5.8l1.5-0.3
		l1.8,1.7h4.5l-2.7-2.5l10.4-2.4l3.1,2.8l2.3-2.1l-1.7-1.6l18.8-4.4v-3l-9.7,2.3l1.4-1.3L417,561l10.4-2.4l2.9,2.6l1.8-1.6v-0.9
		l-1.1-1l1.1-0.2v-3L428.4,555.4z M428.5,543.6l-10.4,2.4l-7.6-6.9l10.4-2.4L428.5,543.6z M429.7,496.4l-10.4,2.4l-7.6-6.9l10.4-2.4
		L429.7,496.4z M409.1,457.3l10.4-2.4l7.6,6.9l-10.4,2.4L409.1,457.3z M405.3,469.9l10.4-2.4l7.6,6.9l-10.4,2.4L405.3,469.9z
		 M401.5,482.5l10.4-2.4l7.6,6.9l-10.4,2.4L401.5,482.5z M397.7,495.1l10.4-2.4l7.6,6.9l-10.4,2.4L397.7,495.1z M407.9,504.5
		l10.4-2.4l7.6,6.9l-10.4,2.4L407.9,504.5z M404.2,517.1l10.4-2.4l7.6,6.9l-10.4,2.4L404.2,517.1z M400.4,529.7l10.4-2.4l7.6,6.9
		l-10.4,2.4L400.4,529.7z M396.6,542.4l10.4-2.4l7.6,6.9l-10.4,2.4L396.6,542.4z M421,568.8l-10.4,2.4l-7.6-6.9l10.4-2.4L421,568.8z
		 M414.4,558.6l-7.6-6.9l10.4-2.4l7.6,6.9L414.4,558.6z" style="fill:#C8DCFD;"/>
	<rect x="591.3" y="436.3" width="64.2" height="143.1" style="fill:#D5E4FE;"/>
	<rect x="620.7" y="449.1" width="34.8" height="6.2" style="fill:#FFFFFF;"/>
	<rect x="620.7" y="460.7" width="34.8" height="6.2" style="fill:#FFFFFF;"/>
	<rect x="620.7" y="472.3" width="34.8" height="6.2" style="fill:#FFFFFF;"/>
	<rect x="620.7" y="483.9" width="34.8" height="6.2" style="fill:#FFFFFF;"/>
	<rect x="620.7" y="495.5" width="34.8" height="6.2" style="fill:#FFFFFF;"/>
	<rect x="620.7" y="507.1" width="34.8" height="6.2" style="fill:#FFFFFF;"/>
	<rect x="620.7" y="518.7" width="34.8" height="6.2" style="fill:#FFFFFF;"/>
	<rect x="620.7" y="530.3" width="34.8" height="6.2" style="fill:#FFFFFF;"/>
	<rect x="620.7" y="541.9" width="34.8" height="6.2" style="fill:#FFFFFF;"/>
	<rect x="620.7" y="553.4" width="34.8" height="6.2" style="fill:#FFFFFF;"/>
	<polygon points="643,441.1 618.9,569.5 599.3,569.5 599.3,442 	" style="fill:#D5E4FE;"/>
	<path d="M513.3,540.6c-6.3,0-11.5,5.2-11.5,11.5v27h23v-27C524.8,545.8,519.6,540.6,513.3,540.6z" style="fill:#89B3F4;"/>
	<rect x="445.1" y="453.8" width="64.7" height="125.6" style="fill:#BDD5FD;"/>
	<circle cx="455.8" cy="469.5" r="8.5" style="fill:#FFFFFF;"/>
	<circle cx="478.2" cy="469.5" r="8.5" style="fill:#FFFFFF;"/>
	
		<ellipse transform="matrix(0.1602 -0.9871 0.9871 0.1602 -43.0014 888.3792)" cx="500.6" cy="469.5" rx="8.5" ry="8.5" style="fill:#FFFFFF;"/>
	<rect x="461.3" y="486" width="4.4" height="25.6" style="fill:#FFFFFF;"/>
	<rect x="470.8" y="486" width="4.4" height="25.6" style="fill:#FFFFFF;"/>
	<rect x="480.3" y="486" width="4.4" height="25.6" style="fill:#FFFFFF;"/>
	<rect x="489.8" y="486" width="4.4" height="25.6" style="fill:#FFFFFF;"/>
	<rect x="499.3" y="486" width="4.4" height="25.6" style="fill:#FFFFFF;"/>
	<rect x="450.3" y="536.5" width="4.4" height="25.6" style="fill:#FFFFFF;"/>
	<rect x="459.8" y="536.5" width="4.4" height="25.6" style="fill:#FFFFFF;"/>
	<rect x="469.3" y="536.5" width="4.4" height="25.6" style="fill:#FFFFFF;"/>
	<rect x="478.8" y="536.5" width="4.4" height="25.6" style="fill:#FFFFFF;"/>
	<rect x="488.3" y="536.5" width="4.4" height="25.6" style="fill:#FFFFFF;"/>
	<polygon points="509.8,482.4 445.1,534.8 509.8,534.8 	" style="fill:#BDD5FD;"/>
	<polygon points="445.1,526.2 509.8,578.7 445.1,578.7 	" style="fill:#BDD5FD;"/>
	<polygon points="312.5,475.4 281.6,475.4 273,482.7 321.2,482.7 	" style="fill:#A1C3FC;"/>
	<polygon points="316.6,520.4 277.5,520.4 266.6,529.6 327.6,529.6 	" style="fill:#A1C3FC;"/>
</g>
<path d="M424.1,416.1c-5.2-39.6-9.2-81.8-13.1-122.6l-1.3-13.8l6.7-0.6l1.3,13.8c3.9,40.7,7.9,82.9,13.1,122.4
	L424.1,416.1z" style="fill:#0A134F;"/>
<linearGradient id="SVGID_1_" gradientUnits="userSpaceOnUse" x1="-55.0297" y1="572.1176" x2="5.5527" y2="572.1176" gradientTransform="matrix(1.435 0 0 1.434 425.898 -345.756)">
	<stop offset="0" style="stop-color:#FFB02A"/>
	<stop offset="1" style="stop-color:#FF9300"/>
</linearGradient>
<path d="M431.3,415.1c1.4,26.5,2.5,93.6,2.5,118.9c-15.7-4-75.6,2.8-85.9-1.1c0-55-2.5-69.1,0.2-111
	C371.3,422.8,409.2,419.8,431.3,415.1z" style="fill:url(#SVGID_1_);"/>
<path d="M537.7,391.5c3,5,6,10,9,15c1.5,2.5,2.9,5.9,0.9,7.9c-3-1.8-10.4-5.5-11.1-1.6c-0.2,1.2,6.1,4.5,9.9,4.9
	c-2.3-0.7-4.6-1.4-6.9-2.1c-1.4,0.8-1.1,3.1,0.2,4.1c1.3,1,3,1.1,4.6,1.2c1.6,0.1,3.4,0.5,4.4,1.8c1.7-4.1,3.5-8.1,5.2-12.2
	C533,385.4,558.6,416.7,537.7,391.5z" style="fill:#FFA29D;"/>
<path d="M398,296.3c-7.9-3.3-24.7-5.7-32.6-9c-3.6-1.5-5.9-9.9-5.9-11.4c0-6.1,3.3-14.1,0.6-17.3
	c-3.8-4.4-8.4,10.1-9.5,16.2c-3.1-2-7.2-6.1-10.5-7.6c0.1,1.9-0.3,3.9-0.6,5.8c-0.9,4.8-1.8,9.6-2.7,14.4c-0.5,2.5-0.7,5.6,1.5,7
	c2.5,2.8,15.9,5.4,20.4,6.6c6.4,1.7,43.6,26.6,44.1,25.6C407,317.5,394.9,305.8,398,296.3z" style="fill:#FFA29D;"/>
<linearGradient id="SVGID_2_" gradientUnits="userSpaceOnUse" x1="-96.3048" y1="540.8654" x2="-164.5054" y2="537.4025" gradientTransform="matrix(1.3998 0.3156 -0.3158 1.3989 753.1378 -397.4813)">
	<stop offset="0" style="stop-color:#92C4FE"/>
	<stop offset="1" style="stop-color:#5BABF2"/>
</linearGradient>
<path d="M463.4,308.6c1.4,5.2,2.8,10.8,0.9,15.9c-0.8,2-2.1,3.9-3.7,5.3c-5.1,4.3-12.5,4-19.2,3.5
	c-26.9-2.3-52.2-11.1-78.2-3.4c4.4-15.4,6.4-27.3,9.3-43C384.8,289.1,434.8,300.9,463.4,308.6z" style="fill:url(#SVGID_2_);"/>
<path d="M550.2,397.7c-11.2-10.4-23.6-35.5-28.4-51.5c-2.7,0.3-7.4,13.3-6,15.7c5,8.3,12.9,22.9,14.5,30.6
	c2.3,11.1,7.6,13.2,13.1,22.4c1.7,1.6,2.7-3.3-0.2-9.2c-2.4-4.7-4.6-6.1-5.2-9.6c4.4,5.2,10.6,10.6,11.3,14.5
	c0.3,1.6-0.7,3.9-1.6,8.8c-1.3,0-9.1-4.7-6,1.5c2,3.9,7.2,3,9.6,3.4c1.2,0.2,4.2-11.9,4.6-13.1C557.3,406.8,553.2,400.5,550.2,397.7
	z" style="fill:#FFBFB7;"/>
<path d="M342.8,146.6c-2.4,0-4.7-0.8-6.6-2.3c-0.4-0.3-0.4-0.8-0.1-1.2c0.3-0.4,0.8-0.4,1.2-0.1
	c2.6,2.1,6.6,2.5,9.6,0.9c0.4-0.2,0.9-0.1,1.2,0.3c0.2,0.4,0.1,0.9-0.3,1.1C346.2,146.2,344.5,146.6,342.8,146.6z" style="fill:#1B236D;"/>
<path d="M346.4,180.3c-0.1,0.6-1-0.3-0.5-0.6c0.5-0.3,1.2,0.2,1.6,0.7c10.7,11.9,20.1,22.9,26.6,38.9
	c5-6.3,13-11.4,20.3-14.9c-3.4-2-6.6-4.5-9.5-7.2c-9.1-8.7-15.3-20.5-16.9-33c-3.9,3-7.5,6.5-10.5,10.5c-3.5,1.6-7.1,3.2-10.6,4.8
	C347.7,188.6,347.5,171,346.4,180.3z" style="fill:#FFA29D;"/>
<path d="M365.4,215.4c3.1,0.6,6.4,0.4,9.4-0.5c5.9-1.9,10.4-6.4,14.7-10.8c5.3,23.7,11.6,63.3,3.8,83.8
	c-4.8,0.9-19.9-53.7-27.9-72.3C365.9,220.3,364.9,210.8,365.4,215.4z" style="fill:#EFEFEF;"/>
<linearGradient id="SVGID_3_" gradientUnits="userSpaceOnUse" x1="-76.2243" y1="745.7271" x2="-8.3397" y2="745.7271" gradientTransform="matrix(1.435 0 0 1.434 425.898 -345.756)">
	<stop offset="0" style="stop-color:#92C4FE"/>
	<stop offset="1" style="stop-color:#5BABF2"/>
</linearGradient>
<path d="M323.5,726.7c11.3-11.5,26.6-19,42.6-20.8c6-0.7,12.1-0.6,18.1-0.6c9.6,0.1,19.1,0.2,28.7,0.3
	c0.3,11.5,2.4,35.4-0.7,35.4c-30.4,0.3-60.4,0.6-93.7,0.9C313.4,741.9,319.3,731,323.5,726.7z" style="fill:url(#SVGID_3_);"/>
<linearGradient id="SVGID_4_" gradientUnits="userSpaceOnUse" x1="202.5315" y1="684.5225" x2="270.4124" y2="684.5225" gradientTransform="matrix(1.3826 -0.384 0.3843 1.3817 -35.4937 -137.4837)">
	<stop offset="0" style="stop-color:#92C4FE"/>
	<stop offset="1" style="stop-color:#5BABF2"/>
</linearGradient>
<path d="M515.2,731.6c7.8-14.1,20.5-25.4,35.5-31.5c5.6-2.3,11.5-3.8,17.3-5.4c9.2-2.5,18.5-4.9,27.7-7.4
	c3.3,11,11.8,33.5,8.8,34.3c-29.2,8.4-58.1,16.7-90.1,25.9C509.4,749,512.3,736.9,515.2,731.6z" style="fill:url(#SVGID_4_);"/>
<path d="M596.7,691.6c3.2-16.2,0.3-20.3-7.2-35c-4-7.7-16.3-16.4-18.1-24.9c-1.4-6.6-7.3-30.6-9.7-37
	c-6.4-17.2-20.9-33.1-26.8-38.1c-15.2-12.7-13.4-19-12.6-38.8c1.4-34.8-11.4-65.3-13.7-100c-1.1-16.7-2.8-33.9-11.2-48.3
	c-8.9-15.2-24.7-26.5-29.6-43.4c-7.4,4.6-2.5,4.7-9.9,9.2c-2.5,1.5-5.1,3.2-6.2,5.9c-0.8,2-0.6,4.3-0.4,6.5
	c6.4,63.2,12.8,126.4,19.3,189.7c1,9.9,2,19.9,4.9,29.5c4,13.6,11.5,25.8,18.5,38.2c18.8,33.5,34.9,63.8,46.2,100.5
	C552.6,701.7,572.1,697.7,596.7,691.6z" style="fill:#0A134F;"/>
<linearGradient id="SVGID_5_" gradientUnits="userSpaceOnUse" x1="-14.0262" y1="624.7662" x2="85.8512" y2="452.5905" gradientTransform="matrix(1.435 0 0 1.434 425.898 -345.756)">
	<stop offset="0" style="stop-color:#1B236D"/>
	<stop offset="1" style="stop-color:#0A134F"/>
</linearGradient>
<path d="M424.8,345.5c0,0,23.8,45.6,18.5,59.9c-14.1,38.6-22.7,90.7-34.4,130c-18.3,61.6-25.7,119.2-59.4,174
	c23.7-1.6,40.5-0.9,63.6-0.8c4.1-8.9,18.9-29.2,22.5-39.5c4.8-13.6-1.8-29.3,3-42.9c4.3-12.3,17.1-20.1,21.5-32.4
	c2.9-8,1.9-16.8,1.7-25.4c-0.7-30.8,33.8-123.3,41.9-137.8c15-27,10.9-43.2,0-59.5c-10.9-16.3-19.3-22.5-34.1-48.7
	C458.4,330.9,424.8,345.5,424.8,345.5z" style="fill:url(#SVGID_5_);"/>
<linearGradient id="SVGID_6_" gradientUnits="userSpaceOnUse" x1="-48.2574" y1="444.8453" x2="49.9535" y2="444.8453" gradientTransform="matrix(1.435 0 0 1.434 425.898 -345.756)">
	<stop offset="0" style="stop-color:#92C4FE"/>
	<stop offset="1" style="stop-color:#5BABF2"/>
</linearGradient>
<path d="M440.4,237c-24.6-32-21.3-39.1-32.5-41.1c-4.1-0.7-14-0.6-20.7,2.1c-2.2,0.9,6,77,3.8,78.3
	c-2.9,1.6-22-68.1-22-68.1s-12,11-12.3,17.2c10.7,33.2,14.3,40.5,26.6,70.9c19.3,47.8,9.1,29.7,36.7,92.5c25-7.7,72.1-46.5,77.6-51
	C494.3,339,457,258.6,440.4,237z" style="fill:url(#SVGID_6_);"/>
<path d="M408.8,172.5c0,0-0.1,0-0.1,0c-0.5-0.1-0.8-0.5-0.7-0.9c1.5-12.1-1.7-24.8-8.8-34.7c-2.2-3.1-4.5-5.4-6.9-7.1
	c-4.7-3.3-10.8-4.5-16.4-3.4c-0.5,0.1-0.9-0.2-1-0.7c-0.1-0.5,0.2-0.9,0.7-1c6-1.3,12.7,0.1,17.7,3.7c2.6,1.8,4.9,4.2,7.3,7.5
	c7.4,10.3,10.7,23.4,9.1,35.9C409.5,172.2,409.2,172.5,408.8,172.5z" style="fill:#1B236D;"/>
<path d="M421,150.8c-4.7,0-9.6-4.9-11.2-6.6c-1.6-1.8-3-3.8-4.3-5.7c-1.1-1.6-2.2-3.2-3.4-4.6
	c-6.6-7.8-17.4-11.1-25.8-7.9c-0.4,0.2-0.9-0.1-1.1-0.5c-0.2-0.4,0.1-0.9,0.5-1.1c9-3.4,20.7,0.1,27.7,8.4c1.3,1.5,2.4,3.1,3.5,4.7
	c1.3,1.9,2.6,3.8,4.2,5.5c3.2,3.5,7.9,6.9,11.3,5.8c0.4-0.1,0.9,0.1,1.1,0.6c0.1,0.4-0.1,0.9-0.6,1.1
	C422.3,150.7,421.7,150.8,421,150.8z" style="fill:#1B236D;"/>
<linearGradient id="SVGID_7_" gradientUnits="userSpaceOnUse" x1="-64.4083" y1="349.0412" x2="-26.8352" y2="349.0412" gradientTransform="matrix(1.435 0 0 1.434 425.898 -345.756)">
	<stop offset="0" style="stop-color:#FFBFB7"/>
	<stop offset="1" style="stop-color:#FFA29D"/>
</linearGradient>
<path d="M384.9,137.4c-4.2-8.2-10.8-13.9-20.5-12.3c-9.1,1.5-13.9,3.9-17.9,12.1c-0.4,0.9-1.8,5.6-2.3,6.5
	c-4.5,3.8-2.5,2.7-8.1,4.8c-3.1,1.2-0.2,3.4,1,6.5c-0.1,0.2-2.9,9.2-3.5,12.7c-0.8,5.8,0.1,14.9,5.9,15.8c6.3,1,15.3,1.8,18.8,0.5
	c6.1-2.2,12-5,16.4-9.7c4.7-4.9,8.8-10.6,11-17C388,150.8,388.1,143.5,384.9,137.4z" style="fill:url(#SVGID_7_);"/>
<linearGradient id="SVGID_8_" gradientUnits="userSpaceOnUse" x1="-57.3753" y1="352.6223" x2="-15.306" y2="352.6223" gradientTransform="matrix(1.435 0 0 1.434 425.898 -345.756)">
	<stop offset="0" style="stop-color:#1B236D"/>
	<stop offset="1" style="stop-color:#0A134F"/>
</linearGradient>
<path d="M397.6,181.6c2.4-2.2,4.6-4.7,5.6-7.8c1.1-3.3,0.7-6.9,0.2-10.4c-1.2-9-3.1-17.9-7.4-25.8
	c-7.5-13.9-17.5-12-17.5-12c-14.4-12.7-34,3.5-34.7,5.4c-0.9,2.7,0.9,5.5,2.9,7.5c4.3,4.6,9.8,8.2,15.8,10.2
	c-5.3,16.6-10.6,33.3-15.8,49.9C365,200.7,384.1,194.3,397.6,181.6z" style="fill:url(#SVGID_8_);"/>
<path d="M422.1,149" style="fill:none;stroke:#1B236D;stroke-width:1.435;stroke-linecap:round;stroke-miterlimit:14.35;"/>
<path d="M352.5,150.8c-2.4,0-4.7-0.8-6.6-2.3c-0.4-0.3-0.4-0.8-0.1-1.2c0.3-0.4,0.8-0.4,1.2-0.1
	c2.6,2.1,6.6,2.5,9.6,0.9c0.4-0.2,0.9-0.1,1.2,0.3c0.2,0.4,0.1,0.9-0.3,1.1C355.9,150.4,354.2,150.8,352.5,150.8z" style="fill:#1B236D;"/>
<path d="M355.5,422.5l-6.8-0.2c0.4-14.7-0.9-41.8-2.3-68c-1.7-34.5-3.4-67-1.5-77.4c2-11.1,12.3-67,21.6-72.3l3.4,5.9
	l0.1,0c-3.6,2.8-11.8,30.6-18.4,67.7c-1.7,9.7,0,43.3,1.6,75.9C354.6,380.4,356,407.6,355.5,422.5z" style="fill:#0A134F;"/>
<linearGradient id="SVGID_9_" gradientUnits="userSpaceOnUse" x1="43.8471" y1="492.4196" x2="16.1117" y2="298.2832" gradientTransform="matrix(1.435 0 0 1.434 425.898 -345.756)">
	<stop offset="1.040000e-02" style="stop-color:#92C4FE"/>
	<stop offset="1" style="stop-color:#5BABF2"/>
</linearGradient>
<path d="M409.9,222.8c-2.1-3.5-12.1-27-8-27.7c10.5-2,12.1-0.1,18.1,4.4c6,4.5,10.6,11,13.6,17.9
	c15.6,35.4,41,65.4,66,94.9c16.2,19,32.8,38.4,54.3,51.1c-13.1,11.6-28.2,20.8-44.5,27.1c-25.3-47.8-59.4-90.4-85.1-138
	C417.3,239.6,418,236.2,409.9,222.8z" style="fill:url(#SVGID_9_);"/>
<linearGradient id="SVGID_10_" gradientUnits="userSpaceOnUse" x1="-51.0136" y1="440.04" x2="-74.0344" y2="440.6635" gradientTransform="matrix(1.435 0 0 1.434 425.898 -345.756)">
	<stop offset="0" style="stop-color:#FFBFB7"/>
	<stop offset="1" style="stop-color:#FFA29D"/>
</linearGradient>
<path d="M354.9,289.8c-2.6-2-5.5-3.6-8.6-4.9c-1.4-2.3-3.8-4.3-5.1-6.7c-1.4-2.5-1.8-5.6-3.9-7.4
	c0.5,2.3,0.4,4.7-0.3,7c-0.4,1.2-1,2.4-0.8,3.7c0.1,0.7,0.4,1.4,0.3,2.1c-0.1,1.1-1.1,1.9-1.2,3c-0.1,0.7,0.2,1.5,0,2.2
	c-0.2,0.6-0.8,1-1.2,1.6c-0.6,0.9-0.5,2,0,3c0,0.3,0.1,0.6,0.2,0.9c0.4,0.9,1.3,1.5,2.2,2c1.2,0.7,2.3,1.5,3.5,2.2
	c1,0.6,2,1.3,3.2,1.6s2.4,0.4,3.5-0.1c0.5-0.2,1-0.7,1-1.2c0-0.6-0.5-1.2-1-1.5c-0.2-0.1-0.4-0.2-0.6-0.4c0.3,0.1,0.6,0.3,0.9,0.4
	c1.3,0.4,2.9,0.5,4.1-0.1c0.6-0.3,1.2-0.8,1.2-1.4c0.1-0.8-0.6-1.4-1.2-1.8c-0.1-0.1-0.2-0.1-0.2-0.2c1.3,0.3,2.8,0.3,4-0.3
	c0.7-0.3,1.3-0.9,1.3-1.6C356.3,291,355.6,290.3,354.9,289.8z" style="fill:url(#SVGID_10_);"/>
<path d="M343.3,276.3c1,1.1,2.5,1.6,3.9,2c3.7,1.3,7.2,3.2,10.3,5.6c1,0.8,2,1.8,1.8,3.1c-0.2,1-1.3,1.7-2.3,1.7
	c-1,0.1-2-0.3-3-0.7c-3.5-1.4-9.7-2.9-13.2-4.3c2.1,2.8-2.9-4.9-5.3-9.6c-2.2-4.2,0.8-8.9,4.8-6.7c0.3,0.8,0.6,2.8,0.8,3.9
	C341.3,272.7,342.4,275.2,343.3,276.3z" style="fill:#FFBFB7;"/>
<path d="M377.6,481.1c-2.8,0-5.6-0.2-8.4-0.6c-7.7-1.3-14.1-4.7-18-9.7c-5.6-7.2-5.8-17.1-5.5-23.8
	c0.2-3.2,0.2-6.2,0.3-9.3c0.1-4.6,0.2-9.4,0.7-15c0-0.5,0.5-0.8,0.9-0.8c0.5,0,0.8,0.4,0.8,0.9c-0.5,5.6-0.6,10.3-0.6,14.9
	c-0.1,3-0.1,6.1-0.3,9.3c-0.5,10.3,1.1,17.6,5.1,22.7c3.6,4.7,9.6,7.9,16.9,9.1c6.6,1.1,13.4,0.5,20-0.1l20.4-1.8
	c0.5,0,0.9,0.3,0.9,0.8c0,0.5-0.3,0.9-0.8,0.9l-20.5,1.8C385.7,480.7,381.6,481.1,377.6,481.1z" style="fill:#FF4945;"/>
<rect x="388.6" y="463.7" width="10.1" height="10.1" style="fill:#FF4945;"/>
<g>
	<circle cx="589.8" cy="222.2" r="6.8" style="fill:#A1C3FC;"/>
</g>
<g>
	<circle cx="598" cy="171.3" r="4.5" style="fill:#A1C3FC;"/>
</g>
<g>
	<circle cx="611.9" cy="205.3" r="3.2" style="fill:#A1C3FC;"/>
</g>
<g>
	<circle cx="586.1" cy="160.4" r="3.2" style="fill:#A1C3FC;"/>
</g>
<g>
	<circle cx="634.9" cy="163.9" r="2.9" style="fill:#A1C3FC;"/>
</g>
<g>
	<circle cx="595.9" cy="139.1" r="2.4" style="fill:#A1C3FC;"/>
</g>
<g>
	<circle cx="633.6" cy="207.4" r="2.6" style="fill:#A1C3FC;"/>
</g>
<g>
	<path d="M335.9,156.1l0.3,0c1.8,0.3,3.5,0.7,5.2,1.2c3.5,1.1,8.8,2.7,22.7,4.6l-2,14.9c-7.3,6.7-17.2,9.8-27,8.6
		l-0.4-0.1c-0.9-2.2-3.3-8.9-2.1-18.2C333.5,160.6,335.1,157.4,335.9,156.1z" style="fill:#90CAF9;"/>
	<path d="M361.4,176.6l1.8-14c-13.4-1.8-18.6-3.4-22.1-4.5c-1.4-0.5-2.8-0.8-4.2-1.1l-1.5-0.2c0.2-0.5,0.5-0.9,0.8-1.3
		c5.8,0.8,6.8,3,28.5,5.9l-2.1,15.9c-3.1,3.2-13.4,10.7-27.7,9c-0.2-0.5-0.4-1-0.6-1.5l1.6,0.2C345.3,185.9,354.5,182.8,361.4,176.6
		z" style="fill:#BBDEFB;"/>
	<path d="M332.7,166.9c6.9,0.9,25.3-1.5,25.3-1.5s-18.8-0.4-24.9-1.2C333,165,332.8,165.9,332.7,166.9z" style="fill:#64B5F6;"/>
	<path d="M332.4,170.4c-0.1,1-0.1,1.9,0,2.8c11.2,1.3,25.1-3,25.1-3S342.3,171.7,332.4,170.4z" style="fill:#64B5F6;"/>
	<path d="M332.6,176.7c0.1,1,0.3,2,0.4,2.9c11.8,1.3,23.3-4.3,23.8-4.6C356.4,175.1,343.4,178.2,332.6,176.7z" style="fill:#64B5F6;"/>
</g>
<linearGradient id="SVGID_11_" gradientUnits="userSpaceOnUse" x1="1337.2018" y1="-94.1628" x2="1929.4731" y2="-94.1628" gradientTransform="matrix(0.2272 0 0 -0.2272 171.4778 124.3831)">
	<stop offset="0" style="stop-color:#A1C3FC"/>
	<stop offset="1" style="stop-color:#78A9EF"/>
</linearGradient>
<ellipse cx="542.5" cy="145.8" rx="67.3" ry="67.1" style="fill:url(#SVGID_11_);"/>
<polygon points="519.6,141.6 495.8,125.1 512.2,101.4 536,117.8 " style="fill:#D0E1FD;"/>
<polygon points="578.8,199.6 569.9,193.4 576.1,184.4 585.1,190.6 " style="fill:#D0E1FD;"/>
<polygon points="529.1,131.5 515.7,141.5 505.7,128.2 519.1,118.2 " style="fill:#FFFFFF;"/>
<path d="M547.2,419.2C547.2,419.2,547.2,419.2,547.2,419.2c-0.2,0-0.3-0.1-0.3-0.3l0.5-37.5c0.1-9.7,0.3-19.8-0.7-29.6
	c-0.4-3.6-0.9-7.2-1.4-10.8c-0.9-6.6-1.9-13.4-1.9-20.2c0-7.2,1.1-14.5,2.2-21.5c1-6.3,2-12.9,2.2-19.4c0.2-6.7-0.5-13.7-1.1-20.4
	c-1.2-12.8-2.5-26,2.3-38.1c0-0.1,0-0.1,0-0.1c-0.2,0-0.6,0-1,0.1c-1,0.1-2.4,0.3-3.2-0.4c-0.4-0.3-0.5-0.6-0.5-0.9
	c0.1-0.7,1.2-1,2.8-1.5c1.6-0.5,3.6-1.1,4.1-2.1c0,0,0,0,0,0c-0.4-0.2-2,0.1-3.2,0.3c-2.7,0.5-5.4,0.9-6-0.2
	c-0.2-0.3-0.2-0.6-0.1-0.9c0.3-0.7,1.5-1,2.8-1.3c0.8-0.2,1.5-0.4,2-0.6c0.2-0.1,0.3,0,0.4,0.1c0.1,0.2,0,0.3-0.1,0.4
	c-0.5,0.3-1.4,0.5-2.2,0.7c-1,0.2-2.2,0.5-2.4,1c0,0.1,0,0.2,0.1,0.3c0.4,0.8,3.4,0.2,5.4-0.1c2.4-0.4,3.5-0.6,3.9-0.1
	c0.1,0.1,0.2,0.4,0,0.7c-0.7,1.2-2.7,1.8-4.5,2.3c-0.9,0.3-2.3,0.7-2.4,1c0,0,0,0.1,0.2,0.3c0.7,0.5,1.8,0.4,2.8,0.2
	c0.8-0.1,1.3-0.2,1.6,0.2c0.2,0.3,0,0.6,0,0.8c-4.7,11.9-3.4,25.1-2.2,37.8c0.6,6.7,1.3,13.7,1.1,20.4c-0.2,6.5-1.2,13.1-2.2,19.5
	c-1.1,7-2.2,14.2-2.2,21.4c0,6.7,0.9,13.5,1.8,20.1c0.5,3.5,1,7.2,1.4,10.8c1,9.9,0.8,20,0.7,29.7l-0.5,37.5
	C547.5,419.1,547.4,419.2,547.2,419.2z" style="fill:#1D72D8;"/>
</svg>