<?xml version="1.0" encoding="UTF-8"?><svg version="1.1" xmlns="http://www.w3.org/2000/svg" xmlns:xlink="http://www.w3.org/1999/xlink" viewBox="0 0 1600 1200" width="1600" height="1200" x="0px" y="0px">
              
              <!-- ITEM 0 -->
<g>
    <defs>
        
        <clipPath id="clip-path-id-viewbox-item-0">
            <rect x="0.0" y="0.0" width="800.0" height="600.0"/>
        </clipPath>
    </defs>
    <g transform="translate(28.0 21.0) rotate(0.0 767.0 575.5) scale(1.9175 1.9183333333333332)">
        <g clip-path="url(#clip-path-id-viewbox-item-0)" transform="translate(-0.0 -0.0)">

<linearGradient id="SVGID_1_-i0" gradientUnits="userSpaceOnUse" x1="0" y1="540.421" x2="504.147" y2="540.421">
	<stop offset="0" style="stop-color:#428DFC"/>
	<stop offset="1" style="stop-color:#1D72D8"/>
</linearGradient>
<path fill="url(#SVGID_1_-i0)" d="M470.199,506.473H0v67.896h470.199c18.671,0,33.948-15.277,33.948-33.948  C504.147,521.75,488.871,506.473,470.199,506.473z"/>
<g>
	<g>
		<path fill="#DAE8FE" d="M685.194,154.493c-3.779,0-6.853-3.074-6.853-6.853s3.074-6.853,6.853-6.853    c3.78,0,6.854,3.074,6.854,6.853C692.048,151.419,688.974,154.493,685.194,154.493z M685.194,141.73    c-3.258,0-5.91,2.651-5.91,5.91s2.652,5.91,5.91,5.91c3.259,0,5.911-2.652,5.911-5.91S688.453,141.73,685.194,141.73z"/>
	</g>
	<g>
		<path fill="#DAE8FE" d="M685.194,158.505c-5.991,0-10.865-4.875-10.865-10.866s4.875-10.866,10.865-10.866    c5.992,0,10.866,4.875,10.866,10.866S691.186,158.505,685.194,158.505z M685.194,137.717c-5.472,0-9.922,4.451-9.922,9.923    s4.451,9.923,9.922,9.923s9.923-4.451,9.923-9.923C695.117,142.168,690.666,137.717,685.194,137.717z"/>
	</g>
	<g>
		<path fill="#DAE8FE" d="M685.194,163.02c-8.48,0-15.38-6.899-15.38-15.38s6.899-15.38,15.38-15.38s15.381,6.899,15.381,15.38    C700.575,156.12,693.675,163.02,685.194,163.02z M685.194,133.202c-7.96,0-14.437,6.477-14.437,14.437    c0,7.96,6.476,14.437,14.437,14.437s14.438-6.477,14.438-14.437C699.632,139.679,693.155,133.202,685.194,133.202z"/>
	</g>
	<g>
		<path fill="#DAE8FE" d="M685.194,168.036c-11.247,0-20.396-9.15-20.396-20.396s9.15-20.396,20.396-20.396    c11.247,0,20.396,9.15,20.396,20.396S696.441,168.036,685.194,168.036z M685.194,128.186c-10.726,0-19.453,8.726-19.453,19.453    s8.727,19.453,19.453,19.453s19.453-8.726,19.453-19.453C704.648,136.912,695.92,128.186,685.194,128.186z"/>
	</g>
	<g>
		<path fill="#DAE8FE" d="M685.194,172.55c-13.735,0-24.91-11.175-24.91-24.911s11.175-24.911,24.91-24.911    c13.736,0,24.911,11.175,24.911,24.911C710.105,161.376,698.931,172.55,685.194,172.55z M685.194,123.673    c-13.216,0-23.967,10.752-23.967,23.968s10.751,23.968,23.967,23.968s23.968-10.752,23.968-23.968S698.41,123.673,685.194,123.673    z"/>
	</g>
</g>
<path id="texture-2_7_-i0" fill="#A1C3FC" d="M589.474,169.151c-0.081-0.336-0.423-0.539-0.759-0.458  c-0.336,0.08-0.539,0.423-0.457,0.759c0.081,0.336,0.423,0.539,0.759,0.458l0,0C589.351,169.829,589.559,169.49,589.474,169.151  L589.474,169.151z M550.609,117.945c0.185-0.303,0.089-0.699-0.214-0.882l0,0c-0.272-0.177-0.636-0.101-0.812,0.17  c-0.015,0.021-0.03,0.047-0.04,0.073c-0.184,0.287-0.103,0.666,0.182,0.853C550.029,118.337,550.426,118.247,550.609,117.945  L550.609,117.945L550.609,117.945z M568.625,145.145c0.265-0.231,0.318-0.623,0.123-0.915c-0.215-0.286-0.626-0.342-0.915-0.123  c-0.286,0.215-0.342,0.626-0.123,0.915C567.943,145.285,568.332,145.339,568.625,145.145z M648.456,119.98  c0.549-0.373,0.7-1.116,0.338-1.674c-0.33-0.55-1.04-0.729-1.588-0.403c-0.02,0.012-0.038,0.021-0.054,0.035  c-0.549,0.373-0.7,1.116-0.338,1.674C647.165,120.165,647.902,120.332,648.456,119.98L648.456,119.98z M624.088,135.836  c0.553-0.376,0.692-1.127,0.313-1.677c-0.369-0.541-1.102-0.69-1.651-0.333c-0.555,0.352-0.72,1.085-0.368,1.641l0,0  C622.773,136.016,623.514,136.175,624.088,135.836z M599.663,151.695c0.553-0.355,0.714-1.084,0.359-1.636  c-0.008-0.01-0.016-0.022-0.023-0.033c-0.33-0.55-1.04-0.728-1.588-0.403c-0.02,0.012-0.038,0.021-0.054,0.035  c-0.548,0.385-0.708,1.127-0.369,1.706C598.362,151.906,599.106,152.056,599.663,151.695z M659.067,181.259  c-0.141-0.645-0.775-1.052-1.423-0.909c-0.644,0.14-1.051,0.776-0.909,1.423c0.139,0.632,0.755,1.037,1.39,0.917  C658.772,182.546,659.189,181.911,659.067,181.259L659.067,181.259z M630.452,186.579c-0.141-0.645-0.775-1.052-1.423-0.909  c-0.644,0.14-1.051,0.776-0.909,1.423c0.139,0.632,0.755,1.037,1.39,0.917C630.154,187.869,630.575,187.232,630.452,186.579  L630.452,186.579z M598.976,88.295c0.364-0.555,0.219-1.3-0.336-1.674c-0.532-0.373-1.264-0.24-1.636,0.292  c-0.003,0.003-0.005,0.007-0.008,0.009c-0.393,0.502-0.304,1.226,0.198,1.619c0.024,0.018,0.048,0.036,0.075,0.058  C597.834,88.954,598.572,88.826,598.976,88.295z M582.482,112.291c0.357-0.561,0.225-1.301-0.302-1.703  c-0.555-0.364-1.302-0.215-1.674,0.336c-0.372,0.544-0.233,1.29,0.311,1.661c0.007,0.005,0.014,0.01,0.017,0.013  c0.532,0.373,1.264,0.24,1.634-0.289C582.477,112.297,582.48,112.295,582.482,112.291z M566.019,136.253  c0.373-0.517,0.262-1.236-0.255-1.608c-0.014-0.01-0.03-0.023-0.047-0.03c-0.529-0.393-1.278-0.277-1.67,0.252  c-0.013,0.017-0.024,0.031-0.036,0.048c-0.373,0.554-0.227,1.305,0.323,1.676c0.554,0.373,1.305,0.227,1.676-0.323  C566.014,136.26,566.017,136.256,566.019,136.253z M663.537,209.445c-0.055-0.586-0.569-1.02-1.156-0.977  c-0.586,0.049-1.024,0.566-0.977,1.156c0.046,0.589,0.566,1.024,1.156,0.977l0,0C663.144,210.544,663.579,210.031,663.537,209.445z   M612.706,113.33c0.37-0.477,0.304-1.156-0.152-1.552c-0.437-0.372-1.09-0.319-1.462,0.117c-0.01,0.014-0.018,0.024-0.028,0.038  c-0.39,0.445-0.342,1.121,0.105,1.506c0.007,0.005,0.01,0.008,0.017,0.013C611.642,113.812,612.305,113.762,612.706,113.33  L612.706,113.33z M596.031,133.184c0.37-0.455,0.3-1.121-0.15-1.492c-0.437-0.372-1.09-0.319-1.462,0.117  c-0.01,0.014-0.018,0.024-0.028,0.038c-0.389,0.445-0.342,1.121,0.102,1.51c0.007,0.005,0.01,0.008,0.017,0.013  C594.983,133.726,595.656,133.645,596.031,133.184L596.031,133.184z M579.33,153.131c0.39-0.445,0.342-1.121-0.102-1.51  c-0.007-0.005-0.009-0.008-0.017-0.013c-0.413-0.375-1.053-0.34-1.429,0.073c-0.024,0.025-0.045,0.053-0.065,0.08  c-0.39,0.445-0.342,1.121,0.102,1.51c0.007,0.005,0.01,0.008,0.017,0.013C578.295,153.634,578.952,153.569,579.33,153.131  L579.33,153.131z M636.808,164.919c0.515-0.291,0.706-0.939,0.426-1.462c-0.271-0.521-0.908-0.726-1.429-0.456  c-0.52,0.282-0.737,0.922-0.488,1.459C635.604,164.994,636.266,165.195,636.808,164.919L636.808,164.919z M613.752,176.91  c0.513-0.245,0.734-0.859,0.489-1.372c-0.009-0.017-0.02-0.037-0.026-0.058c-0.271-0.522-0.908-0.726-1.429-0.456  c-0.52,0.282-0.737,0.922-0.488,1.459C612.581,176.999,613.228,177.19,613.752,176.91L613.752,176.91z M561.651,99.815  c0.18-0.533-0.104-1.107-0.635-1.29c-0.023-0.007-0.042-0.016-0.061-0.019c-0.555-0.192-1.167,0.104-1.36,0.662  c-0.004,0.012-0.008,0.025-0.01,0.035c-0.153,0.569,0.167,1.159,0.73,1.342c0.554,0.18,1.147-0.128,1.326-0.682  C561.643,99.847,561.643,99.831,561.651,99.815L561.651,99.815z M553.856,124.611c0.174-0.569-0.132-1.178-0.698-1.37  c-0.576-0.165-1.182,0.167-1.346,0.744c-0.159,0.548,0.138,1.127,0.675,1.321c0.548,0.196,1.155-0.09,1.351-0.638  C553.847,124.653,553.854,124.631,553.856,124.611L553.856,124.611z M685.864,193.252c0.59-0.348,0.808-1.094,0.49-1.705  c-0.322-0.603-1.068-0.836-1.672-0.52c-0.598,0.342-0.816,1.099-0.49,1.705C684.513,193.335,685.259,193.568,685.864,193.252  L685.864,193.252z M659.398,207.37c0.606-0.32,0.836-1.068,0.52-1.672s-1.068-0.836-1.672-0.52c-0.606,0.32-0.836,1.068-0.52,1.672  C658.045,207.456,658.794,207.686,659.398,207.37L659.398,207.37z M588.876,112.421c0.182-0.671-0.19-1.366-0.852-1.582  c-0.668-0.179-1.355,0.22-1.532,0.889c-0.173,0.645,0.194,1.31,0.828,1.513C587.974,113.424,588.659,113.065,588.876,112.421  L588.876,112.421z M580.166,141.112c0.184-0.654-0.174-1.337-0.819-1.553c-0.655-0.203-1.35,0.163-1.553,0.819  c-0.203,0.655,0.163,1.35,0.819,1.553C579.265,142.121,579.956,141.756,580.166,141.112L580.166,141.112z M638.097,155.423  c0.406-0.545,0.324-1.312-0.179-1.767c-0.541-0.412-1.312-0.319-1.737,0.211c-0.439,0.51-0.382,1.281,0.132,1.72  c0.007,0.005,0.014,0.01,0.021,0.015C636.867,156.043,637.655,155.962,638.097,155.423  C638.095,155.426,638.097,155.423,638.097,155.423L638.097,155.423z M619.047,178.622c0.438-0.538,0.356-1.326-0.175-1.764  c0,0,0,0-0.004-0.003c-0.518-0.422-1.284-0.341-1.702,0.178l0,0c-0.433,0.525-0.36,1.301,0.162,1.732  C617.84,179.201,618.609,179.132,619.047,178.622L619.047,178.622z M656.741,164.119c0.437-0.517,0.371-1.294-0.15-1.733  c-0.521-0.44-1.294-0.371-1.734,0.149c-0.423,0.506-0.375,1.258,0.114,1.701C655.497,164.692,656.286,164.639,656.741,164.119  L656.741,164.119z M636.842,186.406c0.452-0.521,0.399-1.31-0.121-1.765c-0.509-0.433-1.273-0.391-1.736,0.088  c-0.447,0.531-0.407,1.315,0.088,1.796C635.603,186.964,636.379,186.907,636.842,186.406L636.842,186.406z M596.898,146.183  c0.211-0.654-0.14-1.36-0.789-1.585c-0.639-0.217-1.335,0.121-1.553,0.76c-0.244,0.619,0.057,1.32,0.676,1.565  c0.017,0.008,0.032,0.014,0.052,0.017c0.64,0.245,1.357-0.077,1.599-0.721C596.891,146.209,596.895,146.197,596.898,146.183  L596.898,146.183z"/>
<path id="texture-2_8_-i0" fill="#A1C3FC" d="M78.47,85.759c-0.066-0.273-0.345-0.439-0.618-0.373  c-0.273,0.066-0.439,0.345-0.373,0.619c0.066,0.273,0.345,0.439,0.618,0.373l0,0C78.37,86.311,78.539,86.035,78.47,85.759  L78.47,85.759z M46.814,44.049c0.151-0.246,0.073-0.569-0.174-0.719l0,0c-0.221-0.144-0.518-0.082-0.661,0.139  c-0.012,0.017-0.025,0.039-0.032,0.059c-0.15,0.234-0.084,0.542,0.149,0.695C46.341,44.368,46.663,44.295,46.814,44.049  L46.814,44.049L46.814,44.049z M61.488,66.205c0.216-0.188,0.258-0.507,0.1-0.745c-0.175-0.233-0.51-0.279-0.745-0.1  c-0.233,0.175-0.279,0.51-0.1,0.745C60.932,66.319,61.249,66.364,61.488,66.205z M126.515,45.706  c0.447-0.304,0.571-0.909,0.275-1.364c-0.269-0.447-0.848-0.593-1.294-0.328c-0.016,0.01-0.03,0.017-0.043,0.028  c-0.447,0.304-0.571,0.909-0.275,1.364C125.464,45.858,126.064,45.994,126.515,45.706L126.515,45.706z M106.665,58.622  c0.45-0.306,0.564-0.919,0.256-1.366c-0.3-0.44-0.898-0.562-1.345-0.271c-0.453,0.287-0.587,0.885-0.3,1.337l0,0  C105.595,58.769,106.198,58.899,106.665,58.622z M86.77,71.539c0.45-0.289,0.581-0.883,0.292-1.333  c-0.006-0.008-0.013-0.018-0.019-0.026c-0.269-0.447-0.848-0.593-1.294-0.328c-0.016,0.01-0.03,0.017-0.043,0.028  c-0.446,0.314-0.577,0.918-0.3,1.389C85.71,71.712,86.317,71.835,86.77,71.539z M135.158,95.622  c-0.114-0.525-0.632-0.857-1.159-0.74c-0.524,0.114-0.857,0.632-0.74,1.159c0.113,0.515,0.615,0.845,1.133,0.747  C134.918,96.67,135.258,96.153,135.158,95.622L135.158,95.622z M111.85,99.956c-0.114-0.525-0.632-0.857-1.159-0.74  c-0.524,0.114-0.857,0.632-0.74,1.159c0.113,0.515,0.615,0.845,1.132,0.747C111.607,101.006,111.95,100.487,111.85,99.956  L111.85,99.956z M86.211,19.898c0.296-0.453,0.178-1.06-0.273-1.364c-0.434-0.304-1.029-0.195-1.333,0.239  c-0.002,0.003-0.004,0.006-0.006,0.008c-0.321,0.408-0.247,0.999,0.161,1.319c0.02,0.015,0.039,0.029,0.062,0.046  C85.281,20.434,85.882,20.33,86.211,19.898z M72.775,39.443c0.291-0.456,0.184-1.06-0.246-1.387  c-0.453-0.296-1.061-0.175-1.364,0.273c-0.304,0.443-0.19,1.052,0.254,1.353c0.006,0.004,0.011,0.008,0.014,0.01  c0.434,0.304,1.029,0.195,1.331-0.236C72.771,39.449,72.773,39.446,72.775,39.443z M59.366,58.962  c0.304-0.421,0.213-1.007-0.207-1.31c-0.011-0.008-0.025-0.019-0.039-0.025c-0.431-0.32-1.04-0.226-1.361,0.205  c-0.01,0.014-0.019,0.025-0.029,0.039c-0.305,0.451-0.185,1.063,0.262,1.365c0.451,0.305,1.063,0.185,1.366-0.262  C59.361,58.968,59.364,58.965,59.366,58.962z M138.799,118.581c-0.044-0.476-0.463-0.831-0.941-0.796  c-0.477,0.04-0.835,0.461-0.796,0.941c0.038,0.48,0.461,0.835,0.941,0.796l0,0C138.48,119.476,138.834,119.058,138.799,118.581z   M97.394,40.29c0.301-0.389,0.247-0.941-0.124-1.265c-0.356-0.303-0.888-0.259-1.191,0.095c-0.008,0.011-0.015,0.02-0.024,0.031  c-0.317,0.362-0.279,0.914,0.086,1.227c0.006,0.004,0.008,0.006,0.014,0.01C96.528,40.683,97.068,40.642,97.394,40.29L97.394,40.29z   M83.812,56.463c0.301-0.371,0.244-0.914-0.122-1.215c-0.356-0.303-0.888-0.259-1.191,0.095c-0.008,0.011-0.015,0.02-0.024,0.031  c-0.317,0.362-0.279,0.914,0.083,1.23c0.006,0.004,0.008,0.006,0.014,0.01C82.958,56.903,83.507,56.838,83.812,56.463L83.812,56.463  z M70.208,72.71c0.317-0.362,0.279-0.914-0.083-1.23c-0.006-0.004-0.008-0.006-0.014-0.01c-0.337-0.306-0.858-0.277-1.164,0.059  c-0.02,0.02-0.037,0.043-0.054,0.065c-0.317,0.362-0.279,0.914,0.083,1.23c0.006,0.004,0.008,0.006,0.014,0.01  C69.365,73.12,69.9,73.067,70.208,72.71L70.208,72.71z M117.026,82.312c0.42-0.237,0.575-0.765,0.347-1.19  c-0.221-0.424-0.739-0.591-1.164-0.372c-0.423,0.23-0.6,0.751-0.398,1.188C116.046,82.372,116.585,82.536,117.026,82.312  L117.026,82.312z M98.246,92.08c0.418-0.2,0.597-0.7,0.398-1.118c-0.008-0.014-0.016-0.03-0.022-0.047  c-0.221-0.424-0.739-0.591-1.164-0.372c-0.423,0.23-0.6,0.751-0.398,1.188C97.292,92.152,97.82,92.307,98.246,92.08L98.246,92.08z   M55.807,29.282c0.146-0.434-0.085-0.902-0.517-1.051c-0.018-0.006-0.034-0.013-0.05-0.015c-0.453-0.157-0.95,0.084-1.108,0.539  c-0.004,0.01-0.008,0.021-0.008,0.028c-0.124,0.463,0.136,0.944,0.595,1.093c0.451,0.146,0.935-0.105,1.081-0.555  C55.801,29.307,55.801,29.294,55.807,29.282L55.807,29.282z M49.458,49.479c0.142-0.463-0.108-0.959-0.569-1.117  c-0.47-0.134-0.963,0.136-1.096,0.606c-0.13,0.447,0.112,0.919,0.551,1.076c0.446,0.16,0.941-0.073,1.101-0.519  C49.451,49.513,49.456,49.495,49.458,49.479L49.458,49.479z M156.986,105.39c0.481-0.284,0.658-0.891,0.4-1.389  c-0.262-0.491-0.869-0.681-1.362-0.423c-0.487,0.279-0.665,0.895-0.4,1.389C155.886,105.458,156.493,105.648,156.986,105.39  L156.986,105.39z M135.428,116.89c0.494-0.26,0.681-0.869,0.423-1.362c-0.257-0.491-0.869-0.681-1.362-0.423  c-0.494,0.26-0.681,0.869-0.423,1.362C134.327,116.961,134.936,117.148,135.428,116.89L135.428,116.89z M77.984,39.549  c0.148-0.547-0.155-1.113-0.693-1.289c-0.544-0.146-1.104,0.179-1.248,0.724c-0.141,0.525,0.158,1.067,0.674,1.232  C77.249,40.367,77.807,40.074,77.984,39.549L77.984,39.549z M70.889,62.92c0.15-0.533-0.141-1.089-0.667-1.266  c-0.534-0.165-1.101,0.133-1.266,0.667s0.133,1.101,0.667,1.266C70.155,63.741,70.717,63.444,70.889,62.92L70.889,62.92z   M118.077,74.577c0.33-0.444,0.264-1.068-0.145-1.439c-0.441-0.336-1.068-0.259-1.416,0.173c-0.357,0.416-0.311,1.043,0.108,1.401  c0.006,0.004,0.011,0.008,0.017,0.012C117.075,75.082,117.717,75.016,118.077,74.577C118.075,74.58,118.077,74.577,118.077,74.577  L118.077,74.577z M102.56,93.473c0.356-0.439,0.29-1.081-0.143-1.437c0,0,0,0-0.003-0.002c-0.422-0.343-1.046-0.278-1.386,0.145l0,0  c-0.353,0.427-0.293,1.06,0.132,1.411C101.577,93.946,102.202,93.889,102.56,93.473L102.56,93.473z M133.264,81.66  c0.356-0.421,0.302-1.054-0.122-1.412c-0.423-0.359-1.054-0.302-1.413,0.122c-0.345,0.412-0.306,1.025,0.093,1.386  C132.25,82.127,132.892,82.084,133.264,81.66L133.264,81.66z M117.055,99.814c0.369-0.425,0.325-1.068-0.098-1.438  c-0.415-0.353-1.037-0.319-1.415,0.072c-0.364,0.432-0.332,1.07,0.072,1.463C116.045,100.269,116.676,100.223,117.055,99.814  L117.055,99.814z M84.518,67.05c0.173-0.533-0.114-1.108-0.643-1.291c-0.521-0.177-1.088,0.098-1.265,0.619  c-0.199,0.504,0.047,1.075,0.551,1.274c0.013,0.006,0.026,0.011,0.042,0.014c0.522,0.2,1.105-0.063,1.301-0.587  C84.512,67.072,84.515,67.062,84.518,67.05L84.518,67.05z"/>
<g>
	<g>
		<path fill="#78A9EF" d="M540.635,29.981c-3.575,0-6.484-2.908-6.484-6.484s2.908-6.484,6.484-6.484s6.484,2.908,6.484,6.484    S544.21,29.981,540.635,29.981z M540.635,17.956c-3.055,0-5.54,2.486-5.54,5.54c0,3.056,2.486,5.54,5.54,5.54    s5.54-2.486,5.54-5.54S543.689,17.956,540.635,17.956z"/>
	</g>
	<g>
		<path fill="#78A9EF" d="M540.635,33.761c-5.659,0-10.264-4.605-10.264-10.264s4.605-10.264,10.264-10.264    s10.264,4.604,10.264,10.264S546.294,33.761,540.635,33.761z M540.635,14.175c-5.14,0-9.321,4.182-9.321,9.321    s4.182,9.321,9.321,9.321c5.14,0,9.321-4.182,9.321-9.321S545.774,14.175,540.635,14.175z"/>
	</g>
	<g>
		<path fill="#78A9EF" d="M540.635,38.014c-8.005,0-14.517-6.513-14.517-14.517S532.63,8.98,540.635,8.98    s14.518,6.513,14.518,14.517S548.639,38.014,540.635,38.014z M540.635,9.922c-7.485,0-13.574,6.089-13.574,13.574    s6.089,13.574,13.574,13.574c7.486,0,13.575-6.089,13.575-13.574C554.21,16.012,548.121,9.922,540.635,9.922z"/>
	</g>
	<g>
		<path fill="#78A9EF" d="M540.635,42.739c-10.611,0-19.243-8.633-19.243-19.243s8.632-19.243,19.243-19.243    c10.611,0,19.243,8.632,19.243,19.243S551.246,42.739,540.635,42.739z M540.635,5.196c-10.091,0-18.3,8.209-18.3,18.3    s8.209,18.3,18.3,18.3s18.3-8.209,18.3-18.3S550.725,5.196,540.635,5.196z"/>
	</g>
	<g>
		<path fill="#78A9EF" d="M540.635,46.993c-12.956,0-23.496-10.541-23.496-23.496S527.679,0,540.635,0s23.496,10.541,23.496,23.496    S553.59,46.993,540.635,46.993z M540.635,0.944c-12.436,0-22.553,10.117-22.553,22.553S528.2,46.05,540.635,46.05    s22.553-10.117,22.553-22.553S553.071,0.944,540.635,0.944z"/>
	</g>
</g>
<g>
	<path fill="#DAE8FE" d="M34.05,15.168c0.402,19.564,16.403,35.363,36.096,35.363s35.694-15.799,36.096-35.363   C106.242,15.168,34.05,15.168,34.05,15.168z"/>
	<path fill="#C3D9FD" d="M73.679,15.168c0.265,12.904,10.819,23.325,23.808,23.325s23.542-10.421,23.808-23.325   C121.295,15.168,73.679,15.168,73.679,15.168z"/>
	<path fill="#AFCCFC" d="M99.261,15.168c0.315,15.35,12.87,27.748,28.323,27.748s28.007-12.397,28.323-27.748   C155.907,15.168,99.261,15.168,99.261,15.168z"/>
</g>
<g>
	<path fill="#DAE8FE" d="M533.91,74.581c0.617,30.178,25.15,54.222,55.346,54.222s54.73-24.044,55.346-54.222   C644.602,74.581,533.91,74.581,533.91,74.581z"/>
	<path fill="#C3D9FD" d="M594.672,74.581c0.406,19.804,16.588,35.764,36.505,35.764s36.099-15.959,36.506-35.764H594.672z"/>
	<path fill="#AFCCFC" d="M633.898,74.581c0.484,23.576,19.733,42.545,43.427,42.545s42.944-18.969,43.427-42.545H633.898z"/>
</g>
<polygon fill="#EAEBEB" points="99.93,403.402 119.696,403.402 119.696,350.557 99.93,330.791 "/>
<polygon fill="#EAEBEB" points="136.573,367.433 136.573,403.402 156.34,403.402 156.34,387.2 "/>
<polygon fill="#EAEBEB" points="26.644,403.402 46.41,403.402 46.41,277.271 26.644,257.505 "/>
<polygon fill="#EAEBEB" points="63.286,403.402 83.053,403.402 83.053,313.914 63.286,294.147 "/>
<g>
	<polygon fill="#F1F1F1" points="630.875,360.998 630.875,369.454 639.332,369.454  "/>
	<polygon fill="#F1F1F1" points="611.75,341.872 611.75,369.454 620.558,369.454 620.558,350.681  "/>
	<polygon fill="#F1F1F1" points="592.624,322.746 592.624,369.454 601.433,369.454 601.433,331.555  "/>
	<polygon fill="#F1F1F1" points="573.498,303.62 573.498,369.454 582.307,369.454 582.307,312.429  "/>
	<polygon fill="#F1F1F1" points="554.373,284.495 554.373,369.454 563.181,369.454 563.181,293.303  "/>
	<polygon fill="#F1F1F1" points="535.247,265.37 535.247,369.454 544.056,369.454 544.056,274.178  "/>
</g>
<g>
	<polygon fill="#D9E021" points="258.743,387.592 239.572,362.942 260.904,409.322 268.76,409.369  "/>
	<polygon fill="#D9E021" points="201.753,314.319 201.376,314.911 244.756,409.224 252.613,409.272 219.338,336.928  "/>
	<polygon fill="#D9E021" points="192.02,329.578 228.608,409.126 236.465,409.174 196.572,322.442  "/>
	<polygon fill="#D9E021" points="182.663,344.245 212.46,409.028 220.317,409.076 187.215,337.109  "/>
	<polygon fill="#D9E021" points="173.307,358.912 196.312,408.931 204.169,408.978 177.859,351.777  "/>
	<polygon fill="#D9E021" points="163.95,373.579 180.165,408.833 188.021,408.88 168.502,366.443  "/>
	<polygon fill="#D9E021" points="154.593,388.247 164.017,408.734 171.873,408.783 159.145,381.11  "/>
</g>
<path fill="#CBDEFD" d="M551.157,574.72c13.092-2.457,26.357-5.285,36.92-10.553c10.562-5.268,18.039-13.492,15.941-21.656  c-2.794-10.872-20.478-17.751-36.863-22.607c-25.078-7.432-51.252-13.521-78.114-18.168c-13.178-2.28-28.849-5.597-31.752-13.671  c-0.144-0.402-0.243-0.802-0.315-1.199c-7.274-1.032-14.485-2.264-21.615-3.757c-12.208-2.557-24.633-6.103-33.187-13.094  c-8.555-6.992-11.982-18.272-4.794-26.076c6.19-6.72,20.405-10.767,31.174-11.861c51.254-5.207,75.399-7.014,139.25-9.064  c-109.003-1.896-165.978-0.727-255.855,2.926c-53.919,2.192-158.608,20.005-135.465,59.533c7.939,13.559,8.817,23.882,68.329,27.999  c34.71,2.402,111.087,3.105,104.698,15.646c-10.622,20.85-168.159,14.107-204.393,17.257c-32.233,2.801-75.239,14.645-78.844,38.742  c149.231,0.583,300.379-0.575,446.58,0.325c5.691,0.035,11.389,0.104,17.092,0.187c0.005-0.213,0.017-0.426,0.054-0.641  C530.978,579.219,541.963,576.446,551.157,574.72z"/>
<path fill="#CBDEFD" d="M673.692,580.538c25.578-4.134,55.189-15.266,55.545-34.819c0.276-15.141-17.912-26.765-36.004-33.584  c-71.503-26.952-157.588-14.105-236.261-25.268c0.071,0.398,0.171,0.797,0.315,1.199c2.903,8.073,18.574,11.391,31.752,13.671  c26.862,4.647,53.037,10.735,78.114,18.168c16.386,4.857,34.069,11.734,36.863,22.607c2.098,8.164-5.378,16.388-15.941,21.656  c-10.562,5.268-23.828,8.096-36.92,10.553c-9.195,1.726-20.18,4.497-21.16,10.27c-0.037,0.215-0.05,0.428-0.054,0.641  C578.156,586.336,626.659,588.14,673.692,580.538z"/>
<g>
	<polygon fill="#CCDFFD" points="776.449,368.123 776.113,363.985 767.272,352.618 768.526,368.075  "/>
	<polygon fill="#CCDFFD" points="749.101,329.255 752.24,367.976 760.163,368.024 757.942,340.621  "/>
	<polygon fill="#CCDFFD" points="730.93,305.891 735.954,367.877 743.878,367.926 739.771,317.259  "/>
	<polygon fill="#CCDFFD" points="712.758,282.528 719.669,367.778 727.592,367.827 721.599,293.895  "/>
	<polygon fill="#CCDFFD" points="697.727,297.914 703.383,367.68 711.306,367.728 704.754,286.899  "/>
	<polygon fill="#CCDFFD" points="683.284,320.553 687.097,367.581 695.02,367.629 690.311,309.538  "/>
	<polygon fill="#CCDFFD" points="668.843,343.193 670.812,367.482 678.734,367.53 675.869,332.178  "/>
	<polygon fill="#CCDFFD" points="654.4,365.833 654.526,367.384 662.449,367.432 661.426,354.818  "/>
</g>
<g>
	<polygon fill="#B6D1F6" points="677.934,334.494 662.445,373.465 671.474,373.552 682.95,344.678  "/>
	<polygon fill="#B6D1F6" points="667.625,313.561 643.886,373.288 652.915,373.374 672.64,323.746  "/>
	<polygon fill="#B6D1F6" points="657.316,292.628 625.329,373.11 634.358,373.196 662.332,302.813  "/>
	<polygon fill="#B6D1F6" points="647.008,271.696 606.77,372.932 615.799,373.019 652.023,281.88  "/>
	<polygon fill="#B6D1F6" points="636.698,250.763 588.213,372.755 597.242,372.841 641.714,260.947  "/>
	<polygon fill="#B6D1F6" points="626.39,229.83 569.654,372.577 578.683,372.663 631.406,240.014  "/>
</g>
<g>
	<polygon fill="#CCDFFD" points="655.594,396.934 655.431,394.928 651.145,389.417 651.752,396.91  "/>
	<polygon fill="#CCDFFD" points="642.335,378.09 643.857,396.863 647.698,396.886 646.621,383.6  "/>
	<polygon fill="#CCDFFD" points="633.525,366.762 635.961,396.815 639.803,396.839 637.811,372.273  "/>
	<polygon fill="#CCDFFD" points="624.715,355.435 628.065,396.767 631.907,396.791 629.001,360.946  "/>
	<polygon fill="#CCDFFD" points="617.427,362.894 620.169,396.719 624.01,396.743 620.834,357.554  "/>
	<polygon fill="#CCDFFD" points="610.425,373.871 612.273,396.672 616.115,396.694 613.832,368.53  "/>
	<polygon fill="#CCDFFD" points="603.423,384.847 604.378,396.624 608.219,396.647 606.83,379.507  "/>
	<polygon fill="#CCDFFD" points="596.42,395.824 596.482,396.576 600.324,396.599 599.828,390.483  "/>
</g>
<path fill="none" d="M589.871,528.525l9.483,6.524C596.871,532.633,593.602,530.473,589.871,528.525z"/>
<path fill="#FFFFFF" d="M545.715,528.263c-1.163,0.553-2.271,1.13-3.32,1.731l47.937,32.974c1.069-0.603,2.098-1.236,3.079-1.896  L545.715,528.263z"/>
<path fill="#FFFFFF" d="M571.31,569.959L530.956,542.2c-0.35,1.154-0.536,2.333-0.536,3.532c0,0.039,0.003,0.078,0.003,0.117  l33.449,23.009C566.271,569.306,568.755,569.676,571.31,569.959z"/>
<path fill="#FFFFFF" d="M551.178,525.999c-1.283,0.463-2.519,0.952-3.705,1.466l47.378,32.59c0.948-0.7,1.845-1.425,2.677-2.173  L551.178,525.999z"/>
<path fill="#FFFFFF" d="M548.956,564.619c3.25,1.308,6.842,2.435,10.704,3.348l-29.016-19.959c0.394,2.035,1.31,4,2.687,5.863  L548.956,564.619z"/>
<path fill="#FFFFFF" d="M533.222,537.736c-0.674,0.932-1.233,1.889-1.67,2.866l42.171,29.008c1.359-0.397,2.701-0.812,4.019-1.25  L533.222,537.736z"/>
<path fill="#FFFFFF" d="M588.696,563.851l-47.857-32.919c-1.032,0.652-1.996,1.329-2.89,2.027l47.292,32.531  c0.963-0.424,1.913-0.86,2.838-1.321C588.286,564.064,588.49,563.957,588.696,563.851z"/>
<path fill="#FFFFFF" d="M536.625,534.055c-0.877,0.771-1.669,1.566-2.372,2.383l45.438,31.256c1.275-0.454,2.522-0.936,3.747-1.437  L536.625,534.055z"/>
<path fill="#FFFFFF" d="M563.782,522.624c-1.52,0.286-3.006,0.604-4.454,0.952l42.58,29.289c0.626-0.968,1.143-1.955,1.539-2.956  L563.782,522.624z"/>
<path fill="#FFFFFF" d="M604.336,544.498l-33.369-22.954c-1.651,0.189-3.273,0.413-4.861,0.671l37.874,26.053  C604.301,547.024,604.428,545.763,604.336,544.498z"/>
<path fill="#FFFFFF" d="M599.354,535.049l-9.483-6.524c-4.41-2.302-9.468-4.306-14.666-6.073l28.721,19.756  C603.183,539.6,601.589,537.22,599.354,535.049z"/>
<path fill="#FFFFFF" d="M600.953,554.215l-43.756-30.099c-1.4,0.375-2.758,0.781-4.074,1.213l45.631,31.388  C599.564,555.904,600.3,555.069,600.953,554.215z"/>
<path fill="#FFFFFF" d="M604.427,568.65l-11.017-7.578c-0.982,0.661-2.01,1.294-3.079,1.896l9.435,6.49  C601.354,569.222,602.909,568.952,604.427,568.65z"/>
<path fill="#FFFFFF" d="M610.926,567.098l-13.398-9.216c-0.833,0.749-1.73,1.473-2.677,2.173l11.807,8.122  C608.12,567.847,609.543,567.486,610.926,567.098z"/>
<path fill="#FFFFFF" d="M580.996,570.599l-3.253-2.238c-1.318,0.439-2.66,0.853-4.019,1.25l0.97,0.668  C576.758,570.443,578.86,570.551,580.996,570.599z"/>
<path fill="#FFFFFF" d="M597.331,569.791l-8.637-5.94c-0.206,0.106-0.41,0.213-0.619,0.317c-0.923,0.46-1.875,0.896-2.838,1.321  l6.997,4.813C593.965,570.17,595.664,569.999,597.331,569.791z"/>
<path fill="#FFFFFF" d="M589.568,570.473l-6.13-4.216c-1.225,0.502-2.472,0.984-3.747,1.437l4.264,2.933  C585.852,570.622,587.723,570.569,589.568,570.473z"/>
<path fill="#FFFFFF" d="M622.249,562.841l-18.802-12.933c-0.396,1.002-0.913,1.988-1.539,2.956l16.816,11.568  C619.95,563.927,621.127,563.396,622.249,562.841z"/>
<path fill="#FFFFFF" d="M627.036,560.112l-22.699-15.614c0.091,1.266-0.035,2.526-0.356,3.77l19.932,13.711  C625.015,561.381,626.058,560.758,627.036,560.112z"/>
<path fill="#FFFFFF" d="M609.546,523.991c-2.671-0.7-5.484-1.295-8.414-1.773l35.623,24.504c0.027-0.329,0.045-0.659,0.045-0.991  c0-1.125-0.162-2.231-0.471-3.317L609.546,523.991z"/>
<path fill="#FFFFFF" d="M631.143,556.914l-31.788-21.866c2.234,2.172,3.829,4.551,4.571,7.16l24.56,16.894  C629.447,558.397,630.334,557.666,631.143,556.914z"/>
<path fill="#FFFFFF" d="M578.837,520.936c-1.804,0.075-3.581,0.192-5.328,0.35l1.697,1.167c5.197,1.767,10.256,3.771,14.666,6.073  L578.837,520.936z"/>
<path fill="#FFFFFF" d="M583.61,520.835c-0.661,0-1.318,0.008-1.974,0.019l50.699,34.874c0.788-0.84,1.483-1.704,2.072-2.59  l-46.862-32.236C586.246,520.857,584.934,520.835,583.61,520.835z"/>
<path fill="#FFFFFF" d="M614.7,525.529l20.483,14.089C632.078,533.863,624.691,528.905,614.7,525.529z"/>
<path fill="#FFFFFF" d="M616.867,565.161l-15.913-10.946c-0.654,0.854-1.389,1.689-2.199,2.502l14.214,9.778  C614.311,566.077,615.612,565.633,616.867,565.161z"/>
<path fill="#FFFFFF" d="M590.684,521.054l44.569,30.658c0.546-1.036,0.953-2.098,1.212-3.181l-39.025-26.844  C595.24,521.41,592.985,521.197,590.684,521.054z"/>
<path fill="#9CC0F3" d="M693.233,512.135c-71.503-26.952-157.588-14.105-236.261-25.268c0.071,0.398,0.171,0.797,0.315,1.199  c2.903,8.073,18.574,11.391,31.752,13.671c26.862,4.647,53.037,10.735,78.114,18.168c2.673,0.792,5.379,1.639,8.051,2.547  c5.197,1.767,10.256,3.771,14.666,6.073c3.732,1.948,7,4.109,9.483,6.524c2.234,2.172,3.829,4.551,4.571,7.16  c0.029,0.102,0.066,0.201,0.091,0.304c0.17,0.662,0.271,1.325,0.319,1.986c0.091,1.266-0.035,2.526-0.356,3.77  c-0.141,0.55-0.319,1.097-0.534,1.64c-0.396,1.002-0.913,1.988-1.539,2.956c-0.294,0.455-0.614,0.905-0.954,1.35  c-0.654,0.854-1.389,1.689-2.199,2.502c-0.392,0.393-0.8,0.783-1.225,1.165c-0.833,0.749-1.73,1.473-2.677,2.173  c-0.468,0.345-0.948,0.685-1.441,1.017c-0.982,0.661-2.01,1.294-3.079,1.896c-0.536,0.302-1.081,0.596-1.636,0.882  c-0.206,0.106-0.41,0.213-0.619,0.317c-0.923,0.46-1.875,0.896-2.838,1.321c-0.594,0.262-1.194,0.519-1.801,0.769  c-1.225,0.502-2.472,0.984-3.747,1.437c-0.643,0.229-1.294,0.45-1.948,0.668c-1.318,0.439-2.66,0.853-4.019,1.25  c-7.199,2.104-14.911,3.672-22.566,5.11c-9.195,1.726-20.18,4.497-21.16,10.27c-0.037,0.215-0.05,0.428-0.054,0.641  c48.213,0.703,96.715,2.509,143.749-5.093c25.578-4.134,55.189-15.266,55.545-34.819  C729.514,530.579,711.325,518.954,693.233,512.135z"/>
<g>
	<path fill="#78A9EF" d="M604.427,568.65l-11.017-7.578c-0.982,0.661-2.01,1.294-3.079,1.896l9.435,6.49   C601.354,569.222,602.909,568.952,604.427,568.65z"/>
	<path fill="#78A9EF" d="M610.926,567.098l-13.398-9.216c-0.833,0.749-1.73,1.473-2.677,2.173l11.807,8.122   C608.12,567.847,609.543,567.486,610.926,567.098z"/>
	<path fill="#78A9EF" d="M580.996,570.599l-3.253-2.238c-1.318,0.439-2.66,0.853-4.019,1.25l0.97,0.668   C576.758,570.443,578.86,570.551,580.996,570.599z"/>
	<path fill="#78A9EF" d="M597.331,569.791l-8.637-5.94c-0.206,0.106-0.41,0.213-0.619,0.317c-0.923,0.46-1.875,0.896-2.838,1.321   l6.997,4.813C593.965,570.17,595.664,569.999,597.331,569.791z"/>
	<path fill="#78A9EF" d="M589.568,570.473l-6.13-4.216c-1.225,0.502-2.472,0.984-3.747,1.437l4.264,2.933   C585.852,570.622,587.723,570.569,589.568,570.473z"/>
	<path fill="#78A9EF" d="M622.249,562.841l-18.802-12.933c-0.396,1.002-0.913,1.988-1.539,2.956l16.816,11.568   C619.95,563.927,621.127,563.396,622.249,562.841z"/>
	<path fill="#78A9EF" d="M627.036,560.112l-22.699-15.614c0.091,1.266-0.035,2.526-0.356,3.77l19.932,13.711   C625.015,561.381,626.058,560.758,627.036,560.112z"/>
	<path fill="#78A9EF" d="M609.546,523.991c-2.671-0.7-5.484-1.295-8.414-1.773l35.623,24.504c0.027-0.329,0.045-0.659,0.045-0.991   c0-1.125-0.162-2.231-0.471-3.317L609.546,523.991z"/>
	<path fill="#78A9EF" d="M631.143,556.914l-31.788-21.866c2.234,2.172,3.829,4.551,4.571,7.16l24.56,16.894   C629.447,558.397,630.334,557.666,631.143,556.914z"/>
	<path fill="#78A9EF" d="M578.837,520.936c-1.804,0.075-3.581,0.192-5.328,0.35l1.697,1.167c5.197,1.767,10.256,3.771,14.666,6.073   L578.837,520.936z"/>
	<path fill="#78A9EF" d="M583.61,520.835c-0.661,0-1.318,0.008-1.974,0.019l50.699,34.874c0.788-0.84,1.483-1.704,2.072-2.59   l-46.862-32.236C586.246,520.857,584.934,520.835,583.61,520.835z"/>
	<path fill="#78A9EF" d="M614.7,525.529l20.483,14.089C632.078,533.863,624.691,528.905,614.7,525.529z"/>
	<path fill="#78A9EF" d="M616.867,565.161l-15.913-10.946c-0.654,0.854-1.389,1.689-2.199,2.502l14.214,9.778   C614.311,566.077,615.612,565.633,616.867,565.161z"/>
	<path fill="#78A9EF" d="M590.684,521.054l44.569,30.658c0.546-1.036,0.953-2.098,1.212-3.181l-39.025-26.844   C595.24,521.41,592.985,521.197,590.684,521.054z"/>
</g>
<linearGradient id="SVGID_2_-i0" gradientUnits="userSpaceOnUse" x1="0" y1="474.033" x2="287.1086" y2="474.033">
	<stop offset="0" style="stop-color:#23286B"/>
	<stop offset="1" style="stop-color:#151A4F"/>
</linearGradient>
<path fill="url(#SVGID_2_-i0)" d="M272.025,485.885c-9.19-3.563-57.128-16.677-71.277-19.887c-9.515-2.159-19.861-3.801-27.831-6.959  c-7.97-3.158-12.988-8.471-8.2-12.709c5.31-4.7,19.049-5.742,30.756-6.572c10.093-0.716,20.091-1.693,29.927-2.924  c2.228-0.279,4.643-0.635,5.872-1.504c1.644-1.164,0.312-2.788-2.111-3.642c-2.423-0.854-5.607-1.127-8.663-1.348  c-32.153-2.32-65.006-1.856-97.467-0.645c-24.217,0.903-48.356,2.218-72.347,3.94c-17.142,1.231-34.533,2.738-50.684,5.463v26.052  c15.87,2.336,31.384,5.147,46.388,8.42c12.731,2.777,26.472,6.711,28.643,12.927c1.631,4.668-4.179,9.371-12.386,12.384  c-8.206,3.012-18.515,4.629-28.687,6.035c-7.144,0.986-15.679,2.572-16.441,5.872c-0.521,2.253,3.255,4.353,7.846,5.346  c4.593,0.994,9.856,1.119,14.958,1.227c31.044,0.654,62.086,1.307,93.13,1.961c19.842,0.418,87.439-1.817,101.271-3.037  c11.208-0.988,22.631-2.011,32.59-4.496c9.959-2.485,18.39-6.725,19.635-11.762C288.278,494.647,281.215,489.448,272.025,485.885z"/>
<polygon fill="#EAEBEB" points="0,230.861 0,403.402 9.767,403.402 9.767,240.628 "/>
<g>
	<path fill="#1D72D8" d="M157.563,518.533l-11.629-7.999C148.247,513.666,152.304,516.417,157.563,518.533z"/>
	<path fill="#1D72D8" d="M143.934,506.169l21.595,14.854c1.02,0.241,2.066,0.463,3.136,0.663l-24.894-17.124   C143.775,505.105,143.831,505.64,143.934,506.169z"/>
	<path fill="#1D72D8" d="M144.166,501.847l30.034,20.66c0.83,0.091,1.669,0.172,2.519,0.239l-32.107-22.086   C144.435,501.05,144.287,501.447,144.166,501.847z"/>
	<path fill="#1D72D8" d="M145.853,498.526l35.555,24.457c0.645,0.015,1.293,0.023,1.946,0.023c0.086,0,0.171-0.001,0.257-0.002   l-36.99-25.445C146.347,497.877,146.089,498.199,145.853,498.526z"/>
	<path fill="#1D72D8" d="M148.385,495.785l39.402,27.103c0.668-0.035,1.33-0.077,1.986-0.127l-40.403-27.793   C149.028,495.236,148.7,495.509,148.385,495.785z"/>
	<path fill="#1D72D8" d="M151.521,493.461l42.044,28.922c0.61-0.076,1.214-0.158,1.812-0.248l-42.698-29.371   C152.282,492.991,151.896,493.224,151.521,493.461z"/>
	<path fill="#1D72D8" d="M155.15,491.475l43.696,30.057c0.56-0.111,1.114-0.228,1.661-0.352l-44.047-30.299   C156.013,491.074,155.577,491.272,155.15,491.475z"/>
	<path fill="#1D72D8" d="M159.216,489.789l44.467,30.588c0.514-0.144,1.02-0.294,1.519-0.449l-44.539-30.637   C160.173,489.453,159.69,489.619,159.216,489.789z"/>
	<path fill="#1D72D8" d="M163.696,488.389l44.409,30.548c0.47-0.176,0.931-0.357,1.383-0.543l-44.205-30.407   C164.746,488.115,164.217,488.249,163.696,488.389z"/>
	<path fill="#1D72D8" d="M168.596,487.278l43.514,29.932c0.423-0.209,0.836-0.423,1.239-0.641l-43.021-29.593   C169.744,487.07,169.167,487.171,168.596,487.278z"/>
	<path fill="#1D72D8" d="M173.945,486.475l41.728,28.704c0.373-0.246,0.733-0.497,1.08-0.752l-40.916-28.146   C175.2,486.339,174.569,486.403,173.945,486.475z"/>
	<path fill="#1D72D8" d="M179.801,486.021l38.928,26.777c0.312-0.29,0.608-0.585,0.888-0.884l-37.733-25.955   C181.185,485.972,180.491,485.993,179.801,486.021z"/>
	<path fill="#1D72D8" d="M186.282,485.996l34.877,23.991c0.232-0.349,0.44-0.703,0.629-1.062l-33.17-22.816   C187.845,486.061,187.067,486.024,186.282,485.996z"/>
	<path fill="#1D72D8" d="M193.645,486.58l29.044,19.979c0.107-0.444,0.178-0.892,0.216-1.345l-26.512-18.237   C195.492,486.829,194.576,486.697,193.645,486.58z"/>
	<path fill="#1D72D8" d="M206.492,489.44c-1.228-0.415-2.509-0.797-3.836-1.145l19.933,13.712c-0.201-0.707-0.487-1.401-0.853-2.081   L206.492,489.44z"/>
</g>
<g>
	<polygon fill="#CCDFFD" points="139.255,286.883 132.361,295.746 147.502,299.731  "/>
	<polygon fill="#CCDFFD" points="117.074,315.401 165.792,328.224 156.893,314.362 124.512,305.838  "/>
	<polygon fill="#CCDFFD" points="101.786,335.057 184.081,356.716 175.183,342.853 109.224,325.494  "/>
	<polygon fill="#CCDFFD" points="86.5,354.711 202.37,385.209 193.471,371.347 93.937,345.149  "/>
	<polygon fill="#CCDFFD" points="71.212,374.368 220.66,413.702 211.761,399.84 78.649,364.804  "/>
	<polygon fill="#CCDFFD" points="55.925,394.022 215.863,436.118 235.074,436.157 230.051,428.332 63.363,384.459  "/>
	<polygon fill="#CCDFFD" points="40.637,413.678 125.196,435.933 169.307,436.023 48.075,404.115  "/>
	<polygon fill="#CCDFFD" points="25.35,433.333 34.53,435.749 78.642,435.839 32.788,423.77  "/>
</g>
<path id="texture-2_1_-i0" fill="#FFFFFF" d="M107.24,471.197c-0.111-0.136-0.314-0.154-0.45-0.042  c-0.136,0.111-0.154,0.314-0.041,0.45c0.111,0.136,0.314,0.154,0.45,0.042l0,0C107.334,471.536,107.354,471.334,107.24,471.197  L107.24,471.197z M78.036,456.357c0.018-0.18-0.115-0.34-0.294-0.357l0,0c-0.164-0.021-0.314,0.095-0.335,0.258  c-0.003,0.013-0.004,0.028-0.002,0.042c-0.021,0.173,0.101,0.328,0.273,0.351C77.856,456.666,78.018,456.537,78.036,456.357  L78.036,456.357L78.036,456.357z M92.343,464.825c0.071-0.165,0.008-0.356-0.147-0.447c-0.162-0.083-0.363-0.018-0.447,0.147  c-0.083,0.162-0.018,0.363,0.147,0.447C92.062,465.04,92.252,464.978,92.343,464.825z M123.355,435.536  c0.169-0.293,0.073-0.668-0.217-0.843c-0.273-0.178-0.639-0.103-0.818,0.169c-0.007,0.01-0.012,0.018-0.017,0.028  c-0.169,0.293-0.073,0.668,0.217,0.843C122.804,435.909,123.179,435.822,123.355,435.536L123.355,435.536z M115.706,448.225  c0.17-0.295,0.067-0.671-0.229-0.838c-0.29-0.166-0.659-0.072-0.831,0.215c-0.176,0.285-0.089,0.658,0.196,0.835l0,0  C115.143,448.6,115.518,448.508,115.706,448.225z M108.031,460.927c0.174-0.286,0.086-0.655-0.199-0.83  c-0.006-0.003-0.012-0.007-0.018-0.01c-0.273-0.178-0.639-0.103-0.818,0.169c-0.007,0.01-0.012,0.018-0.017,0.028  c-0.166,0.298-0.075,0.674,0.21,0.864C107.483,461.314,107.857,461.218,108.031,460.927z M141.844,461.278  c-0.207-0.264-0.589-0.31-0.854-0.101c-0.264,0.207-0.31,0.589-0.101,0.854c0.204,0.258,0.577,0.307,0.841,0.111  C141.995,461.933,142.046,461.55,141.844,461.278L141.844,461.278z M129.906,470.079c-0.207-0.264-0.589-0.31-0.854-0.101  c-0.264,0.207-0.31,0.589-0.101,0.854c0.204,0.258,0.577,0.307,0.841,0.111C130.057,470.737,130.107,470.35,129.906,470.079  L129.906,470.079z M93.621,432.008c0.043-0.336-0.189-0.645-0.526-0.693c-0.327-0.053-0.633,0.171-0.686,0.498  c0,0.002-0.001,0.004-0.001,0.007c-0.069,0.318,0.134,0.63,0.451,0.699c0.015,0.003,0.03,0.006,0.047,0.009  C93.244,432.565,93.555,432.341,93.621,432.008z M91.393,446.678c0.04-0.337-0.186-0.647-0.517-0.714  c-0.336-0.043-0.645,0.191-0.693,0.526c-0.05,0.333,0.18,0.643,0.512,0.692c0.004,0.001,0.008,0.002,0.01,0.002  c0.327,0.053,0.633-0.171,0.685-0.496C91.392,446.683,91.393,446.68,91.393,446.678z M89.171,461.326  c0.057-0.32-0.155-0.625-0.474-0.681c-0.008-0.002-0.019-0.004-0.028-0.004c-0.33-0.062-0.648,0.157-0.71,0.487  c-0.002,0.011-0.004,0.02-0.006,0.03c-0.048,0.337,0.186,0.649,0.521,0.697c0.337,0.048,0.649-0.186,0.697-0.521  C89.17,461.331,89.171,461.329,89.171,461.326z M150.16,473.209c-0.156-0.257-0.488-0.341-0.747-0.191  c-0.257,0.153-0.344,0.488-0.191,0.747c0.152,0.26,0.488,0.344,0.747,0.191l0,0C150.225,473.8,150.311,473.468,150.16,473.209z   M105.483,440.435c0.063-0.301-0.118-0.598-0.415-0.678c-0.283-0.074-0.571,0.096-0.644,0.379c-0.002,0.008-0.003,0.015-0.005,0.024  c-0.079,0.29,0.092,0.59,0.383,0.667c0.004,0.001,0.007,0.001,0.01,0.002C105.103,440.894,105.396,440.723,105.483,440.435  L105.483,440.435z M102.251,453.247c0.068-0.29-0.112-0.581-0.4-0.651c-0.283-0.074-0.571,0.096-0.644,0.379  c-0.002,0.008-0.003,0.015-0.005,0.024c-0.079,0.29,0.092,0.59,0.383,0.67c0.004,0.001,0.007,0.001,0.01,0.002  C101.891,453.728,102.183,453.542,102.251,453.247L102.251,453.247z M99.027,466.106c0.079-0.29-0.092-0.59-0.383-0.67  c-0.004-0.001-0.007-0.001-0.01-0.002c-0.273-0.08-0.558,0.078-0.639,0.351c-0.006,0.017-0.008,0.034-0.012,0.051  c-0.079,0.29,0.092,0.59,0.383,0.67c0.004,0.001,0.007,0.001,0.01,0.002C98.665,466.568,98.952,466.391,99.027,466.106  L99.027,466.106z M128.004,458.734c0.172-0.248,0.115-0.588-0.129-0.765c-0.24-0.179-0.578-0.131-0.756,0.108  c-0.175,0.245-0.133,0.587,0.1,0.777C127.47,459.035,127.818,458.981,128.004,458.734L128.004,458.734z M120.098,469.358  c0.181-0.226,0.145-0.557-0.081-0.737c-0.008-0.006-0.017-0.012-0.025-0.021c-0.24-0.179-0.578-0.131-0.756,0.108  c-0.175,0.245-0.133,0.587,0.1,0.777C119.581,469.659,119.921,469.602,120.098,469.358L120.098,469.358z M79.067,445.589  c-0.036-0.285-0.294-0.485-0.578-0.451c-0.011,0.002-0.023,0.002-0.032,0.005c-0.298,0.036-0.512,0.306-0.476,0.605  c0.001,0.007,0.002,0.014,0.003,0.018c0.057,0.295,0.334,0.494,0.633,0.453c0.294-0.041,0.498-0.314,0.456-0.607  C79.071,445.605,79.067,445.598,79.067,445.589L79.067,445.589z M81.006,458.692c-0.046-0.3-0.323-0.51-0.625-0.473  c-0.301,0.053-0.505,0.34-0.452,0.64c0.049,0.287,0.314,0.487,0.604,0.456c0.295-0.032,0.51-0.298,0.478-0.592  C81.011,458.714,81.009,458.701,81.006,458.692L81.006,458.692z M156.798,460.82c0.193-0.29,0.127-0.682-0.154-0.891  c-0.282-0.205-0.675-0.146-0.882,0.133c-0.198,0.29-0.13,0.686,0.154,0.891C156.198,461.157,156.591,461.099,156.798,460.82  L156.798,460.82z M147.801,473.176c0.207-0.281,0.146-0.675-0.133-0.882c-0.279-0.207-0.675-0.146-0.882,0.133  c-0.207,0.281-0.146,0.675,0.133,0.882C147.2,473.517,147.595,473.456,147.801,473.176L147.801,473.176z M94.353,445.317  c-0.066-0.348-0.39-0.584-0.742-0.537c-0.346,0.066-0.572,0.402-0.505,0.749c0.064,0.335,0.38,0.557,0.716,0.509  C94.164,445.977,94.398,445.661,94.353,445.317L94.353,445.317z M96.738,460.409c-0.06-0.34-0.377-0.575-0.72-0.53  c-0.345,0.053-0.583,0.375-0.53,0.72s0.375,0.583,0.72,0.53C96.55,461.072,96.785,460.752,96.738,460.409L96.738,460.409z   M126.485,454.093c0.064-0.34-0.143-0.673-0.474-0.77c-0.34-0.069-0.672,0.145-0.75,0.483c-0.088,0.331,0.109,0.672,0.443,0.759  c0.004,0.001,0.008,0.002,0.013,0.003C126.058,454.65,126.401,454.438,126.485,454.093  C126.484,454.095,126.485,454.093,126.485,454.093L126.485,454.093z M122.907,468.966c0.081-0.344-0.131-0.688-0.472-0.77  c0,0,0,0-0.002,0c-0.331-0.078-0.665,0.129-0.741,0.46l0,0c-0.082,0.337,0.124,0.677,0.459,0.758  C122.483,469.5,122.819,469.297,122.907,468.966L122.907,468.966z M136.967,453.935c0.085-0.334-0.118-0.676-0.454-0.762  c-0.337-0.087-0.676,0.118-0.762,0.454c-0.082,0.326,0.107,0.66,0.431,0.754C136.524,454.474,136.874,454.275,136.967,453.935  L136.967,453.935z M132.797,468.578c0.091-0.34-0.108-0.689-0.448-0.783c-0.33-0.085-0.671,0.104-0.776,0.426  c-0.087,0.342,0.106,0.693,0.439,0.803C132.353,469.11,132.696,468.911,132.797,468.578L132.797,468.578z M105.539,459.015  c-0.048-0.347-0.367-0.592-0.715-0.552c-0.341,0.042-0.586,0.353-0.543,0.694c0.025,0.338,0.32,0.592,0.658,0.567  c0.009,0,0.018-0.001,0.027-0.004c0.348-0.03,0.605-0.338,0.572-0.686C105.541,459.029,105.54,459.022,105.539,459.015  L105.539,459.015z"/>
<path fill="#B2CEF6" d="M800,518.59c-14.243-5.224-27.312-9.81-34.185-11.929c-12.246-3.775-25.561-6.648-35.818-12.169  c-10.258-5.522-16.715-14.814-10.554-22.223c6.834-8.219,24.516-10.042,39.582-11.493c12.99-1.251,25.857-2.96,38.516-5.114  c0.815-0.139,1.646-0.292,2.459-0.47v-9.435c-2.682-0.809-5.771-1.159-8.767-1.453c-41.381-4.058-83.662-3.245-125.44-1.128  c-31.168,1.58-62.235,3.879-93.11,6.891c-33.933,3.31-68.652,7.731-97.103,19.355c-9.983,4.079-19.866,10.416-18.608,17.446  c78.672,11.163,164.758-1.682,236.261,25.268c18.093,6.819,36.281,18.444,36.004,33.584c-0.357,19.552-29.968,30.684-55.545,34.819  c-47.034,7.602-95.536,5.797-143.749,5.094c-0.076,3.693,4.566,7.065,10.152,8.707c5.908,1.736,12.684,1.955,19.25,2.143  c39.953,1.143,79.905,2.285,119.858,3.428c22.378,0.641,91.947-2.281,120.797-4.448V518.59z"/>

        </g>
    </g>
</g>

<!-- ITEM 1 -->
<g>
    <defs>
        
        <clipPath id="clip-path-id-viewbox-item-1">
            <rect x="0.0" y="0.0" width="100.0" height="55.0"/>
        </clipPath>
    </defs>
    <g transform="translate(789.0 927.0) rotate(0.0 132.0 72.5) scale(2.64 2.6363636363636362)">
        <g clip-path="url(#clip-path-id-viewbox-item-1)" transform="translate(-0.0 -0.0)">

<path fill="#A1C3FC" d="M99.973,51.184c0.007-0.351,0.027-0.7,0.027-1.053c0-27.614-22.386-50-50-50s-50,22.386-50,50  c0,0.353,0.019,0.701,0.027,1.053C33.342,56.096,66.658,56.096,99.973,51.184z"/>

        </g>
    </g>
</g>

<!-- ITEM 2 -->
<g>
    <defs>
        
        <clipPath id="clip-path-id-viewbox-item-2">
            <rect x="0.0" y="0.0" width="342.641" height="566.684"/>
        </clipPath>
    </defs>
    <g transform="translate(846.0 456.0) rotate(0.0 182.0 300.5) scale(1.0623363812269984 1.060555794763925)">
        <g clip-path="url(#clip-path-id-viewbox-item-2)" transform="translate(-0.0 -0.0)">

<path fill="#23286B" d="M292.262,256.177l-11.768,5.721c-21.347,10.379-47.066,1.488-57.445-19.859L143.236,77.884  c-10.379-21.347-1.488-47.066,19.859-57.445l11.768-5.722c21.347-10.379,47.066-1.488,57.445,19.859l79.813,164.155  C322.501,220.079,313.609,245.798,292.262,256.177z"/>
<g>
	<path fill="#D6D7D8" d="M287.897,256.55c-0.251,0-0.468-0.189-0.496-0.445c-0.03-0.274,0.167-0.521,0.442-0.552   c3.92-0.436,7.724-1.539,11.304-3.279c0.249-0.122,0.549-0.018,0.668,0.23c0.121,0.248,0.018,0.548-0.23,0.668   c-3.684,1.792-7.597,2.927-11.632,3.375C287.934,256.549,287.915,256.55,287.897,256.55z M275.979,255.821   c-0.038,0-0.076-0.004-0.115-0.014c-3.97-0.938-7.72-2.532-11.145-4.739c-0.232-0.149-0.3-0.459-0.149-0.69   c0.148-0.232,0.461-0.302,0.69-0.149c3.33,2.145,6.975,3.694,10.834,4.606c0.269,0.063,0.435,0.333,0.371,0.602   C276.411,255.665,276.205,255.821,275.979,255.821z M262.542,249.417c-0.107,0-0.215-0.034-0.306-0.104   c-3.224-2.492-5.973-5.5-8.171-8.938c-0.149-0.232-0.081-0.542,0.151-0.69c0.231-0.149,0.542-0.083,0.69,0.151   c2.137,3.342,4.809,6.265,7.94,8.687c0.219,0.169,0.259,0.483,0.09,0.701C262.839,249.351,262.692,249.417,262.542,249.417z    M249.031,229.926c-0.185,0-0.363-0.104-0.449-0.281l-5.247-10.792c-0.121-0.248-0.018-0.548,0.23-0.668   c0.249-0.123,0.548-0.018,0.668,0.23l5.247,10.792c0.121,0.248,0.018,0.548-0.23,0.668   C249.179,229.91,249.104,229.926,249.031,229.926z M238.536,208.342c-0.186,0-0.363-0.104-0.449-0.281l-1.312-2.698   c-0.121-0.248-0.018-0.548,0.23-0.668c0.248-0.124,0.549-0.018,0.668,0.23l1.312,2.698c0.121,0.248,0.018,0.548-0.23,0.668   C238.685,208.326,238.61,208.342,238.536,208.342z M231.977,194.852c-0.185,0-0.363-0.104-0.449-0.281l-5.247-10.792   c-0.121-0.248-0.018-0.548,0.23-0.668c0.246-0.123,0.548-0.019,0.668,0.23l5.247,10.792c0.121,0.248,0.018,0.548-0.23,0.668   C232.125,194.836,232.05,194.852,231.977,194.852z M221.483,173.268c-0.185,0-0.363-0.104-0.449-0.281l-5.247-10.792   c-0.121-0.248-0.018-0.548,0.23-0.668c0.248-0.122,0.549-0.018,0.668,0.23l5.247,10.792c0.121,0.248,0.018,0.548-0.23,0.668   C221.631,173.252,221.556,173.268,221.483,173.268z M214.924,159.778c-0.185,0-0.363-0.104-0.449-0.281l-5.247-10.792   c-0.121-0.248-0.018-0.548,0.23-0.668c0.248-0.122,0.549-0.018,0.668,0.23l5.247,10.792c0.121,0.248,0.018,0.548-0.23,0.668   C215.073,159.762,214.997,159.778,214.924,159.778z M204.43,138.194c-0.185,0-0.363-0.104-0.449-0.281l-5.247-10.792   c-0.121-0.248-0.018-0.548,0.23-0.668c0.248-0.122,0.549-0.018,0.668,0.23l5.247,10.792c0.121,0.248,0.018,0.548-0.23,0.668   C204.578,138.178,204.503,138.194,204.43,138.194z M193.935,116.61c-0.186,0-0.363-0.104-0.449-0.281l-1.312-2.698   c-0.121-0.249-0.018-0.548,0.23-0.668c0.249-0.123,0.549-0.017,0.668,0.23l1.312,2.698c0.121,0.248,0.018,0.548-0.23,0.668   C194.083,116.594,194.008,116.61,193.935,116.61z M187.376,103.119c-0.185,0-0.363-0.104-0.449-0.281l-2.206-4.537   c-1.03-2.119-1.854-4.341-2.444-6.604c-0.07-0.267,0.09-0.54,0.357-0.609c0.264-0.077,0.54,0.089,0.609,0.357   c0.575,2.199,1.375,4.359,2.376,6.419l2.206,4.537c0.121,0.248,0.018,0.548-0.23,0.668   C187.525,103.104,187.45,103.119,187.376,103.119z M181.769,80.171c-0.016,0-0.03-0.001-0.045-0.002   c-0.275-0.024-0.479-0.268-0.454-0.542c0.36-4.057,1.404-7.995,3.102-11.707c0.115-0.252,0.415-0.359,0.663-0.247   c0.251,0.115,0.361,0.412,0.247,0.663c-1.651,3.608-2.665,7.437-3.016,11.379C182.243,79.976,182.025,80.171,181.769,80.171z    M247.687,66.76c-0.179,0-0.352-0.097-0.441-0.266c-1.866-3.511-4.292-6.641-7.209-9.302c-0.204-0.186-0.219-0.502-0.032-0.706   s0.503-0.22,0.706-0.032c3.002,2.738,5.497,5.958,7.418,9.571c0.13,0.243,0.037,0.546-0.207,0.676   C247.847,66.742,247.766,66.76,247.687,66.76z M186.189,65.957c-0.084,0-0.168-0.021-0.246-0.064   c-0.24-0.136-0.325-0.441-0.189-0.682c2.01-3.557,4.59-6.71,7.669-9.371c0.208-0.181,0.524-0.158,0.705,0.051   s0.158,0.524-0.051,0.705c-2.992,2.587-5.5,5.65-7.452,9.107C186.533,65.866,186.363,65.957,186.189,65.957z M230.309,50.9   c-0.064,0-0.13-0.013-0.193-0.039c-0.903-0.379-1.836-0.725-2.772-1.027c-0.263-0.085-0.406-0.366-0.321-0.63   c0.085-0.262,0.364-0.406,0.63-0.321c0.962,0.312,1.921,0.667,2.851,1.057c0.255,0.106,0.375,0.399,0.268,0.654   C230.69,50.784,230.504,50.9,230.309,50.9z M203.977,50.556c-0.2,0-0.389-0.12-0.466-0.318c-0.101-0.257,0.026-0.547,0.284-0.647   c3.806-1.488,7.798-2.303,11.867-2.422c0.25,0.009,0.507,0.209,0.515,0.485s-0.209,0.507-0.485,0.515   c-3.954,0.115-7.834,0.907-11.533,2.354C204.099,50.545,204.037,50.556,203.977,50.556z"/>
</g>
<path fill="#F2A19C" d="M93.865,93.394c-8.171,9.047-17.092,20.477-19.786,27.398c-1.511,3.883,1.864,16.832,3.086,26.761  c1.207,5.204,24.941,12.282,26.922-11.208c0.417-4.948,3.424-11.657-0.203-15.222c-3.979-3.912-9.779-0.25-14.227-3.649  c4.149-8.043,6.871-12.963,8.975-21.589C99.481,92.733,95.479,92.49,93.865,93.394z"/>
<g>
	<path fill="#23286B" d="M106.34,200.742c-1.356-2.301-2.757-4.601-4.165-6.912c-7.323-12.021-14.896-24.451-17.646-39.248   c-3.595-19.336-1.869-47.605,10.413-63.982c6.821-9.093,43.562-40.775,45.122-42.119l5.221,6.061   c-10.448,9-38.711,33.885-43.942,40.859c-10.354,13.804-12.338,39.485-8.948,57.719c2.481,13.354,9.665,25.146,16.612,36.549   c1.429,2.345,2.85,4.678,4.226,7.014L106.34,200.742z"/>
</g>
<path fill="#FFBEB6" d="M61.026,55.597c-1.107,0.422-9.013,1.127-10.134,0.668c-3.576-1.463,0.932-7.498,2.042-10.147  c2.104-5.02,5.223-19.56,12.293-18.275C65.391,31.475,64.037,54.448,61.026,55.597z"/>
<linearGradient id="SVGID_1_-i2" gradientUnits="userSpaceOnUse" x1="210.3604" y1="531.2227" x2="342.641" y2="531.2227">
	<stop offset="0" style="stop-color:#E94A47"/>
	<stop offset="1" style="stop-color:#D62929"/>
</linearGradient>
<path fill="url(#SVGID_1_-i2)" d="M323.411,495.761c3.923,22.861,22.614,44.83,18.692,69.731c-30.329,1.39-98.91,1.39-131.738,0.883  c-0.569-39.206,46.422-18.237,56.43-44.667c1.525-4.027-1.408-14.492,0.187-16.6c2.409-3.185,14.772-2.746,18.688-3.385  C297.838,499.738,310.749,495.805,323.411,495.761z"/>
<path fill="#D62929" d="M113.051,381.461c3.923,22.861,22.614,44.83,18.692,69.731c-30.329,1.39-98.909,1.39-131.738,0.883  c-0.569-39.205,46.422-18.237,56.43-44.667c1.525-4.027-1.408-14.492,0.187-16.6c2.409-3.185,14.772-2.746,18.688-3.385  C87.478,385.438,100.389,381.505,113.051,381.461z"/>
<path fill="#151A4F" d="M114.114,227.79c-30.545,3.28-92.55-20.978-104.916,22.86c-5.514,19.549,8.591,48.982,14.282,68.011  c6.963,23.282,14.865,46.966,24.096,69.179c1.634,3.932,6.193,10.717,6.649,15.209c1.534,0.931,56.538-0.117,66.869,0.797  c-0.48-15.669-1.901-23.66-9.521-45.246c-3.804-10.776-14.446-15.65-16.576-27.02c-2.023-10.802,2.63-23.346-10.98-30.921  c33.106,19.229,95.018,44.078,130.426,15.073c20.247-16.585,24.766-46.89,8.82-67.651c-15.226-19.823-38.125-21.505-62.16-20.291  c-15.677,0.792-29.859,2.507-45.91,0.89C114.014,230.324,112.807,225.794,114.114,227.79z"/>
<linearGradient id="SVGID_2_-i2" gradientUnits="userSpaceOnUse" x1="255.1302" y1="393.3475" x2="149.1302" y2="234.0141">
	<stop offset="0" style="stop-color:#23286B"/>
	<stop offset="1" style="stop-color:#151A4F"/>
</linearGradient>
<path fill="url(#SVGID_2_-i2)" d="M135.704,270.971c20.29,26.377,30.608,47.755,47.273,76.207  c12.516,21.368,23.069,43.589,33.659,65.721c9.441,19.73,18.132,39.805,26.063,60.285c5.785,14.939,14.729,34.826,20.736,51.326  c19.598,0.593,52.904,0.181,70.198,0.274c0.306-11.067,1.922-20.759-2.091-31.558c-6.607-17.784-11.602-19.368-19.054-31.755  c-12.208-20.289,2.976-12.614-28.193-63.5c-22.578-36.859-33.139-107.571-34.324-119.38c-1.435-14.305-4.082-25.683-19.016-26.354  c-11.941-0.536-25.611,2.655-38.1,0.949c-25.478-3.48-64.926-22.527-90.17-22.856C107.589,240.275,123.004,254.46,135.704,270.971z"/>
<path fill="#F2A19C" d="M72.204,71.58c6.255,11.517,26.32,19.058,34.573,31.649c4.441-2.584,24.067-19.679,24.311-25.299  c0.348-8.001-22.081-22.245-28.338-26.887C93.327,60.583,87.027,68.9,73.268,72.916C70.318,72.61,73.647,71.465,72.204,71.58z"/>
<path fill="#FFBEB6" d="M81.094,20.78c-35.56,10.16-36.211,64.455,8.89,57.146c30.755-4.985,42.597-73.771,5.08-60.956  C94.089,18.125,79.993,19.479,81.094,20.78z"/>
<linearGradient id="SVGID_3_-i2" gradientUnits="userSpaceOnUse" x1="91.9669" y1="173.2492" x2="257.031" y2="173.2492">
	<stop offset="0" style="stop-color:#A1C3FC"/>
	<stop offset="1" style="stop-color:#89B3F4"/>
</linearGradient>
<path fill="url(#SVGID_3_-i2)" d="M117.907,74.538c-29.696,12.919-25.893,32.446-25.666,65.658c0.133,19.455,1.152,87.465,1.152,87.465  s33.092,13.127,39.741,16.634c10.505,5.543,22.322,10.032,33.049,14.004c21.418,7.93,40.781,14.355,63.5,15.493  c8.558,0.429,17.945,2.555,26.478-0.504c6.416-39.573-24.235-87.886-41.336-121.948c-10.365-20.645-21.684-38.364-38.412-54.049  c-8.737-8.192-31.906-21.712-36.277-23.081c-2.647-0.829-7.182-2.774-11.442-2.615C125.594,71.712,122.083,72.722,117.907,74.538z"/>
<path fill="#23286B" d="M53.154,56.34c8.069-0.569,18.978-0.699,28.627-0.856c5.558-0.09,10.339-3.981,11.529-9.41  c1.536-7.011,2.755-14.026,4.515-21.038c3.433,0.91-0.469,3.14,2.756,4.39c-3.717,17.412,0.398,48.152-16.948,57.772  c-7.769,4.309-22.168,6.323-27.518-0.353C51.793,81.451,54.313,55.481,53.154,56.34z"/>
<path fill="#23286B" d="M101.562,32.695c1.047-3.077,5.4-5.687,8.5-4.584c3.617,1.286,3.521,5.047,3.015,8.18  c-0.884,5.479-7.049,13.332-13.107,13.778c0.819,4.979,7.286,13.348,12.797,10.419c5.851-3.11,6.25-11.873,6.768-17.341  c0.601-6.349-0.165-14.348-5.877-18.551c-5.238-3.855-13.444,0.305-12.04,7.23C101.708,32.115,101.472,32.405,101.562,32.695z"/>
<linearGradient id="SVGID_4_-i2" gradientUnits="userSpaceOnUse" x1="50.0736" y1="17.78" x2="121.1938" y2="17.78">
	<stop offset="0" style="stop-color:#E94A47"/>
	<stop offset="1" style="stop-color:#D62929"/>
</linearGradient>
<path fill="url(#SVGID_4_-i2)" d="M50.074,35.56h71.12V19.952C121.194,8.933,112.261,0,101.242,0L85.634,0  C65.994,0,50.074,15.921,50.074,35.56L50.074,35.56z"/>
<g>
	<path fill="#E94A47" d="M119.924,37.33H27.213c-0.828,0-1.5-0.672-1.5-1.5s0.672-1.5,1.5-1.5h92.711c0.828,0,1.5,0.672,1.5,1.5   S120.752,37.33,119.924,37.33z"/>
</g>
<path fill="#FFBEB6" d="M66.42,72.577h-1.635c-3.34,0-6.048-2.708-6.048-6.048v-2.413c0-1.105,0.895-2,2-2h9.73c1.105,0,2,0.895,2,2  v2.413C72.468,69.869,69.76,72.577,66.42,72.577z"/>
<linearGradient id="SVGID_5_-i2" gradientUnits="userSpaceOnUse" x1="127.1617" y1="135.6136" x2="266.3238" y2="135.6136">
	<stop offset="0" style="stop-color:#A1C3FC"/>
	<stop offset="1" style="stop-color:#89B3F4"/>
</linearGradient>
<path fill="url(#SVGID_5_-i2)" d="M130.884,92.502c22.039-26.152,53.547,6.213,74.996,19.915c16.343,10.44,65.662,35.627,59.992,58.081  c-7.722,30.577-49.242,14.944-67.491,7.166c-26.427-11.263-51.283-23.416-64.908-50.669  C129.15,118.348,123.177,101.648,130.884,92.502z"/>
<path fill="#89B3F4" d="M126.055,61.085c4.216,6.39,7.08,10.846,7.08,10.846s-32.373,35.485-39.576,30.443  c-2.333-1.633-5.41-3.88-8.055-5.831c-2.73-2.014-2.629-6.126,0.197-8.002c5.415-3.595,13.335-8.945,18.005-12.523  c5.139-3.937,10.701-10.611,14.567-15.337C120.34,58.156,124.259,58.362,126.055,61.085z"/>
<g>
	<path fill="#23286B" d="M257.488,251.912c-19.49-5.281-36.417-16.136-67.078-43.015c-41.832-36.671-73.83-68.238-73.83-112.479   c0-11.543,22.412-49.95,39.276-59.863l4.055,6.896c-14.486,8.515-35.331,44.789-35.331,52.967   c0,40.882,30.816,71.146,71.104,106.463c29.62,25.966,45.743,36.39,63.896,41.31L257.488,251.912z"/>
</g>
<path fill="#FFBEB6" d="M137.865,123.394c-3.121-4.196-5.145-18.811-10-17c-6.982,2.605-0.46,21.806,3,25  c-4.87-1.514-12.916-4.93-18.048-5.626c-7.052-0.474,0.292,11.73,2.294,18.404c1.859,6.2,2.02,14.21,5.754,19.722  c5.739,8.471,28.613,3.832,39,3.5c0.429-8.462,1.108-18.798-1-27c-3.192-12.423-4.255,2.213-12-6.5  C142.865,129.394,140.37,126.762,137.865,123.394z"/>
<linearGradient id="SVGID_6_-i2" gradientUnits="userSpaceOnUse" x1="207.8406" y1="192.7435" x2="207.8406" y2="143.774">
	<stop offset="0" style="stop-color:#A1C3FC"/>
	<stop offset="1" style="stop-color:#89B3F4"/>
</linearGradient>
<path fill="url(#SVGID_6_-i2)" d="M257.523,148.361c-4.815-3.865-10.048-4.51-20.144-6.279c-10.553-1.849-88.014-9.187-88.014-9.187  l-0.254,67.84c0,0,47.125,0.036,70.269-0.615c15.35-0.432,25.041-1.556,36.297-13.045  C264.348,178.223,274.188,161.737,257.523,148.361z"/>
<path fill="#FFBEB6" d="M79.077,118.518c3.615,1.929,15.89,2.664,23.072,7.083c3.153,1.941,1.092,10.188-3.396,14.433  c-6.037,5.71-4.068,14.146-6.792,14.676c-12.827-2.241-15.282-1.819-17.913-18.215c-0.591-3.685-2.441-10.031-1.19-13.751  C74.842,116.845,75.952,116.747,79.077,118.518z"/>
<path id="texure_9_-i2" opacity="0.75" fill="#FFFFFF" enable-background="new    " d="M267.378,478.824  c-0.014-0.175-0.171-0.304-0.346-0.289c-0.174,0.015-0.305,0.171-0.29,0.345c0.014,0.175,0.171,0.304,0.346,0.289l0,0  C267.263,479.151,267.392,478.998,267.378,478.824L267.378,478.824z M259.615,479.578c-0.023-0.18-0.178-0.311-0.359-0.307  c-0.176,0.025-0.299,0.187-0.277,0.362c0.005,0.166,0.141,0.298,0.309,0.293c0.012,0.001,0.023-0.002,0.038-0.004  C259.501,479.907,259.63,479.752,259.615,479.578L259.615,479.578L259.615,479.578z M251.897,450.091  c0.117-0.137,0.1-0.343-0.037-0.459l0,0c-0.122-0.11-0.312-0.1-0.42,0.022c-0.01,0.008-0.019,0.021-0.026,0.034  c-0.115,0.13-0.104,0.326,0.024,0.443C251.574,450.247,251.78,450.229,251.897,450.091L251.897,450.091L251.897,450.091z   M261.532,494.664c0.05-0.164-0.04-0.339-0.204-0.392c-0.165-0.05-0.339,0.04-0.393,0.204c-0.054,0.164,0.04,0.339,0.204,0.392  c0.153,0.058,0.325-0.02,0.383-0.174C261.527,494.683,261.53,494.675,261.532,494.664z M258.799,465.146  c0.152-0.095,0.208-0.288,0.133-0.449c-0.087-0.161-0.288-0.219-0.45-0.133c-0.161,0.087-0.222,0.288-0.133,0.449  C258.445,465.165,258.638,465.221,258.799,465.146z M251.907,468.807c0.153-0.087,0.204-0.283,0.117-0.436l0,0  c-0.068-0.155-0.25-0.226-0.407-0.158c-0.008,0.004-0.016,0.007-0.025,0.012c-0.156,0.091-0.215,0.286-0.133,0.449  C251.553,468.825,251.747,468.882,251.907,468.807z M289.126,515.339c0.122-0.31-0.03-0.662-0.341-0.784  c-0.005-0.003-0.013-0.004-0.02-0.008c-0.307-0.119-0.655,0.036-0.774,0.343c0,0,0,0.003-0.001,0.004  c-0.122,0.31,0.03,0.662,0.341,0.784c0.005,0.003,0.013,0.004,0.02,0.008c0.307,0.119,0.655-0.036,0.774-0.343  c0.002-0.001,0.002-0.001,0.002-0.001L289.126,515.339z M275.314,510.094c0.121-0.317-0.034-0.672-0.353-0.797  c-0.318-0.124-0.673,0.035-0.798,0.354c0,0-0.003,0.005-0.004,0.011c-0.119,0.307,0.035,0.655,0.342,0.772c0.001,0,0.003,0,0.003,0  C274.826,510.554,275.179,510.403,275.314,510.094L275.314,510.094z M300.876,458.759c0.305-0.144,0.44-0.506,0.302-0.813  c-0.124-0.302-0.465-0.447-0.766-0.326c-0.011,0.005-0.021,0.007-0.03,0.013c-0.305,0.144-0.44,0.506-0.301,0.814  C300.214,458.752,300.57,458.891,300.876,458.759L300.876,458.759L300.876,458.759z M273.87,470.859  c0.306-0.136,0.443-0.488,0.309-0.794c0,0-0.006-0.013-0.01-0.018c-0.124-0.302-0.465-0.447-0.766-0.326  c-0.011,0.005-0.021,0.007-0.03,0.013c-0.305,0.151-0.444,0.51-0.32,0.826C273.201,470.863,273.562,470.998,273.87,470.859  L273.87,470.859z M260.38,476.912c0.308-0.14,0.443-0.506,0.302-0.813c-0.141-0.309-0.505-0.442-0.813-0.301  c-0.307,0.133-0.447,0.489-0.315,0.795l0,0c0.132,0.311,0.491,0.459,0.805,0.327C260.367,476.918,260.374,476.914,260.38,476.912  L260.38,476.912z M301.373,490.333c-0.019-0.334-0.307-0.588-0.643-0.568c-0.335,0.02-0.589,0.307-0.57,0.643  c0.02,0.328,0.297,0.579,0.626,0.567C301.124,490.955,301.385,490.67,301.373,490.333L301.373,490.333z M286.583,490.767  c-0.019-0.334-0.307-0.588-0.643-0.568c-0.335,0.02-0.589,0.307-0.57,0.643c0.02,0.328,0.297,0.579,0.626,0.567  C286.333,491.39,286.593,491.105,286.583,490.767L286.583,490.767z M271.808,491.189c-0.02-0.343-0.315-0.602-0.658-0.582  c-0.33,0.019-0.589,0.294-0.587,0.623c0.001,0.343,0.281,0.619,0.624,0.618c0.343-0.001,0.62-0.281,0.62-0.624  C271.81,491.209,271.809,491.2,271.808,491.189z M278.527,438.997c0.226-0.25,0.213-0.636-0.036-0.867  c-0.237-0.229-0.616-0.219-0.844,0.018c0,0-0.003,0.002-0.004,0.005c-0.236,0.221-0.249,0.591-0.029,0.828  c0.011,0.011,0.021,0.022,0.034,0.034C277.9,439.237,278.282,439.227,278.527,438.997z M258.19,460.483  c0.228-0.23,0.229-0.599-0.001-0.828c-0.006-0.006-0.013-0.014-0.022-0.018c-0.235-0.239-0.619-0.239-0.859-0.004  c-0.008,0.008-0.015,0.014-0.022,0.021c-0.231,0.25-0.217,0.636,0.03,0.867c0.249,0.23,0.638,0.215,0.867-0.032  C258.187,460.486,258.189,460.483,258.19,460.483z M301.396,504.823c0.019-0.299-0.206-0.557-0.503-0.581  c-0.298-0.021-0.559,0.204-0.582,0.503c-0.023,0.301,0.203,0.558,0.503,0.581l0,0C301.112,505.346,301.371,505.122,301.396,504.823  L301.396,504.823z M288.223,503.948c0.019-0.299-0.206-0.557-0.503-0.581c-0.298-0.031-0.566,0.187-0.597,0.484  c-0.031,0.298,0.186,0.566,0.485,0.596c0.011,0.002,0.023,0.001,0.034,0.003c0.292,0.028,0.552-0.189,0.58-0.481  C288.222,503.964,288.22,503.956,288.223,503.948L288.223,503.948z M274.867,503.42c0.109-0.081,0.176-0.209,0.18-0.349  c0.019-0.299-0.206-0.557-0.503-0.581c-0.307-0.023-0.574,0.203-0.6,0.511l0,0.006c-0.013,0.181,0.064,0.358,0.207,0.472  l0.014,0.018c0.078,0.067,0.179,0.1,0.283,0.09C274.609,503.607,274.767,503.543,274.867,503.42L274.867,503.42z M283.446,452.629  c0.223-0.211,0.243-0.556,0.047-0.791c-0.191-0.221-0.522-0.244-0.744-0.055c-0.006,0.006-0.011,0.011-0.018,0.017  c-0.231,0.193-0.261,0.536-0.067,0.764c0.002,0.003,0.005,0.004,0.005,0.004C282.874,452.789,283.213,452.815,283.446,452.629z   M263.545,469.992c0.231-0.193,0.261-0.536,0.068-0.766c0,0-0.005-0.005-0.008-0.008c-0.177-0.221-0.502-0.253-0.722-0.075  c-0.014,0.01-0.027,0.022-0.039,0.035c-0.231,0.193-0.261,0.536-0.068,0.766c0.003,0.003,0.005,0.005,0.008,0.008  C262.988,470.164,263.322,470.181,263.545,469.992L263.545,469.992z M253.62,478.667c0.223-0.208,0.236-0.555,0.029-0.777  c-0.2-0.216-0.537-0.235-0.762-0.04c-0.217,0.203-0.245,0.538-0.061,0.773C253.037,478.845,253.385,478.865,253.62,478.667  L253.62,478.667z M291.482,480.395c0.282-0.105,0.428-0.416,0.33-0.699c-0.095-0.282-0.399-0.435-0.681-0.34  c-0.283,0.101-0.442,0.405-0.361,0.694C290.874,480.337,291.19,480.494,291.482,480.395z M278.959,484.613  c0.277-0.082,0.437-0.374,0.354-0.651c-0.003-0.008-0.008-0.021-0.009-0.03c-0.095-0.282-0.399-0.435-0.681-0.34  c-0.283,0.101-0.442,0.405-0.361,0.694C278.365,484.565,278.676,484.711,278.959,484.613z M266.449,488.846  c0.282-0.097,0.431-0.403,0.335-0.684c-0.096-0.277-0.395-0.429-0.676-0.338c-0.283,0.092-0.44,0.394-0.35,0.68  c0.092,0.285,0.394,0.439,0.679,0.349C266.441,488.849,266.444,488.848,266.449,488.846z M253.002,453.694  c0.133-0.271,0.027-0.601-0.243-0.742c-0.277-0.126-0.606-0.008-0.734,0.271c-0.121,0.265-0.019,0.577,0.235,0.715  c0.26,0.141,0.588,0.045,0.73-0.214C252.993,453.712,252.999,453.702,253.002,453.694z M267.641,487.25  c0.153-0.087,0.204-0.283,0.117-0.436c-0.087-0.152-0.284-0.204-0.436-0.117c-0.152,0.087-0.204,0.283-0.117,0.436l0,0  C267.292,487.288,267.488,487.338,267.641,487.25L267.641,487.25L267.641,487.25z M260.91,491.171  c0.151-0.1,0.194-0.298,0.103-0.454c-0.087-0.152-0.284-0.204-0.436-0.117l0,0c-0.15,0.078-0.207,0.264-0.127,0.415  c0.004,0.008,0.007,0.013,0.012,0.022c0.084,0.159,0.281,0.219,0.442,0.138C260.906,491.173,260.908,491.173,260.91,491.171z   M269.073,503.607c-0.034-0.17-0.189-0.287-0.363-0.276c-0.171,0.018-0.298,0.174-0.279,0.347c0,0.006,0.002,0.011,0.002,0.018  c0.015,0.169,0.163,0.294,0.332,0.28c0.011-0.002,0.02-0.002,0.029-0.004C268.973,503.944,269.097,503.782,269.073,503.607  L269.073,503.607z M254.259,477.985c0.11-0.14,0.084-0.337-0.055-0.445c-0.14-0.109-0.338-0.084-0.447,0.057  c-0.111,0.123-0.101,0.311,0.02,0.42c0.008,0.009,0.022,0.018,0.034,0.026c0.133,0.109,0.333,0.086,0.44-0.047  C254.256,477.992,254.257,477.988,254.259,477.985L254.259,477.985z M281.566,520.758c0.017-0.192-0.128-0.364-0.321-0.38  c-0.003,0-0.006-0.001-0.011-0.002c-0.198-0.022-0.374,0.119-0.398,0.315c0,0.009-0.001,0.02-0.003,0.029  c-0.017,0.192,0.128,0.364,0.321,0.38c0.003,0,0.006,0.001,0.011,0.002C281.371,521.113,281.547,520.961,281.566,520.758  L281.566,520.758z M269.866,485.47c0.15-0.115,0.176-0.33,0.062-0.478c-0.008-0.012-0.018-0.022-0.03-0.032  c-0.132-0.15-0.361-0.165-0.511-0.034c-0.145,0.138-0.168,0.362-0.05,0.525C269.475,485.602,269.712,485.612,269.866,485.47  C269.863,485.473,269.863,485.473,269.866,485.47L269.866,485.47z M263.122,491.266c0.153-0.14,0.164-0.374,0.021-0.527l-0.001,0  c-0.132-0.15-0.361-0.165-0.511-0.034c-0.145,0.138-0.168,0.362-0.05,0.525C262.723,491.379,262.957,491.394,263.122,491.266  L263.122,491.266z M274.867,503.42c0.007-0.052,0.005-0.106-0.007-0.157c-0.059-0.189-0.263-0.294-0.453-0.233  c-0.003,0.001-0.006,0.002-0.012,0.003c-0.187,0.064-0.291,0.258-0.243,0.446l0.014,0.018c0.059,0.189,0.263,0.294,0.453,0.233  c0.003-0.001,0.008-0.003,0.012-0.003C274.768,503.685,274.861,503.562,274.867,503.42L274.867,503.42z M252.949,477.56  c0.092-0.179,0.02-0.399-0.16-0.49c-0.004-0.001-0.008-0.005-0.011-0.004c-0.176-0.088-0.391-0.017-0.479,0.16  c-0.099,0.167-0.047,0.38,0.12,0.481c0.008,0.005,0.013,0.007,0.021,0.013C252.624,477.813,252.849,477.744,252.949,477.56  L252.949,477.56z M313.888,498.442c0.324-0.128,0.492-0.485,0.381-0.819c-0.114-0.327-0.47-0.503-0.798-0.391  c-0.326,0.125-0.496,0.487-0.381,0.819C313.202,498.379,313.558,498.555,313.888,498.442L313.888,498.442z M299.483,503.461  c0.329-0.113,0.504-0.469,0.393-0.798c-0.111-0.329-0.47-0.503-0.798-0.391c-0.329,0.113-0.504,0.469-0.393,0.798  C298.796,503.396,299.153,503.571,299.483,503.461L299.483,503.461z M285.09,508.496c0.326-0.125,0.496-0.487,0.382-0.817  c-0.124-0.323-0.488-0.483-0.81-0.359c-0.321,0.123-0.484,0.488-0.361,0.81C284.419,508.444,284.771,508.608,285.09,508.496z   M264.914,464.025c0.144-0.313,0.019-0.685-0.29-0.842c-0.314-0.153-0.69-0.024-0.844,0.29c-0.154,0.313-0.024,0.69,0.29,0.842l0,0  C264.383,464.463,264.757,464.335,264.914,464.025L264.914,464.025z M258.277,477.739c0.147-0.313,0.021-0.687-0.29-0.842  c-0.323-0.145-0.7-0.011-0.862,0.304c-0.142,0.323,0.007,0.697,0.326,0.838C257.763,478.172,258.125,478.041,258.277,477.739z   M281.482,485.883c0.262-0.236,0.284-0.637,0.051-0.899l-0.001,0c-0.228-0.252-0.618-0.271-0.868-0.043l0,0  c-0.263,0.224-0.293,0.619-0.068,0.88c0.224,0.264,0.618,0.292,0.882,0.067l0.005-0.003L281.482,485.883z M270.103,496.023  c0.26-0.222,0.292-0.612,0.071-0.872c-0.002-0.003-0.006-0.006-0.008-0.009c-0.226-0.268-0.628-0.304-0.898-0.077  c-0.269,0.226-0.305,0.627-0.078,0.897c0.226,0.268,0.628,0.304,0.898,0.077C270.094,496.033,270.1,496.027,270.103,496.023z   M289.807,491.179c0.269-0.227,0.304-0.626,0.079-0.895c-0.221-0.257-0.609-0.296-0.879-0.09c-0.267,0.231-0.308,0.627-0.097,0.908  C289.141,491.361,289.534,491.396,289.807,491.179L289.807,491.179z M278.055,500.806c0.269-0.227,0.304-0.626,0.079-0.895  c-0.217-0.267-0.612-0.308-0.879-0.09c-0.267,0.217-0.309,0.612-0.092,0.879l0,0C277.382,500.965,277.776,501.013,278.055,500.806  L278.055,500.806z M294.443,517.771c0.327-0.104,0.507-0.451,0.409-0.777c0,0,0.001-0.003-0.001-0.003  c-0.096-0.334-0.442-0.527-0.775-0.434c-0.333,0.107-0.52,0.46-0.425,0.795C293.76,517.678,294.109,517.862,294.443,517.771  L294.443,517.771z M279.886,522.171c0.333-0.093,0.525-0.442,0.432-0.774c-0.093-0.333-0.441-0.523-0.774-0.43  c-0.003,0.001-0.008,0.003-0.016,0.006c-0.329,0.11-0.517,0.459-0.425,0.795c0.101,0.327,0.451,0.506,0.777,0.407  C279.883,522.17,279.883,522.17,279.886,522.171L279.886,522.171z M272.918,467.877c0.157-0.312,0.037-0.694-0.272-0.856  c-0.304-0.159-0.68-0.044-0.84,0.26c-0.172,0.291-0.074,0.667,0.217,0.838c0.008,0.005,0.014,0.01,0.025,0.013  c0.303,0.173,0.687,0.067,0.86-0.237C272.913,467.889,272.915,467.883,272.918,467.877z M265.739,481.256  c0.157-0.312,0.037-0.694-0.272-0.856c-0.304-0.159-0.68-0.045-0.84,0.26c-0.172,0.291-0.074,0.667,0.217,0.838  c0.008,0.005,0.014,0.01,0.025,0.013c0.303,0.173,0.69,0.066,0.86-0.237C265.732,481.268,265.735,481.262,265.739,481.256z   M278.279,493.643c0.161-0.206,0.127-0.504-0.079-0.667c-0.201-0.157-0.489-0.127-0.655,0.066c-0.163,0.189-0.145,0.476,0.042,0.641  c0.011,0.01,0.026,0.021,0.038,0.03C277.826,493.87,278.117,493.838,278.279,493.643z M271.134,502.569  c0.164-0.207,0.125-0.509-0.081-0.67s-0.509-0.124-0.671,0.082c-0.164,0.201-0.133,0.498,0.067,0.66  c0.005,0.004,0.008,0.006,0.013,0.011C270.672,502.808,270.968,502.772,271.134,502.569L271.134,502.569z M288.716,515.558  c0.224-0.129,0.304-0.417,0.179-0.643c-0.139-0.217-0.415-0.295-0.645-0.178c-0.227,0.126-0.31,0.412-0.183,0.64l0.001,0  c0.117,0.224,0.391,0.314,0.615,0.199C288.697,515.57,288.706,515.565,288.716,515.558z M278.676,521.103  c0.229-0.132,0.314-0.421,0.197-0.658c-0.126-0.227-0.413-0.309-0.64-0.182c0,0,0,0.001-0.003,0.001  c-0.225,0.115-0.315,0.387-0.201,0.613c0,0,0.006,0.009,0.01,0.015c0.117,0.234,0.398,0.329,0.633,0.214  C278.671,521.106,278.674,521.104,278.676,521.103L278.676,521.103z"/>

        </g>
    </g>
</g>

              </svg>